<?xml version="1.0" encoding="utf-8"?><!-- Uploaded to: SVG Repo, www.svgrepo.com, Generator: SVG Repo Mixer Tools -->
<svg fill="#000000" width="800px" height="800px" viewBox="0 0 24 24" id="wheelchair" data-name="Flat Color" xmlns="http://www.w3.org/2000/svg" class="icon flat-color"><path id="primary" d="M21,17H18V13a2,2,0,0,0-2-2H8V9h9a1,1,0,0,0,0-2H8V5A2,2,0,0,0,6,3H4A1,1,0,0,0,4,5H6v7a1,1,0,0,0,1,1h9v2H11a1,1,0,0,0,0,2h5a2,2,0,0,0,2,2h3a1,1,0,0,0,0-2Z" style="fill: rgb(0, 0, 0);"></path><circle id="secondary" cx="7" cy="16" r="5" style="fill: rgb(44, 169, 188);"></circle><circle id="primary-2" data-name="primary" cx="7" cy="16" r="1.5" style="fill: rgb(0, 0, 0);"></circle></svg>