<?xml version="1.0" standalone="no"?>
<!DOCTYPE svg PUBLIC "-//W3C//DTD SVG 20010904//EN"
 "http://www.w3.org/TR/2001/REC-SVG-20010904/DTD/svg10.dtd">
<svg version="1.0" xmlns="http://www.w3.org/2000/svg"
 width="1000.000000pt" height="1500.000000pt" viewBox="0 0 1000.000000 1500.000000"
 preserveAspectRatio="xMidYMid meet">

<g transform="translate(0.000000,1500.000000) scale(0.100000,-0.100000)"
fill="#000000" stroke="none">
<path d="M4948 13528 c-53 -14 -93 -65 -120 -151 -20 -64 -23 -92 -23 -252 0
-99 -3 -528 -8 -953 -7 -686 -6 -775 8 -795 12 -17 15 -57 15 -208 0 -102 -4
-210 -10 -238 -5 -30 -10 -301 -11 -637 -1 -321 -3 -584 -4 -584 -1 0 -19 7
-40 16 -60 25 -252 37 -380 24 -132 -14 -202 -40 -212 -79 -12 -46 -9 -131 5
-140 16 -9 25 -127 32 -383 0 -4 11 -2 25 4 24 11 24 14 18 67 -4 31 -7 115
-8 188 0 129 1 133 26 158 32 33 137 50 255 42 93 -7 144 -24 168 -58 22 -31
23 -204 1 -255 l-14 -35 56 3 56 3 12 40 c8 32 12 36 18 22 4 -10 7 -30 7 -43
0 -23 2 -24 43 -18 44 7 62 14 35 14 -13 0 -16 17 -17 103 -1 56 -4 148 -7
205 l-6 102 126 0 c113 0 126 -2 127 -17 5 -82 -4 -360 -12 -374 -7 -14 -24
-19 -77 -22 -56 -3 -52 -3 30 -5 53 -1 103 -5 112 -8 13 -5 15 78 12 793 -4
696 -6 810 -21 893 -12 70 -16 135 -13 246 3 134 5 154 23 174 13 15 20 39 22
83 2 34 0 467 -5 962 -8 891 -9 901 -31 968 -26 80 -69 133 -119 147 -42 11
-44 11 -94 -2z m90 -183 c35 -29 49 -77 60 -211 8 -91 7 -91 -13 -78 -31 20
-99 28 -139 14 -20 -6 -52 -30 -72 -53 l-36 -42 7 75 c14 179 18 207 30 237
34 82 105 107 163 58z m27 -307 c13 -6 29 -24 35 -41 6 -20 10 -272 10 -747
l0 -717 -61 -7 c-34 -3 -91 -6 -126 -6 l-64 0 5 700 c3 385 8 711 10 723 16
77 17 78 59 98 43 20 84 19 132 -3z m-169 -2094 c19 -20 34 -33 34 -28 0 4 6
0 13 -10 7 -9 21 -19 32 -21 11 -2 21 -4 23 -4 1 -1 4 -1 7 -1 3 1 13 -6 21
-15 9 -8 24 -15 34 -15 10 0 22 -5 25 -10 4 -6 10 -8 15 -5 5 3 15 -5 22 -17
10 -17 14 -96 16 -300 l3 -278 -134 0 c-75 0 -142 -3 -151 -6 -14 -6 -16 31
-16 370 0 260 3 376 11 376 6 0 26 -16 45 -36z m-478 -1211 c-15 -2 -42 -2
-60 0 -18 2 -6 4 27 4 33 0 48 -2 33 -4z"/>
<path d="M5065 10830 c3 -5 8 -10 11 -10 2 0 4 5 4 10 0 6 -5 10 -11 10 -5 0
-7 -4 -4 -10z"/>
<path d="M5690 11134 c-45 -16 -103 -54 -128 -84 -72 -88 -126 -255 -136 -421
-1 -25 -6 -51 -10 -57 -4 -7 -2 -20 5 -28 9 -11 9 -18 1 -26 -15 -15 -16 -48
-1 -48 6 0 7 -5 2 -12 -11 -18 -13 -199 -3 -193 5 3 3 -7 -5 -21 -8 -15 -11
-32 -8 -37 7 -12 10 -97 3 -97 -10 0 -10 -49 0 -55 6 -3 6 -15 0 -30 -5 -14
-5 -27 0 -30 5 -3 5 -18 1 -33 -11 -41 -4 -254 9 -262 8 -5 7 -9 -3 -13 -22
-8 -19 -396 3 -408 8 -4 46 -11 84 -15 88 -8 68 -25 -32 -27 -51 -2 -75 3 -96
16 -27 18 -56 17 -56 -2 0 -11 108 -37 210 -51 41 -6 99 -19 128 -30 70 -26
74 -26 71 13 -2 18 0 37 4 44 4 6 2 13 -4 15 -8 3 -8 10 2 26 12 19 12 24 0
31 -11 7 -11 15 -3 39 8 25 7 33 -4 43 -12 10 -12 14 -2 20 15 9 17 41 4 50
-5 4 -5 13 0 20 12 21 13 52 1 67 -8 11 -7 16 6 24 16 9 16 11 0 38 -16 29
-16 30 2 44 19 14 19 15 2 28 -16 12 -17 18 -6 41 9 20 9 30 0 40 -9 11 -8 17
3 26 11 9 12 19 6 37 -6 15 -6 34 0 49 5 14 5 27 1 30 -10 6 -9 24 3 43 4 7 2
19 -5 28 -10 12 -9 20 2 41 11 21 11 27 2 30 -16 6 -17 35 -1 51 7 7 8 15 1
24 -10 14 -10 99 1 116 3 6 0 12 -6 15 -9 3 -10 8 -3 18 12 16 13 39 2 56 -4
6 -3 14 2 17 5 3 7 20 6 38 -2 18 2 39 7 46 7 8 7 12 0 12 -16 0 20 284 38
304 5 5 6 16 2 25 -10 27 23 -9 42 -47 37 -72 105 -349 145 -597 34 -202 69
-373 117 -575 89 -368 145 -651 194 -980 7 -41 14 -82 17 -90 2 -8 6 -43 7
-78 1 -40 6 -66 15 -71 9 -6 10 -11 2 -15 -17 -11 -14 -56 4 -56 17 0 20 -16
5 -25 -12 -7 -9 -55 3 -55 4 0 6 -14 3 -32 -3 -18 -1 -37 3 -43 5 -5 12 -62
16 -125 4 -63 11 -122 16 -132 12 -22 11 -37 0 -19 -8 12 -11 9 -16 -12 -10
-36 -25 -34 -25 3 0 17 -6 43 -14 58 -8 15 -24 97 -36 182 -32 237 -74 435
-89 425 -5 -2 -11 5 -14 16 -3 12 -10 18 -15 15 -6 -4 -8 3 -5 16 3 15 2 19
-4 11 -6 -9 -17 11 -32 60 -23 70 -59 152 -65 145 -2 -1 3 -41 10 -88 37 -247
43 -292 50 -370 4 -47 7 -98 6 -115 0 -16 -3 -253 -6 -525 -7 -608 -12 -744
-30 -795 l-14 -40 70 -12 c79 -13 99 -23 45 -23 -58 0 -77 -26 -78 -107 0 -38
-1 -143 -2 -235 -1 -93 -4 -168 -7 -168 -3 0 -5 -42 -6 -93 -2 -144 -5 -187
-19 -267 -8 -41 -17 -97 -20 -125 -15 -125 -16 -127 -33 -113 -13 11 -15 10
-9 -5 5 -13 0 -20 -18 -27 -14 -5 -25 -14 -25 -20 0 -6 -5 -8 -10 -5 -8 5 -7
11 1 21 22 27 -1 27 -27 1 -15 -15 -23 -27 -18 -27 5 0 2 -4 -6 -10 -11 -7 -9
-11 13 -19 18 -7 27 -18 27 -33 0 -19 -2 -20 -10 -8 -8 12 -10 12 -10 1 0 -15
-14 -6 -16 10 -1 5 -2 14 -3 19 -1 7 -9 7 -23 -1 -22 -11 -22 -11 -8 6 14 17
13 17 -9 10 -16 -5 -26 -3 -32 6 -7 11 -9 11 -9 1 0 -7 -4 -10 -10 -7 -5 3
-10 1 -10 -4 0 -6 5 -11 10 -11 6 0 10 -5 10 -11 0 -6 -7 -9 -15 -5 -10 3 -15
-1 -15 -12 0 -12 -5 -9 -18 11 -9 15 -22 25 -29 23 -7 -3 -15 -1 -18 4 -3 4 7
13 22 19 19 8 21 10 6 7 -18 -3 -23 2 -28 26 -6 26 -8 28 -20 12 -7 -10 -11
-27 -9 -38 3 -12 2 -15 -2 -8 -3 6 -13 12 -22 13 -11 0 -12 2 -4 6 6 2 12 13
12 24 0 19 -1 19 -26 2 -26 -17 -27 -17 -20 7 6 19 5 21 -3 10 -6 -9 -11 -10
-11 -3 0 6 -14 16 -31 22 -40 14 -39 14 -39 -5 0 -8 5 -12 10 -9 16 10 34 -6
19 -16 -10 -7 -5 -8 13 -5 21 3 29 0 33 -15 4 -12 4 -24 0 -27 -9 -9 -168 -4
-194 6 -33 12 -10 31 41 33 26 2 45 6 42 10 -2 4 0 10 5 13 16 10 -12 56 -34
56 -17 0 -18 2 -5 11 12 9 11 10 -6 6 -12 -2 -29 0 -39 6 -12 6 -16 6 -11 -1
3 -6 2 -13 -3 -16 -5 -3 -12 1 -15 10 -3 9 -12 14 -19 11 -6 -2 -25 3 -42 11
-29 15 -29 15 -7 23 12 5 22 13 22 18 0 17 -19 22 -40 11 -16 -9 -19 -8 -13 6
4 12 3 15 -5 10 -8 -5 -14 3 -18 23 -4 17 -10 31 -15 31 -5 0 -9 5 -9 11 0 5
5 7 12 3 7 -4 8 -3 4 4 -4 7 -14 12 -22 12 -7 0 -27 14 -42 30 -16 17 -34 30
-41 30 -6 0 -10 6 -8 13 2 14 -96 11 -101 -4 -2 -5 -18 -10 -35 -10 l-32 -1
30 -7 c22 -5 5 -9 -60 -13 -49 -4 -110 -14 -134 -22 -54 -20 -64 -20 -31 -1
14 8 21 14 15 14 -14 0 -63 -28 -50 -29 6 0 -10 -13 -35 -29 -65 -41 -132
-109 -173 -179 -51 -83 -72 -94 -181 -98 -80 -3 -91 -6 -98 -24 -5 -14 -3 -23
7 -26 8 -3 83 -3 167 0 332 13 648 16 748 8 l105 -9 -137 -2 c-79 0 -139 -5
-143 -11 -6 -9 8 -14 28 -11 4 0 7 -4 7 -10 0 -5 5 -7 10 -4 6 3 10 3 10 -2 0
-4 10 -9 23 -10 55 -4 131 -23 139 -35 10 -16 10 -28 1 -27 -5 1 -10 1 -13 0
-3 -1 -135 -4 -295 -7 -356 -5 -354 -5 -361 -26 -3 -10 -11 -15 -19 -11 -8 3
-12 9 -10 14 3 5 -6 11 -20 15 -14 3 -24 9 -21 12 3 2 1 13 -4 22 -8 16 -14
17 -40 7 -25 -9 -33 -9 -39 1 -11 18 -19 17 -40 -7 -9 -11 -29 -23 -44 -26
-15 -4 -25 -11 -22 -15 3 -4 -2 -10 -10 -14 -12 -4 -15 3 -16 32 -1 43 -8 95
-15 101 -2 2 -4 -38 -4 -90 -1 -67 -5 -100 -15 -113 -15 -20 -15 -20 -16 0 -1
10 -1 22 -1 25 1 3 -6 6 -14 6 -17 0 -18 -9 -3 -24 8 -8 7 -13 -1 -18 -7 -4
-18 2 -27 15 -8 12 -21 19 -29 16 -7 -3 -18 4 -24 14 -6 11 -18 20 -27 20 -14
0 -14 2 3 16 10 8 13 12 5 8 -10 -5 -13 -3 -8 9 7 19 -18 44 -28 27 -3 -5 -1
-10 4 -10 6 0 11 -5 11 -11 0 -8 -4 -9 -13 0 -8 6 -17 7 -22 3 -4 -4 -3 3 4
15 14 27 14 33 0 33 -5 0 -8 -4 -5 -9 8 -13 -16 -29 -42 -27 -12 0 -27 8 -32
16 -8 12 -10 13 -10 1 0 -8 8 -23 17 -34 13 -15 14 -18 3 -12 -34 21 -69 13
-50 -10 9 -11 7 -12 -11 -8 -19 5 -21 3 -17 -24 2 -16 -1 -35 -6 -41 -24 -25
-36 -42 -36 -49 0 -5 -9 -14 -20 -21 -11 -7 -20 -19 -20 -28 0 -8 -4 -12 -10
-9 -5 3 -10 0 -10 -7 -1 -30 -19 -39 -91 -45 -53 -4 -79 -11 -91 -24 -20 -20
-24 -59 -6 -59 8 0 10 -57 6 -218 -3 -119 -2 -226 2 -237 4 -11 3 -29 -3 -40
-6 -11 -10 -24 -9 -29 2 -5 -4 -6 -13 -3 -10 4 -15 1 -15 -11 0 -15 -2 -15
-10 -2 -9 13 -10 13 -11 0 -1 -8 -1 -18 0 -22 0 -4 -7 -4 -16 -1 -10 4 -14 2
-9 -5 3 -6 2 -13 -4 -17 -6 -4 -8 -10 -5 -15 3 -5 2 -11 -3 -14 -4 -2 -9 -22
-10 -42 -2 -21 -5 -40 -7 -43 -3 -2 -5 83 -5 189 0 106 -2 191 -4 189 -2 -2
-6 -137 -9 -299 -4 -162 -7 -296 -7 -297 0 -2 -33 -3 -74 -3 -64 0 -74 -2 -79
-19 -8 -31 13 -41 80 -41 43 0 63 -4 63 -12 6 -143 21 -415 26 -450 8 -56 -8
-64 -46 -23 -26 28 -77 34 -86 10 -4 -8 -18 -15 -33 -15 -47 0 -58 -18 -64
-104 -4 -52 -11 -84 -21 -95 -15 -14 -16 -11 -16 29 0 58 9 92 23 83 7 -4 8 8
2 38 -4 24 -11 65 -15 92 -3 26 -11 52 -16 57 -5 5 -71 6 -157 3 -178 -7 -170
-1 -192 -154 -14 -102 -20 -259 -10 -259 3 0 65 9 138 19 212 32 350 49 547
71 102 11 192 23 201 25 11 4 14 14 11 35 -2 17 -1 50 2 74 l7 44 57 -2 c31
-1 107 -10 167 -20 139 -23 332 -16 526 18 76 14 176 25 232 25 77 1 106 5
137 21 42 22 81 25 109 11 9 -5 64 -15 121 -21 110 -11 340 -50 450 -76 51
-12 112 -14 285 -10 121 2 230 7 243 10 20 4 22 1 22 -34 0 -32 -4 -39 -22
-42 -28 -4 239 -48 340 -55 57 -5 76 -3 83 8 5 9 9 10 9 2 0 -14 46 -29 114
-39 l49 -7 -6 39 c-4 22 -7 60 -7 86 0 36 -6 53 -25 74 -14 15 -25 27 -26 28
0 1 -4 136 -9 300 l-9 299 29 36 c134 168 209 665 215 1431 1 209 -2 383 -7
393 -5 10 -5 24 2 36 6 13 7 22 0 26 -10 6 -8 54 4 73 3 6 2 13 -3 16 -5 4 -8
26 -6 51 1 25 -1 47 -5 50 -10 6 -7 45 4 64 5 7 5 16 0 20 -5 3 -9 47 -9 96 1
50 -4 98 -10 108 -7 13 -6 20 4 27 12 7 13 11 1 25 -10 12 -10 19 -2 27 9 9 7
17 -6 32 -9 11 -12 16 -6 13 15 -9 27 20 13 29 -6 3 -8 12 -5 20 3 7 1 16 -5
20 -6 4 -6 11 2 20 9 11 9 17 -1 29 -8 10 -9 15 -2 15 13 0 4 31 -12 42 -6 4
-5 12 3 22 10 12 11 19 2 30 -9 11 -9 15 1 20 10 5 10 7 1 12 -9 4 -9 13 -2
31 5 15 6 29 1 32 -5 3 -8 45 -7 94 0 48 -2 87 -6 87 -3 0 -5 20 -4 45 2 25
-2 45 -7 45 -6 0 -5 7 2 15 7 8 8 15 3 15 -6 0 -8 12 -5 26 3 16 -1 30 -9 35
-10 6 -10 9 -1 9 6 0 12 7 12 15 0 8 -5 15 -11 15 -8 0 -8 4 0 14 9 10 9 20 2
33 -5 11 -8 36 -7 56 2 21 0 39 -4 42 -4 2 -6 35 -5 72 1 37 -1 73 -4 78 -3 6
-6 24 -7 40 -1 17 -4 50 -8 75 -3 25 -8 71 -11 103 -2 32 -9 65 -16 73 -6 8
-7 14 -2 14 8 0 10 39 3 48 -2 1 -4 7 -5 12 -1 6 -3 11 -4 13 -1 1 -4 35 -6
75 -2 40 -9 79 -15 87 -10 11 -10 15 -1 15 7 0 10 4 7 8 -5 8 -19 107 -32 227
-3 28 -8 54 -11 59 -3 4 -7 27 -10 50 -2 22 -6 52 -8 66 -2 14 -8 52 -13 85
-5 33 -14 85 -21 115 -6 30 -18 93 -26 140 -20 110 -40 202 -82 380 -19 80
-40 172 -48 205 -7 33 -25 105 -39 160 -45 179 -82 341 -122 545 -68 345 -174
597 -312 738 -45 46 -85 71 -66 40 4 -7 3 -8 -5 -4 -6 4 -9 12 -5 17 6 10 -55
39 -78 38 -7 0 4 -7 24 -16 21 -8 35 -19 32 -24 -3 -5 -14 -4 -26 2 -18 10
-20 9 -14 -6 5 -14 -2 -12 -39 9 -25 14 -52 23 -59 20 -8 -3 -17 -1 -21 5 -8
14 -10 13 -65 -5z m56 -14 c42 -16 23 -21 -21 -5 -22 8 -32 14 -23 15 9 0 29
-5 44 -10z m70 -12 l19 -21 -27 18 c-29 18 -34 25 -20 25 5 0 17 -10 28 -22z
m-106 -48 c18 -12 2 -12 -25 0 -13 6 -15 9 -5 9 8 0 22 -4 30 -9z m-6 -51 c6
-5 -4 -5 -24 1 -18 5 -35 12 -39 16 -9 10 53 -6 63 -17z m-24 -39 c18 -12 2
-12 -25 0 -13 6 -15 9 -5 9 8 0 22 -4 30 -9z m-6 -43 c16 -12 14 -13 -18 -9
-20 2 -39 8 -42 13 -8 14 40 11 60 -4z m-25 -51 c21 -12 19 -13 -33 -15 -46
-1 -55 1 -50 14 7 18 50 19 83 1z m-9 -51 c24 -14 22 -14 -37 -15 -67 0 -77 5
-40 20 31 12 48 11 77 -5z m-33 -31 c-3 -3 -12 -4 -19 -1 -8 3 -5 6 6 6 11 1
17 -2 13 -5z m11 -33 c14 -8 -28 -21 -70 -21 -17 0 -18 3 -8 15 14 16 57 20
78 6z m-10 -60 c18 -11 -7 -21 -55 -21 -30 0 -34 2 -23 15 14 16 57 20 78 6z
m6 -71 c11 -11 -58 -24 -81 -15 -17 6 -17 7 2 21 20 15 61 12 79 -6z m-29 -60
c4 -6 11 -8 16 -5 5 4 9 2 9 -3 0 -14 -48 -24 -73 -16 -20 6 -20 7 -2 20 22
17 41 18 50 4z m-10 -85 c-30 -13 -55 -10 -55 6 0 5 19 9 43 8 l42 -1 -30 -13z
m5 -65 c0 -5 -7 -10 -15 -10 -8 0 -18 0 -22 -1 -4 0 -9 4 -11 10 -2 6 8 11 22
11 14 0 26 -4 26 -10z m0 -70 c0 -5 -12 -10 -26 -10 -14 0 -23 4 -19 10 3 6
15 10 26 10 10 0 19 -4 19 -10z m-15 -70 c-3 -5 -13 -10 -21 -10 -8 0 -12 5
-9 10 3 6 13 10 21 10 8 0 12 -4 9 -10z m-12 -67 c-7 -2 -19 -2 -25 0 -7 3 -2
5 12 5 14 0 19 -2 13 -5z m4 -69 c-3 -3 -12 -4 -19 -1 -8 3 -5 6 6 6 11 1 17
-2 13 -5z m0 -70 c-3 -3 -12 -4 -19 -1 -8 3 -5 6 6 6 11 1 17 -2 13 -5z m-4
-81 c-7 -2 -19 -2 -25 0 -7 3 -2 5 12 5 14 0 19 -2 13 -5z m104 1 c-3 -3 -12
-4 -19 -1 -8 3 -5 6 6 6 11 1 17 -2 13 -5z m570 0 c-3 -3 -12 -4 -19 -1 -8 3
-5 6 6 6 11 1 17 -2 13 -5z m6 -41 c-7 -2 -21 -2 -30 0 -10 3 -4 5 12 5 17 0
24 -2 18 -5z m-680 -40 c-7 -2 -19 -2 -25 0 -7 3 -2 5 12 5 14 0 19 -2 13 -5z
m0 -140 c-7 -2 -21 -2 -30 0 -10 3 -4 5 12 5 17 0 24 -2 18 -5z m724 -29 c-3
-3 -12 -4 -19 -1 -8 3 -5 6 6 6 11 1 17 -2 13 -5z m-37 -9 c0 -2 -10 -9 -22
-15 -22 -11 -22 -10 -4 4 21 17 26 19 26 11z m0 -45 c-8 -5 -19 -10 -25 -10
-5 0 -3 5 5 10 8 5 20 10 25 10 6 0 3 -5 -5 -10z m15 -30 c-27 -12 -43 -12
-25 0 8 5 22 9 30 9 10 0 8 -3 -5 -9z m-702 -37 c-7 -2 -19 -2 -25 0 -7 3 -2
5 12 5 14 0 19 -2 13 -5z m734 -29 c-3 -3 -12 -4 -19 -1 -8 3 -5 6 6 6 11 1
17 -2 13 -5z m-2 -39 c-62 -17 -69 -17 -30 0 17 8 41 14 55 14 15 0 5 -6 -25
-14z m19 -34 c-17 -4 -37 -11 -45 -15 -8 -4 -5 0 5 8 11 9 31 16 45 15 24 -1
24 -2 -5 -8z m7 -36 c-18 -8 -36 -15 -40 -15 -13 1 45 29 59 29 8 0 0 -6 -19
-14z m59 -25 c0 -5 -9 -10 -20 -10 -11 0 -37 -7 -57 -15 -36 -15 -36 -15 -19
4 16 17 33 23 84 30 6 0 12 -3 12 -9z m-5 -50 c-16 -4 -39 -8 -50 -8 l-20 -1
20 9 c11 5 34 8 50 8 l30 0 -30 -8z m2 -36 c-3 -3 -12 -4 -19 -1 -8 3 -5 6 6
6 11 1 17 -2 13 -5z m47 -53 c6 -2 -16 -11 -49 -18 -32 -7 -60 -11 -62 -9 -2
2 4 11 13 20 16 16 74 20 98 7z m4 -57 c37 -10 25 -19 -44 -32 -90 -17 -104
-4 -27 23 45 17 42 16 71 9z m22 -74 l25 -7 -30 -7 c-16 -4 -45 -12 -63 -18
-44 -13 -63 3 -31 26 25 17 57 19 99 6z m25 -79 c3 -6 -11 -13 -32 -16 -21 -4
-53 -11 -72 -16 -41 -10 -54 -4 -20 10 13 5 20 10 16 10 -5 1 -5 6 -2 11 8 13
102 13 110 1z m5 -68 c19 -5 8 -10 -49 -19 -81 -14 -108 -9 -70 12 26 14 80
18 119 7z m-60 -43 c-34 -11 -60 -11 -35 0 11 5 29 8 40 8 16 0 15 -2 -5 -8z
m50 -40 c-12 -8 -10 -10 10 -11 24 -1 23 -1 -5 -10 -16 -5 -48 -10 -71 -12
-22 -2 -46 -7 -52 -11 -8 -5 -10 -1 -6 9 4 9 13 14 21 11 8 -3 11 -2 8 3 -9
15 26 30 70 31 29 0 36 -3 25 -10z m40 -79 c0 -5 -21 -14 -47 -20 -27 -7 -56
-14 -65 -17 -20 -6 -18 23 3 37 18 11 109 12 109 0z m12 -85 c5 -7 -11 -15
-46 -22 -29 -6 -60 -13 -68 -17 -17 -6 -19 8 -5 30 18 29 102 36 119 9z m18
-79 l31 -14 -72 -12 c-81 -13 -110 -3 -63 23 36 19 63 20 104 3z m-13 -83 c5
-16 -73 -37 -94 -26 -14 8 -12 12 13 26 32 17 75 17 81 0z m3 -73 c0 -5 7 -11
16 -13 9 -2 -11 -10 -44 -19 -51 -13 -59 -13 -58 -1 4 27 86 58 86 33z m33
-95 c4 -10 -7 -15 -39 -20 -24 -3 -56 -8 -71 -11 -23 -4 -25 -4 -8 4 11 5 16
10 10 11 -5 0 -1 7 9 15 25 19 92 20 99 1z m-336 -78 c-3 -8 -6 -5 -6 6 -1 11
2 17 5 13 3 -3 4 -12 1 -19z m353 -2 c0 -20 -117 -38 -124 -19 -7 18 28 32 82
32 29 1 42 -3 42 -13z m29 -75 c9 -6 -2 -12 -38 -20 -88 -19 -136 -10 -89 16
26 14 106 17 127 4z m-362 -23 c-3 -8 -6 -5 -6 6 -1 11 2 17 5 13 3 -3 4 -12
1 -19z m10 -60 c-3 -8 -6 -5 -6 6 -1 11 2 17 5 13 3 -3 4 -12 1 -19z m333 2
c25 -8 25 -8 -5 -10 -26 -1 -27 -3 -10 -9 15 -6 8 -10 -33 -16 -29 -4 -56 -4
-59 -1 -4 3 0 6 8 7 8 1 3 4 -11 9 -24 7 -24 7 10 18 42 12 66 13 100 2z m-15
-100 l-30 -8 29 -1 c43 -2 29 -7 -37 -15 -39 -4 -56 -3 -52 4 3 5 0 10 -7 11
-30 2 41 17 82 17 40 0 42 -1 15 -8z m0 -80 c-4 -6 6 -10 22 -11 25 0 26 -1 8
-9 -27 -12 -97 -12 -114 -1 -11 7 -6 12 20 19 46 14 72 14 64 2z m19 -91 c-5
-8 3 -10 24 -7 17 2 29 1 27 -3 -7 -11 -113 -21 -137 -13 -22 7 -22 8 7 20 38
17 89 18 79 3z m70 -90 c12 0 -10 -7 -49 -15 -70 -14 -95 -13 -95 5 0 14 30
20 79 15 24 -2 53 -4 65 -5z m-26 -88 c10 -6 4 -10 -18 -15 -47 -9 -90 -7 -90
3 0 18 84 27 108 12z m-238 -53 c0 -19 -2 -20 -10 -8 -13 19 -13 30 0 30 6 0
10 -10 10 -22z m-5 -48 c3 -5 -1 -10 -10 -10 -9 0 -13 5 -10 10 3 6 8 10 10
10 2 0 7 -4 10 -10z m260 0 c-46 -12 -123 -12 -105 0 8 5 42 9 75 9 48 -1 54
-3 30 -9z m-249 -62 c4 -7 3 -8 -4 -4 -7 4 -12 2 -12 -4 0 -6 -4 -8 -10 -5 -5
3 -10 10 -10 16 0 13 27 11 36 -3z m236 -25 c-18 -2 -30 -9 -27 -14 4 -5 -10
-9 -29 -9 -27 0 -34 3 -30 15 5 11 21 15 63 13 35 -1 44 -3 23 -5z m-236 -55
c-4 -27 -18 -40 -30 -28 -8 8 -6 15 8 26 24 17 25 17 22 2z m239 -38 c-7 -11
-73 -25 -81 -17 -14 13 10 27 47 27 23 0 38 -4 34 -10z m-238 -54 c-3 -7 -1
-18 5 -24 8 -8 5 -9 -11 -5 -31 8 -26 35 8 42 2 1 1 -5 -2 -13z m238 -47 c-22
-4 -51 -8 -65 -7 l-25 0 25 8 c14 4 43 8 65 8 l40 0 -40 -9z m-215 -39 c0 -5
-9 -14 -20 -20 -22 -12 -27 -1 -8 18 14 14 28 16 28 2z m207 -36 c-3 -3 -12
-4 -19 -1 -8 3 -5 6 6 6 11 1 17 -2 13 -5z m61 -11 c-10 -2 -26 -2 -35 0 -10
3 -2 5 17 5 19 0 27 -2 18 -5z m-80 -10 c-10 -2 -28 -2 -40 0 -13 2 -5 4 17 4
22 1 32 -1 23 -4z m-184 -55 c6 -4 -1 -7 -16 -6 -19 2 -27 7 -25 18 3 23 22
32 26 12 2 -9 8 -20 15 -24z m-31 -59 c-8 -29 -13 -23 -13 14 0 22 3 28 9 18
5 -7 6 -22 4 -32z m220 14 c-7 -2 -19 -2 -25 0 -7 3 -2 5 12 5 14 0 19 -2 13
-5z m-189 -64 c-8 -13 -21 -11 -27 5 -4 10 0 12 14 9 10 -3 16 -9 13 -14z
m214 -16 c-10 -2 -28 -2 -40 0 -13 2 -5 4 17 4 22 1 32 -1 23 -4z m-212 -60
c-7 -7 -36 22 -36 36 0 6 9 2 21 -10 11 -11 18 -23 15 -26z m234 -13 c0 -5
-12 -10 -26 -10 -14 0 -23 4 -19 10 3 6 15 10 26 10 10 0 19 -4 19 -10z m15
-90 c16 -7 11 -9 -20 -9 -29 -1 -36 2 -25 9 17 11 19 11 45 0z m-238 -63 c-5
-15 -29 -16 -34 -2 -2 6 6 11 18 12 12 1 19 -3 16 -10z m246 -24 c-13 -2 -35
-2 -50 0 -16 2 -5 4 22 4 28 0 40 -2 28 -4z m-239 -27 c-7 -18 -29 -22 -39 -6
-3 6 3 10 14 10 12 0 21 5 21 12 0 6 2 9 5 6 3 -3 3 -13 -1 -22z m-7 -52 c-3
-3 -12 -4 -19 -1 -8 3 -5 6 6 6 11 1 17 -2 13 -5z m246 -11 c-7 -2 -21 -2 -30
0 -10 3 -4 5 12 5 17 0 24 -2 18 -5z m-238 -42 c-3 -6 -12 -8 -18 -4 -9 5 -8
2 0 -8 10 -13 10 -16 -2 -16 -21 0 -19 35 3 39 21 5 26 2 17 -11z m228 -38
c-7 -2 -21 -2 -30 0 -10 3 -4 5 12 5 17 0 24 -2 18 -5z m-213 -12 c0 -6 -4
-13 -10 -16 -5 -3 -10 1 -10 9 0 9 5 16 10 16 6 0 10 -4 10 -9z m-17 -76 c-3
-9 -8 -14 -10 -11 -3 3 -2 9 2 15 9 16 15 13 8 -4z m220 -2 c-7 -2 -19 -2 -25
0 -7 3 -2 5 12 5 14 0 19 -2 13 -5z m-221 -42 c7 10 8 3 4 -24 -2 -20 -2 -35
2 -33 4 3 8 -4 8 -14 0 -10 -5 -16 -10 -13 -5 4 -7 -3 -4 -15 4 -15 2 -20 -5
-15 -8 4 -7 1 1 -9 7 -8 9 -24 5 -33 -5 -14 -3 -16 8 -10 11 6 11 5 2 -5 -8
-9 -8 -21 3 -47 11 -24 11 -33 3 -27 -9 5 -10 1 -4 -17 4 -13 7 -37 6 -53 0
-16 5 -36 12 -45 10 -12 9 -14 -5 -8 -14 5 -18 1 -18 -14 0 -13 4 -18 12 -13
7 5 8 3 2 -7 -12 -19 -6 -50 14 -74 15 -18 15 -18 1 -7 -14 10 -18 10 -22 -2
-4 -9 -2 -18 4 -22 5 -3 7 -13 5 -22 -3 -10 -2 -23 3 -31 6 -9 4 -19 -5 -28
-12 -13 -11 -19 7 -46 16 -25 17 -27 2 -11 l-19 21 -1 -38 c-1 -22 2 -39 7
-39 5 0 8 -21 6 -47 -3 -27 -5 -59 -5 -73 -1 -19 -4 -21 -10 -11 -5 8 -10 84
-11 169 0 86 -5 257 -10 381 -10 238 -11 318 -3 287 4 -15 7 -16 15 -5z m246
-48 c-10 -2 -28 -2 -40 0 -13 2 -5 4 17 4 22 1 32 -1 23 -4z m-21 -89 c-3 -3
-12 -4 -19 -1 -8 3 -5 6 6 6 11 1 17 -2 13 -5z m-1537 -595 c62 -34 66 -54 9
-43 -69 14 -218 8 -268 -10 -61 -22 -80 -21 -74 5 20 74 231 105 333 48z m380
-149 c-19 -13 -30 -13 -30 0 0 6 10 10 23 10 18 0 19 -2 7 -10z m960 -11 c0
-11 -4 -17 -10 -14 -5 3 -10 13 -10 21 0 8 5 14 10 14 6 0 10 -9 10 -21z
m-940 -23 c0 -3 -4 -8 -10 -11 -5 -3 -10 -1 -10 4 0 6 5 11 10 11 6 0 10 -2
10 -4z m345 -136 c-3 -5 -12 -10 -18 -10 -7 0 -6 4 3 10 19 12 23 12 15 0z
m-70 -19 c3 -5 1 -12 -4 -15 -5 -3 -11 1 -15 9 -6 16 9 21 19 6z m91 -27 c-4
-12 -2 -15 9 -10 8 3 15 1 15 -4 0 -6 -12 -10 -26 -10 -14 0 -23 4 -19 10 3 6
0 10 -7 10 -9 0 -9 3 2 10 22 14 33 12 26 -6z m-1824 -83 c7 11 8 9 6 -6 -2
-11 -12 -21 -22 -23 -13 -3 -16 0 -11 9 6 9 3 10 -8 6 -10 -4 -24 -10 -32 -13
-11 -4 -15 0 -15 15 0 12 5 21 10 21 6 0 10 -5 10 -11 0 -7 8 -6 23 4 20 13
22 13 26 -1 2 -12 5 -13 13 -1z m1158 -68 c56 -6 5 -9 -210 -13 -322 -6 -384
-3 -368 14 12 13 450 12 578 -1z m-155 -198 c-38 -16 -140 -30 -132 -18 3 5
27 10 52 12 25 1 56 6 68 11 35 14 45 10 12 -5z m-152 -12 c-7 -2 -21 -2 -30
0 -10 3 -4 5 12 5 17 0 24 -2 18 -5z m-935 -468 c-3 -3 -18 -8 -34 -11 -22 -3
-25 -2 -14 6 15 10 58 14 48 5z m1052 2 c-9 -10 -1043 -20 -1037 -10 3 4 238
10 524 12 285 1 516 1 513 -2z m423 -4 c-35 -2 -91 -2 -125 0 -35 2 -7 3 62 3
69 0 97 -1 63 -3z m100 0 c-7 -2 -19 -2 -25 0 -7 3 -2 5 12 5 14 0 19 -2 13
-5z m50 0 c-7 -2 -19 -2 -25 0 -7 3 -2 5 12 5 14 0 19 -2 13 -5z m337 -307
c41 -19 32 -48 -20 -64 -36 -10 -118 -12 -410 -6 -209 4 -634 1 -996 -6 -656
-13 -680 -12 -672 27 6 33 54 55 134 63 126 13 1934 0 1964 -14z m-1262 -122
c12 -2 22 -9 22 -15 0 -6 -5 -7 -12 -3 -6 4 -43 8 -82 9 -152 3 -177 5 -171
14 5 9 193 5 243 -5z m-998 -2 c0 -5 -14 -9 -32 -10 -23 -1 -28 2 -18 8 19 12
50 13 50 2z m1884 -1 c5 -7 -262 -32 -272 -25 -2 1 4 9 13 18 13 13 39 16 135
16 65 0 121 -4 124 -9z m-470 -10 c16 -3 31 -13 34 -21 4 -12 2 -13 -9 -2 -18
16 -240 17 -257 0 -7 -7 -12 -8 -12 -2 0 26 27 34 120 33 52 -1 108 -4 124 -8z
m-624 -45 c0 -3 -4 -8 -10 -11 -5 -3 -10 -1 -10 4 0 6 5 11 10 11 6 0 10 -2
10 -4z m-1003 -13 c-20 -2 -52 -2 -70 0 -17 2 0 4 38 4 39 0 53 -2 32 -4z
m1466 -20 c-7 -2 -19 -2 -25 0 -7 3 -2 5 12 5 14 0 19 -2 13 -5z m644 -45 c-3
-8 -6 -5 -6 6 -1 11 2 17 5 13 3 -3 4 -12 1 -19z m-969 3 c46 -1 81 -5 78 -9
-3 -5 -51 -7 -108 -5 -57 1 -113 3 -125 3 -13 0 -23 5 -23 11 0 6 17 9 48 5
26 -2 84 -5 130 -5z m-191 -133 c-3 -8 -6 -5 -6 6 -1 11 2 17 5 13 3 -3 4 -12
1 -19z m2030 -90 c-3 -7 -5 -2 -5 12 0 14 2 19 5 13 2 -7 2 -19 0 -25z m-2
-165 c-2 -82 -8 -161 -13 -178 l-9 -30 -8 40 c-5 23 -3 69 3 110 7 38 15 100
18 138 4 37 8 67 10 67 1 0 1 -66 -1 -147z m139 -58 c15 -45 15 -45 -10 -61
-19 -13 -27 -14 -39 -4 -16 13 -21 60 -6 60 5 0 11 14 15 31 7 39 20 31 40
-26z m-2807 -87 c-2 -24 -4 -5 -4 42 0 47 2 66 4 43 2 -24 2 -62 0 -85z m-554
-7 c3 -12 3 -39 0 -61 l-6 -40 -71 -1 c-100 -2 -178 1 -198 7 -12 4 -18 15
-18 37 0 74 -4 72 149 75 133 3 139 2 144 -17z"/>
<path d="M6335 9170 c-3 -6 1 -7 9 -4 18 7 21 14 7 14 -6 0 -13 -4 -16 -10z"/>
<path d="M4830 9212 c0 -104 47 -136 194 -136 97 -1 125 9 151 48 11 17 13 33
7 61 l-7 38 -145 -2 c-82 -1 -157 2 -173 8 -25 10 -27 9 -27 -17z"/>
<path d="M4780 8743 c-207 -7 -406 -34 -515 -70 -128 -41 -236 -156 -250 -265
l-6 -43 21 53 c28 68 114 160 182 195 68 34 183 63 326 82 211 28 809 13 1002
-26 165 -32 255 -73 325 -147 37 -39 50 -41 31 -4 -19 36 -82 95 -130 122 -99
54 -281 87 -566 100 -177 9 -253 9 -420 3z"/>
<path d="M4610 8684 c-414 -49 -533 -130 -581 -394 -10 -53 -14 -166 -14 -390
0 -355 7 -410 70 -537 58 -118 124 -157 320 -189 162 -27 954 -26 1125 0 182
28 275 74 326 163 79 133 99 278 91 636 -7 286 -18 370 -59 454 -67 137 -200
209 -453 243 -78 11 -756 22 -825 14z m800 -53 c219 -28 315 -65 402 -160 67
-72 83 -115 99 -266 16 -142 5 -674 -15 -735 -8 -25 -15 -38 -16 -30 0 9 -6 6
-15 -10 -8 -14 -12 -34 -10 -45 3 -11 2 -14 -1 -7 -4 8 -16 -1 -34 -26 -31
-43 -72 -76 -114 -92 -15 -5 -24 -14 -21 -20 4 -6 -1 -7 -11 -3 -11 4 -15 3
-11 -4 9 -15 -117 -36 -210 -36 -40 1 -71 -3 -68 -7 9 -15 -94 -20 -411 -20
-199 0 -333 4 -350 10 -15 6 -70 13 -123 16 -53 3 -107 8 -121 11 -23 5 -24 6
-5 14 13 5 5 6 -22 2 -81 -11 -197 67 -248 167 -57 113 -60 137 -60 510 0 298
2 354 18 415 51 199 173 282 477 321 123 15 730 12 870 -5z"/>
<path d="M4715 8599 c-158 -7 -329 -37 -400 -68 -92 -42 -164 -117 -149 -155
9 -24 20 -20 48 17 39 51 128 99 225 120 174 38 839 33 1076 -9 52 -9 120 -30
162 -49 47 -22 73 -29 73 -21 0 14 -41 54 -82 79 -108 67 -530 105 -953 86z"/>
<path d="M4903 8523 c43 -2 110 -2 150 0 40 1 5 3 -78 3 -82 0 -115 -2 -72 -3z"/>
<path d="M5218 8513 c12 -2 32 -2 45 0 12 2 2 4 -23 4 -25 0 -35 -2 -22 -4z"/>
<path d="M4850 8309 c-100 -27 -163 -63 -230 -130 -59 -58 -97 -136 -112 -229
-5 -36 -6 -30 -4 25 3 44 1 61 -4 45 -4 -14 -8 -61 -9 -105 -1 -85 20 -147 72
-218 14 -17 28 -43 32 -55 4 -13 16 -44 26 -68 11 -24 20 -47 20 -51 0 -10 90
-56 176 -89 53 -20 92 -28 173 -31 94 -5 113 -3 181 20 136 46 279 159 337
267 17 32 18 41 7 50 -7 6 -15 42 -18 83 -14 179 -45 264 -128 352 -28 30 -54
54 -58 53 -19 -2 -31 3 -26 12 8 13 -107 68 -155 75 -27 3 -22 0 18 -13 79
-27 176 -107 231 -192 34 -53 36 -59 35 -140 0 -72 -5 -93 -28 -139 -49 -95
-147 -173 -256 -205 -100 -29 -328 6 -408 63 -12 9 -43 44 -68 79 -25 35 -48
61 -51 58 -3 -3 0 -13 8 -23 10 -11 10 -14 1 -9 -26 16 -55 92 -60 159 -6 88
15 145 81 214 89 94 199 141 357 152 l105 8 -85 1 c-56 1 -111 -6 -160 -19z
m425 -67 c-3 -3 -11 0 -18 7 -9 10 -8 11 6 5 10 -3 15 -9 12 -12z m60 -42 c10
-11 16 -20 13 -20 -3 0 -13 9 -23 20 -10 11 -16 20 -13 20 3 0 13 -9 23 -20z
m-337 -597 c-10 -2 -26 -2 -35 0 -10 3 -2 5 17 5 19 0 27 -2 18 -5z"/>
<path d="M4842 8281 c-80 -30 -132 -64 -186 -120 -55 -59 -96 -145 -96 -200 0
-39 28 -136 37 -127 3 3 -2 23 -11 46 -9 22 -15 55 -15 73 1 26 3 24 9 -15 11
-64 54 -140 110 -192 136 -127 334 -150 511 -61 131 67 212 222 179 344 l-12
44 -18 -40 c-28 -62 -43 -67 -225 -69 -159 -1 -311 -24 -460 -69 -41 -12 -46
-12 -55 5 -38 71 -8 183 72 263 95 95 253 137 400 106 60 -13 139 -43 183 -72
27 -17 27 -16 -5 12 -19 18 -57 44 -85 58 -44 24 -63 27 -165 30 -95 3 -124 0
-168 -16z"/>
<path d="M6171 8575 c1 -19 18 -51 18 -35 0 8 -4 22 -9 30 -5 8 -9 11 -9 5z"/>
<path d="M3996 8328 c-4 -18 -9 -73 -11 -123 -4 -87 -4 -86 9 30 14 119 15
156 2 93z"/>
<path d="M3606 8157 c-20 -14 -34 -114 -35 -243 -1 -64 5 -74 50 -74 16 0 19
-7 19 -40 0 -27 4 -40 14 -40 7 0 19 -7 26 -15 23 -27 36 -16 65 58 23 59 30
98 38 210 5 76 8 140 5 142 -8 8 -51 8 -102 0 -36 -6 -47 -5 -42 4 10 15 -16
14 -38 -2z"/>
<path d="M5974 8030 c0 -80 2 -112 3 -72 2 39 2 105 0 145 -1 39 -3 7 -3 -73z"/>
<path d="M3968 7981 c-5 -68 -7 -183 -7 -255 1 -117 2 -125 10 -71 5 33 8 148
7 255 l-3 195 -7 -124z"/>
<path d="M3986 7605 c3 -33 14 -93 25 -133 37 -138 95 -225 180 -268 52 -26
158 -54 199 -53 14 0 -6 7 -45 15 -137 30 -234 93 -280 185 -24 46 -53 149
-73 259 l-11 55 5 -60z"/>
<path d="M5941 7494 c-25 -137 -111 -254 -216 -293 -85 -32 -210 -50 -420 -61
-225 -13 -908 -6 -981 9 -93 18 -179 59 -228 108 -44 45 -62 49 -31 9 8 -10
12 -22 10 -27 -8 -12 97 -95 145 -113 123 -48 457 -72 895 -62 302 6 512 25
602 53 110 34 217 176 227 299 3 27 8 70 12 97 10 71 -1 57 -15 -19z m-221
-319 c-14 -7 -43 -16 -65 -19 -36 -6 -34 -4 15 13 66 23 84 25 50 6z m-127
-32 c-7 -2 -21 -2 -30 0 -10 3 -4 5 12 5 17 0 24 -2 18 -5z m-65 -10 c-10 -2
-28 -2 -40 0 -13 2 -5 4 17 4 22 1 32 -1 23 -4z"/>
<path d="M4468 7143 c7 -3 16 -2 19 1 4 3 -2 6 -13 5 -11 0 -14 -3 -6 -6z"/>
<path d="M4325 6750 c-268 -5 -315 -11 -315 -42 0 -7 5 -6 15 2 11 9 230 12
944 11 511 -1 937 -4 946 -7 15 -6 16 -16 9 -83 -4 -42 -8 -119 -8 -173 -1
-53 -4 -99 -7 -102 -4 -4 -20 1 -36 10 -28 17 -90 13 -79 -4 6 -10 -20 -32
-29 -24 -4 4 -5 -5 -4 -19 8 -62 52 -58 -791 -59 -422 0 -775 3 -784 6 -9 3
-16 12 -16 20 0 8 -6 14 -12 15 -7 0 -32 2 -55 5 -24 3 -43 1 -43 -4 0 -12
-34 -11 -43 2 -4 6 -6 -4 -5 -23 2 -23 11 -40 28 -52 54 -41 111 -43 955 -44
887 0 882 0 930 57 25 29 25 31 25 232 0 249 -3 261 -72 276 -52 11 -1002 11
-1553 0z"/>
<path d="M4920 6669 c-360 -5 -670 -11 -687 -14 -30 -5 -33 -9 -33 -40 0 -19
5 -37 11 -41 6 -3 345 -6 753 -5 633 2 744 4 764 17 24 16 29 46 10 62 -11 8
-151 35 -160 30 -2 -1 -298 -5 -658 -9z"/>
<path d="M5822 6655 c12 -28 30 -32 47 -11 9 10 8 16 -4 26 -11 9 -15 9 -15 1
0 -9 -5 -9 -20 -1 -18 10 -19 9 -8 -15z"/>
<path d="M4075 6658 c-15 -36 26 -53 45 -19 6 12 6 22 1 25 -5 3 -12 -2 -16
-12 -7 -16 -8 -15 -15 3 -7 18 -9 18 -15 3z"/>
<path d="M4475 6519 c-132 -3 -250 -9 -262 -13 -26 -9 -32 -59 -10 -73 19 -12
1519 -3 1535 9 13 11 17 54 4 62 -4 2 -132 6 -285 7 -153 2 -280 7 -283 11 -8
13 -62 9 -67 -4 -4 -10 -6 -10 -6 0 -1 14 -84 14 -626 1z"/>
<path d="M4419 6380 c-208 -5 -229 -10 -229 -54 0 -12 5 -27 12 -34 18 -18
1521 -17 1535 1 6 6 13 24 15 40 4 21 1 27 -13 27 -21 0 -25 15 -6 24 12 6
-177 1 -365 -10 -60 -4 -108 -2 -108 2 0 10 -525 12 -841 4z"/>
<path d="M4478 5643 c7 -3 16 -2 19 1 4 3 -2 6 -13 5 -11 0 -14 -3 -6 -6z"/>
<path d="M4655 5530 c3 -5 8 -10 11 -10 2 0 4 5 4 10 0 6 -5 10 -11 10 -5 0
-7 -4 -4 -10z"/>
<path d="M3543 5425 c0 -33 2 -45 4 -27 2 18 2 45 0 60 -2 15 -4 0 -4 -33z"/>
<path d="M4168 5373 c6 -2 9 -10 6 -15 -4 -7 -2 -8 5 -4 13 9 5 26 -12 25 -9
0 -8 -2 1 -6z"/>
<path d="M5326 3562 c-3 -5 0 -26 6 -46 11 -36 1 -178 -19 -256 l-6 -25 30 28
c55 51 79 175 47 242 -18 39 -50 70 -58 57z"/>
<path d="M7255 3052 c4 -13 7 -69 7 -125 1 -76 -3 -110 -15 -132 -9 -17 -16
-24 -17 -17 0 6 -5 12 -11 12 -5 0 -8 -4 -5 -9 4 -5 -10 -7 -32 -3 -20 3 -89
7 -152 8 -63 2 -117 4 -120 5 -3 0 -20 0 -37 -1 -18 -1 -33 3 -33 9 0 6 -7 11
-16 11 -8 0 -12 -5 -9 -11 5 -7 -7 -8 -37 -5 -86 12 -148 15 -148 8 0 -4 -56
-7 -125 -7 -69 0 -125 -4 -125 -9 0 -5 -6 -4 -12 1 -7 5 -33 8 -58 7 -90 -4
-140 -4 -402 0 -173 3 -268 1 -268 -5 0 -6 -5 -7 -11 -3 -12 7 -261 7 -299 -1
-34 -7 -161 -8 -168 -1 -3 3 -12 0 -20 -7 -13 -9 -14 -9 -8 1 5 8 -1 12 -23
12 -16 0 -33 -4 -36 -10 -4 -6 -17 -4 -36 5 -16 9 -29 12 -29 8 0 -9 -60 -12
-240 -14 -73 -1 -118 -5 -122 -13 -4 -6 -8 -6 -8 -1 0 6 -50 8 -142 4 -79 -3
-148 -2 -155 3 -7 6 -19 6 -30 0 -10 -5 -33 -7 -50 -5 -18 3 -33 1 -33 -3 0
-5 -57 -9 -127 -10 -350 -3 -708 -16 -714 -25 -5 -8 -8 -8 -13 0 -4 6 -37 8
-94 5 -48 -3 -141 -7 -207 -9 -100 -3 -166 -6 -335 -17 -8 -1 -18 -5 -21 -11
-13 -19 -49 4 -50 31 -2 45 -18 -45 -18 -105 l-1 -53 80 0 c2000 -1 4383 -5
4470 -7 71 -3 109 -8 100 -13 -21 -13 -8 -21 52 -35 42 -9 -443 -13 -2382 -18
-1518 -3 -2449 -9 -2472 -15 -46 -12 -51 4 -6 17 27 7 29 9 10 10 -15 1 -35
-11 -53 -30 -48 -51 -59 -111 -59 -307 0 -154 3 -182 22 -234 18 -50 19 -61 7
-68 -11 -8 -11 -10 1 -14 12 -4 3569 -19 4955 -20 300 -1 359 11 263 53 -73
31 -77 41 -83 184 -4 121 -3 127 18 142 12 8 32 15 45 15 13 0 21 4 18 8 -8
13 245 75 286 71 30 -3 95 11 125 26 13 7 42 11 65 9 l41 -4 -23 22 c-22 21
-65 34 -54 16 3 -4 -4 -8 -15 -8 -12 0 -21 5 -21 10 0 6 -18 10 -41 10 -25 0
-38 4 -34 10 4 6 12 7 18 4 7 -4 8 -3 4 1 -8 9 -118 16 -320 20 l-118 3 -34
39 c-37 44 -101 79 -157 88 l-38 6 0 52 c-1 115 -45 433 -63 452 -6 6 -7 2 -2
-13z"/>
<path d="M2583 2513 c15 -2 37 -2 50 0 12 2 0 4 -28 4 -27 0 -38 -2 -22 -4z"/>
</g>
</svg>
