<?xml version="1.0" standalone="no"?>
<!DOCTYPE svg PUBLIC "-//W3C//DTD SVG 20010904//EN"
 "http://www.w3.org/TR/2001/REC-SVG-20010904/DTD/svg10.dtd">
<svg version="1.0" xmlns="http://www.w3.org/2000/svg"
 width="4562.000000pt" height="5397.000000pt" viewBox="0 0 4562.000000 5397.000000"
 preserveAspectRatio="xMidYMid meet">

<g transform="translate(0.000000,5397.000000) scale(0.100000,-0.100000)"
fill="#000000" stroke="none">
<path d="M2605 52598 c-14 -13 -349 -572 -745 -1243 l-720 -1220 3 -2705 3
-2705 21 -90 c70 -300 193 -526 398 -730 208 -209 433 -330 735 -397 l105 -23
20400 0 c19904 0 20402 0 20500 19 520 97 946 465 1109 958 77 232 70 -64 73
2959 l3 2706 -465 1224 c-364 960 -470 1229 -490 1247 l-26 22 -20439 0
-20439 0 -26 -22z m40815 -228 c10 -25 32 -81 49 -125 16 -44 48 -127 70 -185
22 -58 42 -111 43 -119 3 -16 -95 -35 -597 -121 -1759 -298 -3760 -502 -6265
-640 -1202 -66 -3137 -147 -4805 -200 -242 -8 -3835 -10 -12440 -8 l-12100 3
-265 27 c-687 71 -1086 122 -1516 193 -1417 234 -2378 583 -2862 1040 l-75 71
34 57 34 57 20338 -2 20338 -3 19 -45z m-1688 -1858 c187 -43 360 -116 503
-210 167 -111 331 -307 395 -473 63 -165 61 -70 58 -2099 l-3 -1845 -23 -73
c-54 -175 -134 -303 -272 -436 -181 -174 -403 -285 -685 -343 -87 -17 -758
-18 -19435 -18 l-19345 0 -102 23 c-481 106 -834 405 -936 792 l-22 85 0 1860
0 1860 23 85 c73 276 274 511 564 661 150 77 289 118 518 152 14 3 8719 4
19345 3 l19320 -1 97 -23z"/>
<path d="M5145 49870 c-3 -5 -13 -7 -23 -4 -13 5 -14 4 -4 -4 8 -5 13 -12 13
-16 -1 -3 2 -6 5 -5 4 0 11 -5 15 -13 6 -9 9 -9 9 -1 0 6 -5 15 -10 18 -8 5
-7 11 1 21 6 8 9 14 6 14 -3 0 -8 -4 -12 -10z"/>
<path d="M5020 49861 c-8 -6 -19 -7 -25 -3 -5 3 -4 -1 2 -10 17 -20 4 -31 -16
-15 -14 10 -14 10 -4 -4 14 -17 57 -19 70 -4 4 6 4 7 -1 3 -5 -4 -15 -3 -23 3
-11 10 -10 14 4 25 20 15 15 18 -7 5z"/>
<path d="M5065 49850 c10 -11 20 -20 23 -20 3 0 -3 9 -13 20 -10 11 -20 20
-23 20 -3 0 3 -9 13 -20z"/>
<path d="M5464 49862 c3 -6 -2 -13 -11 -15 -16 -4 -16 -5 -1 -6 21 -1 32 15
17 25 -7 4 -9 3 -5 -4z"/>
<path d="M5372 49847 c10 -8 14 -18 10 -22 -4 -4 4 -2 18 5 33 17 33 17 15 24
-9 3 -13 2 -10 -4 8 -13 -1 -13 -28 1 -20 9 -20 9 -5 -4z"/>
<path d="M5498 49853 c-7 -14 -3 -33 6 -33 12 -1 17 28 6 35 -5 3 -10 2 -12
-2z"/>
<path d="M4930 49827 c0 -10 8 -17 18 -17 9 0 13 4 7 8 -5 4 -13 11 -17 16 -5
5 -8 2 -8 -7z"/>
<path d="M5173 49820 c-1 -11 2 -20 7 -20 4 0 7 7 6 15 -3 23 -12 26 -13 5z"/>
<path d="M5623 49833 c9 -2 14 -9 11 -15 -4 -7 -2 -8 5 -4 15 10 4 26 -17 25
-15 -1 -15 -2 1 -6z"/>
<path d="M5665 49831 c-3 -5 -2 -12 3 -15 5 -3 9 1 9 9 0 17 -3 19 -12 6z"/>
<path d="M4820 49825 c0 -7 30 -13 34 -7 3 4 -4 9 -15 9 -10 1 -19 0 -19 -2z"/>
<path d="M5540 49820 c-9 -6 -10 -10 -3 -10 6 0 15 5 18 10 8 12 4 12 -15 0z"/>
<path d="M5360 49800 c0 -5 5 -10 11 -10 5 0 7 5 4 10 -3 6 -8 10 -11 10 -2 0
-4 -4 -4 -10z"/>
<path d="M4704 49785 c-4 -8 -11 -12 -17 -8 -6 3 -7 1 -3 -5 9 -15 33 -5 33
13 0 19 -6 19 -13 0z"/>
<path d="M4655 49780 c-4 -6 -13 -9 -20 -8 -8 2 -13 -1 -12 -7 1 -5 7 -8 12
-6 6 2 15 4 21 4 6 0 11 6 11 14 0 16 -4 17 -12 3z"/>
<path d="M5109 49783 c-1 -5 -1 -12 0 -17 1 -5 -4 -13 -11 -17 -9 -6 -6 -8 8
-7 21 2 30 28 10 28 -6 0 -4 5 4 10 10 6 11 10 3 10 -7 0 -14 -3 -14 -7z"/>
<path d="M5160 49780 c-9 -6 -10 -10 -3 -10 6 0 15 5 18 10 8 12 4 12 -15 0z"/>
<path d="M5845 49780 c-4 -6 -10 -8 -15 -5 -4 3 -13 -2 -20 -10 -7 -8 -16 -12
-21 -9 -5 3 -9 0 -9 -6 0 -7 6 -10 13 -7 6 2 21 -3 31 -12 11 -9 16 -11 12 -4
-5 9 2 11 24 8 26 -3 29 -1 20 14 -5 10 -6 22 -2 27 4 5 -2 1 -14 -9 -28 -23
-41 -22 -19 3 10 11 15 20 12 20 -3 0 -9 -5 -12 -10z m-18 -25 c0 -8 -4 -12
-9 -9 -5 3 -6 10 -3 15 9 13 12 11 12 -6z"/>
<path d="M5198 49763 c7 -3 16 -2 19 1 4 3 -2 6 -13 5 -11 0 -14 -3 -6 -6z"/>
<path d="M5420 49760 c0 -6 7 -10 15 -10 8 0 15 2 15 4 0 2 -7 6 -15 10 -8 3
-15 1 -15 -4z"/>
<path d="M5270 49750 c-8 -5 -10 -10 -5 -10 6 0 17 5 25 10 8 5 11 10 5 10 -5
0 -17 -5 -25 -10z"/>
<path d="M5930 49748 c0 -4 4 -8 9 -8 6 0 12 4 15 8 3 5 -1 9 -9 9 -8 0 -15
-4 -15 -9z"/>
<path d="M4703 49735 c0 -8 4 -12 9 -9 5 3 6 10 3 15 -9 13 -12 11 -12 -6z"/>
<path d="M4510 49715 c-7 -8 -16 -12 -21 -9 -5 3 -12 -2 -15 -10 -3 -9 -10
-16 -16 -16 -5 0 -6 5 -2 12 5 7 3 8 -5 4 -7 -5 -10 -11 -7 -14 3 -3 1 -10 -4
-17 -7 -8 -5 -12 5 -12 8 0 12 4 10 8 -8 13 24 19 50 9 18 -7 24 -6 22 3 -1 7
3 11 9 10 7 -1 10 6 7 17 -7 28 -18 33 -33 15z m7 -22 c-14 -14 -19 -15 -29
-4 -8 8 -8 11 -2 8 7 -4 17 0 24 8 7 9 15 13 18 10 3 -3 -2 -13 -11 -22z"/>
<path d="M4745 49721 c-11 -19 29 -30 50 -14 16 12 16 14 3 10 -10 -3 -20 -2
-23 3 -8 13 -22 13 -30 1z"/>
<path d="M5590 49725 c0 -7 30 -13 34 -7 3 4 -4 9 -15 9 -10 1 -19 0 -19 -2z"/>
<path d="M5652 49721 c-11 -7 -11 -9 0 -14 9 -3 15 1 15 9 0 8 -1 14 -1 14 -1
0 -7 -4 -14 -9z"/>
<path d="M5743 49723 c4 -3 2 -12 -5 -20 -6 -8 -7 -13 -2 -11 5 1 19 -3 32
-11 13 -7 28 -10 35 -7 7 2 4 5 -5 5 -10 1 -18 5 -18 10 0 6 8 8 18 6 10 -2
25 1 33 7 11 8 10 9 -3 4 -11 -3 -18 0 -18 7 0 7 -3 8 -8 2 -12 -16 -32 -16
-38 0 -4 8 -11 15 -17 15 -6 0 -7 -3 -4 -7z"/>
<path d="M6003 49714 c0 -7 4 -11 9 -8 11 7 10 -10 -2 -22 -7 -7 -6 -16 3 -29
11 -14 16 -15 22 -5 5 8 4 11 -3 6 -17 -10 -20 17 -4 42 8 12 13 22 11 23 -29
6 -36 5 -36 -7z"/>
<path d="M4850 49716 c0 -2 7 -7 16 -10 8 -3 12 -2 9 4 -6 10 -25 14 -25 6z"/>
<path d="M6055 49710 c3 -5 2 -10 -3 -10 -6 0 -13 -8 -16 -17 -6 -15 -5 -15
13 1 18 16 20 36 5 36 -3 0 -2 -4 1 -10z"/>
<path d="M4410 49690 c-11 -7 -11 -10 -2 -10 7 0 10 -5 7 -10 -4 -6 -10 -8
-15 -5 -5 3 -11 1 -14 -4 -7 -11 20 -9 31 2 6 7 14 37 10 37 -1 0 -9 -5 -17
-10z"/>
<path d="M4736 49687 c3 -10 9 -15 12 -12 3 3 0 11 -7 18 -10 9 -11 8 -5 -6z"/>
<path d="M6094 49689 c-3 -5 -2 -9 3 -8 4 1 16 -1 26 -6 28 -12 29 -1 1 12
-14 7 -26 7 -30 2z"/>
<path d="M4650 49672 c9 -19 30 -23 30 -5 0 4 -3 3 -7 0 -3 -4 -12 1 -20 11
-13 15 -13 15 -3 -6z"/>
<path d="M4359 49663 c-13 -16 -12 -17 4 -4 9 7 17 15 17 17 0 8 -8 3 -21 -13z"/>
<path d="M6060 49670 c-9 -6 -10 -10 -3 -10 6 0 15 5 18 10 8 12 4 12 -15 0z"/>
<path d="M4540 49654 c-11 -13 -10 -16 8 -21 13 -3 19 -10 15 -17 -4 -7 -1 -6
9 1 8 7 17 11 20 8 2 -3 5 1 5 9 0 10 -9 12 -31 9 -26 -4 -28 -3 -17 11 8 9
11 16 8 16 -2 0 -10 -7 -17 -16z"/>
<path d="M5140 49660 c-9 -6 -10 -10 -3 -10 6 0 15 5 18 10 8 12 4 12 -15 0z"/>
<path d="M5240 49660 c-9 -6 -10 -10 -3 -10 6 0 15 5 18 10 8 12 4 12 -15 0z"/>
<path d="M5377 49659 c7 -7 15 -10 18 -7 3 3 -2 9 -12 12 -14 6 -15 5 -6 -5z"/>
<path d="M6086 49662 c-3 -5 1 -9 9 -9 8 0 12 4 9 9 -3 4 -7 8 -9 8 -2 0 -6
-4 -9 -8z"/>
<path d="M6180 49656 c0 -5 8 -18 18 -29 15 -19 15 -20 0 -14 -9 3 -22 0 -28
-8 -10 -11 -7 -13 15 -9 19 3 24 1 19 -7 -4 -7 -3 -9 4 -6 5 4 9 13 8 20 -2
15 -36 65 -36 53z"/>
<path d="M4510 49641 c0 -6 4 -13 10 -16 6 -3 7 1 4 9 -7 18 -14 21 -14 7z"/>
<path d="M5535 49639 c-4 -6 -5 -12 -2 -15 2 -3 7 2 10 11 7 17 1 20 -8 4z"/>
<path d="M5976 49637 c3 -10 9 -15 12 -12 3 3 0 11 -7 18 -10 9 -11 8 -5 -6z"/>
<path d="M4890 49631 c0 -7 -6 -11 -15 -8 -8 4 -17 1 -21 -5 -5 -7 -2 -8 6 -3
10 6 12 4 6 -10 -5 -14 -4 -16 7 -6 11 9 17 8 26 -2 6 -8 7 -18 3 -22 -4 -5
-2 -5 5 -2 13 8 12 24 -5 52 -7 12 -12 14 -12 6z"/>
<path d="M5581 49618 c5 -10 12 -18 15 -18 3 0 3 4 0 9 -3 5 1 12 10 15 12 5
15 2 10 -10 -5 -14 -4 -15 8 -5 8 7 17 8 20 3 3 -5 17 -8 31 -7 14 2 30 -4 38
-13 6 -10 21 -18 32 -19 19 -1 19 -1 3 11 -10 7 -15 16 -11 20 4 4 0 4 -8 1
-9 -3 -21 1 -28 9 -10 12 -18 13 -32 6 -13 -7 -20 -6 -26 2 -4 7 -22 13 -40
13 -27 0 -30 -2 -22 -17z"/>
<path d="M4284 49612 c4 -3 14 -7 22 -8 9 -1 13 0 10 4 -4 3 -14 7 -22 8 -9 1
-13 0 -10 -4z"/>
<path d="M4503 49605 c0 -8 4 -12 9 -9 5 3 6 10 3 15 -9 13 -12 11 -12 -6z"/>
<path d="M4790 49600 c-7 -10 -9 -11 -10 -2 0 7 -5 10 -11 6 -8 -5 -8 -9 1
-14 16 -10 58 -1 63 14 7 17 -33 14 -43 -4z"/>
<path d="M6006 49607 c3 -10 9 -15 12 -12 3 3 0 11 -7 18 -10 9 -11 8 -5 -6z"/>
<path d="M6046 49604 c18 -15 18 -15 0 -10 -16 6 -17 4 -6 -9 10 -12 15 -13
21 -4 10 17 0 39 -19 39 -13 0 -12 -3 4 -16z"/>
<path d="M4234 49599 c-4 -7 -3 -9 4 -5 5 3 13 0 15 -6 4 -9 6 -10 6 -1 1 17
-16 25 -25 12z"/>
<path d="M6263 49586 c0 -15 22 -15 34 0 4 5 4 6 -1 2 -5 -4 -14 -3 -21 2 -8
7 -12 5 -12 -4z"/>
<path d="M4670 49580 c-8 -5 -10 -10 -5 -10 6 0 17 5 25 10 8 5 11 10 5 10 -5
0 -17 -5 -25 -10z"/>
<path d="M4934 49568 l-19 -23 23 19 c12 11 22 21 22 23 0 8 -8 2 -26 -19z"/>
<path d="M5527 49577 c-3 -8 4 -12 19 -12 13 1 25 3 26 6 2 2 1 3 -1 2 -2 -1
-12 2 -21 7 -13 7 -19 6 -23 -3z"/>
<path d="M5645 49579 c-4 -6 -5 -12 -2 -15 2 -3 7 2 10 11 7 17 1 20 -8 4z"/>
<path d="M4842 49571 c-11 -6 -10 -10 4 -15 9 -3 19 -4 22 -1 3 3 0 5 -7 5 -7
0 -9 5 -6 10 7 12 4 12 -13 1z"/>
<path d="M6170 49571 c0 -6 4 -13 10 -16 6 -3 7 1 4 9 -7 18 -14 21 -14 7z"/>
<path d="M6334 49568 c1 -7 6 -19 10 -27 7 -11 5 -13 -5 -9 -10 4 -15 -1 -15
-12 0 -10 3 -18 6 -18 3 1 17 -4 31 -11 19 -9 25 -19 22 -32 -3 -10 -1 -19 3
-19 5 0 10 11 10 25 1 16 -3 25 -13 25 -12 0 -13 3 -4 14 9 11 8 17 -8 28 -12
8 -19 17 -16 20 3 3 -1 11 -9 17 -11 10 -14 9 -12 -1z m41 -47 c7 -12 -12 -24
-25 -16 -11 7 -4 25 10 25 5 0 11 -4 15 -9z"/>
<path d="M4185 49544 c-17 -15 -21 -22 -10 -16 11 5 26 8 33 6 7 -1 8 0 2 3
-8 3 -7 9 1 19 17 21 8 16 -26 -12z"/>
<path d="M4340 49552 c-31 -34 -18 -61 17 -34 18 14 20 20 10 33 -11 15 -14
15 -27 1z m28 -16 c-2 -1 -11 -8 -21 -16 -16 -11 -18 -11 -15 1 4 18 19 29 31
22 4 -3 7 -6 5 -7z"/>
<path d="M4370 49564 c0 -1 8 -8 17 -15 14 -12 16 -12 8 0 -6 11 -4 13 8 8 9
-3 19 -3 21 2 3 4 -8 7 -25 7 -16 0 -29 -1 -29 -2z"/>
<path d="M5085 49551 c1 -8 7 -16 14 -17 7 -2 7 0 1 3 -7 3 -5 9 5 17 15 10
14 12 -3 12 -12 0 -19 -6 -17 -15z"/>
<path d="M5153 49560 c2 -9 14 -14 28 -12 28 3 50 21 23 19 -11 -1 -22 -6 -26
-12 -5 -6 -12 -4 -19 5 -9 13 -10 13 -6 0z"/>
<path d="M5275 49560 c-3 -5 -1 -10 4 -10 6 0 11 5 11 10 0 6 -2 10 -4 10 -3
0 -8 -4 -11 -10z"/>
<path d="M5445 49563 c3 -3 0 -11 -5 -18 -7 -8 -5 -12 4 -12 14 0 16 22 3 32
-4 3 -5 2 -2 -2z"/>
<path d="M5666 49553 c-6 -14 -5 -15 5 -6 7 7 10 15 7 18 -3 3 -9 -2 -12 -12z"/>
<path d="M5890 49566 c0 -2 8 -10 18 -17 15 -13 16 -12 3 4 -13 16 -21 21 -21
13z"/>
<path d="M6149 49557 c6 -8 7 -18 3 -22 -4 -5 -1 -5 6 -1 10 6 10 11 1 22 -6
8 -14 14 -16 14 -3 0 0 -6 6 -13z"/>
<path d="M5342 49553 c-6 -2 -10 -9 -6 -14 8 -14 21 -11 21 6 0 8 -1 15 -1 14
-1 0 -7 -3 -14 -6z"/>
<path d="M5609 49556 c-1 -3 -2 -10 -3 -16 -1 -8 -8 -12 -18 -9 -2 0 -16 2
-33 4 -25 3 -27 2 -12 -7 28 -15 50 -17 66 -4 12 9 13 7 7 -9 -4 -11 -4 -16
-1 -13 4 4 17 3 29 -2 16 -6 23 -5 23 5 0 7 -8 10 -20 7 -15 -4 -18 0 -15 18
1 13 -3 25 -9 27 -7 3 -14 2 -14 -1z"/>
<path d="M4936 49542 c-3 -5 1 -9 9 -9 8 0 12 4 9 9 -3 4 -7 8 -9 8 -2 0 -6
-4 -9 -8z"/>
<path d="M5010 49540 c-8 -5 -12 -12 -9 -15 4 -3 12 1 19 10 14 17 11 19 -10
5z"/>
<path d="M5036 49534 c-5 -14 -4 -15 9 -4 17 14 19 20 6 20 -5 0 -12 -7 -15
-16z"/>
<path d="M5473 49537 c0 -8 6 -14 14 -14 9 0 10 4 2 14 -6 7 -12 13 -14 13 -1
0 -2 -6 -2 -13z"/>
<path d="M5926 49533 c-6 -14 -5 -15 5 -6 7 7 10 15 7 18 -3 3 -9 -2 -12 -12z"/>
<path d="M4585 49520 c-4 -11 -10 -18 -15 -15 -4 3 -7 -1 -6 -7 1 -7 6 -15 11
-16 6 -2 19 -8 30 -14 15 -7 13 -4 -5 12 -14 12 -18 20 -9 17 11 -3 15 2 15
19 0 29 -12 31 -21 4z"/>
<path d="M4625 49531 c-3 -5 -2 -12 3 -15 5 -3 9 1 9 9 0 17 -3 19 -12 6z"/>
<path d="M4800 49535 c0 -5 5 -17 10 -25 5 -8 10 -10 10 -5 0 6 -5 17 -10 25
-5 8 -10 11 -10 5z"/>
<path d="M4830 49532 c0 -5 6 -16 13 -27 10 -13 16 -15 21 -6 4 6 13 9 19 5 7
-3 1 4 -12 15 -24 22 -41 27 -41 13z m40 -17 c0 -12 -19 -12 -23 0 -4 9 -1 12
9 8 7 -3 14 -7 14 -8z"/>
<path d="M5845 49531 c-3 -6 1 -11 9 -11 8 0 16 -8 18 -17 2 -12 6 -14 10 -7
4 6 -1 19 -11 28 -13 11 -21 14 -26 7z"/>
<path d="M5967 49527 c-3 -9 -11 -16 -16 -15 -5 2 -9 -1 -10 -7 -1 -5 2 -10 7
-10 14 -1 39 -20 45 -35 3 -8 5 -3 4 11 -1 20 -5 25 -17 21 -11 -4 -10 1 5 18
11 13 15 20 8 17 -6 -4 -13 -2 -15 5 -3 8 -7 6 -11 -5z"/>
<path d="M4104 49508 c-10 -13 -12 -17 -4 -11 8 6 18 12 23 12 8 1 11 11 4 17
-2 2 -12 -6 -23 -18z"/>
<path d="M6179 49519 c-6 -4 -4 -9 7 -13 10 -4 23 -1 31 6 11 11 10 14 -7 14
-12 0 -25 -3 -31 -7z"/>
<path d="M4170 49510 c-9 -6 -10 -10 -3 -10 6 0 15 5 18 10 8 12 4 12 -15 0z"/>
<path d="M4910 49510 c-9 -6 -10 -10 -3 -10 6 0 15 5 18 10 8 12 4 12 -15 0z"/>
<path d="M6013 49507 c0 -8 6 -14 14 -14 9 0 10 4 2 14 -6 7 -12 13 -14 13 -1
0 -2 -6 -2 -13z"/>
<path d="M6425 49509 c3 -9 1 -28 -4 -42 -8 -20 -7 -26 2 -24 7 1 11 -4 9 -11
-2 -9 6 -9 32 2 19 8 38 11 42 8 5 -4 2 1 -5 11 -8 9 -21 16 -29 15 -9 -2 -21
7 -27 20 -15 27 -28 42 -20 21z m55 -52 c9 3 8 0 -3 -7 -19 -12 -47 1 -47 23
0 5 8 3 18 -5 9 -9 24 -13 32 -11z"/>
<path d="M4460 49494 c0 -8 5 -12 10 -9 6 4 8 11 5 16 -9 14 -15 11 -15 -7z"/>
<path d="M5843 49496 c5 -14 3 -17 -8 -13 -20 8 -28 -8 -10 -23 8 -7 15 -9 15
-5 0 4 6 2 14 -5 12 -9 18 -8 32 8 9 11 24 18 33 17 9 -1 11 0 4 2 -7 2 -9 11
-6 19 3 8 0 14 -7 14 -6 0 -9 -4 -6 -9 3 -5 -1 -14 -9 -21 -8 -7 -15 -9 -15
-5 0 4 -7 1 -16 -6 -15 -12 -16 -11 -10 8 4 13 2 24 -5 29 -9 5 -10 2 -6 -10z"/>
<path d="M4654 49466 c1 -15 -5 -21 -22 -22 -32 -2 -38 -11 -7 -11 14 0 28 4
31 8 3 5 10 7 15 4 5 -4 12 0 15 8 3 9 16 14 30 12 13 -1 29 4 35 11 8 10 6
12 -10 9 -12 -3 -30 -7 -41 -9 -11 -3 -20 -1 -20 3 0 4 -6 8 -14 8 -7 0 -13
-10 -12 -21z"/>
<path d="M6283 49470 c1 -21 10 -18 13 5 1 8 -2 15 -6 15 -5 0 -8 -9 -7 -20z"/>
<path d="M4217 49467 c3 -5 -5 -6 -18 -2 -13 3 -19 3 -13 -2 6 -4 10 -16 8
-26 -1 -9 2 -15 7 -11 5 3 7 10 3 15 -3 6 0 9 8 7 7 -2 14 1 15 6 1 5 7 12 15
17 9 6 6 8 -9 6 -12 0 -19 -5 -16 -10z"/>
<path d="M4381 49471 c-10 -6 -9 -10 3 -14 8 -3 18 -2 21 3 8 13 -9 20 -24 11z"/>
<path d="M6086 49470 c3 -3 16 -5 29 -5 14 -1 22 2 19 5 -3 3 -16 5 -29 5 -14
1 -22 -2 -19 -5z"/>
<path d="M6345 49470 c3 -5 8 -10 11 -10 2 0 4 5 4 10 0 6 -5 10 -11 10 -5 0
-7 -4 -4 -10z"/>
<path d="M5955 49459 c-10 -15 3 -25 16 -12 7 7 7 13 1 17 -6 3 -14 1 -17 -5z"/>
<path d="M4023 49442 c-3 -9 -7 -19 -9 -22 -1 -4 8 -6 21 -6 13 0 21 4 19 8
-3 5 -9 6 -13 4 -4 -3 -8 1 -8 9 0 13 3 13 23 0 20 -13 22 -13 20 2 -4 23 -45
27 -53 5z"/>
<path d="M4347 49453 c-8 -18 -1 -36 16 -39 15 -2 16 0 5 14 -11 13 -11 15 5
9 23 -9 22 0 -2 13 -11 5 -21 7 -24 3z"/>
<path d="M4423 49445 c0 -7 8 -10 19 -7 10 2 18 6 18 7 0 1 -8 5 -18 7 -11 3
-19 0 -19 -7z"/>
<path d="M4566 49448 c3 -4 11 -5 19 -1 21 7 19 12 -4 10 -11 0 -18 -5 -15 -9z"/>
<path d="M6142 49442 c-8 -6 -2 -9 18 -9 20 0 26 3 18 9 -7 4 -15 8 -18 8 -3
0 -11 -4 -18 -8z"/>
<path d="M4300 49430 c-8 -5 -12 -11 -10 -14 3 -2 14 2 24 10 22 15 10 19 -14
4z"/>
<path d="M5920 49436 c0 -2 8 -10 18 -17 15 -13 16 -12 3 4 -13 16 -21 21 -21
13z"/>
<path d="M6526 49432 c-3 -5 1 -9 9 -9 8 0 12 4 9 9 -3 4 -7 8 -9 8 -2 0 -6
-4 -9 -8z"/>
<path d="M4160 49415 c-7 -8 -16 -13 -20 -10 -5 3 -12 1 -15 -5 -5 -8 -11 -8
-19 -1 -14 11 -26 5 -26 -13 0 -6 4 -4 10 4 8 12 10 12 16 -4 5 -14 9 -15 15
-4 5 7 13 14 19 14 5 1 14 2 19 3 5 0 11 8 15 16 7 19 2 19 -14 0z"/>
<path d="M4440 49420 c-11 -7 -11 -10 -2 -10 7 0 11 -4 8 -9 -3 -5 1 -11 9
-15 8 -3 17 -1 20 5 4 5 -1 12 -9 15 -9 3 -13 10 -10 15 7 11 3 11 -16 -1z"/>
<path d="M5976 49413 c-6 -14 -5 -15 5 -6 7 7 10 15 7 18 -3 3 -9 -2 -12 -12z"/>
<path d="M6370 49421 c0 -6 -1 -14 -2 -18 -2 -3 5 -7 15 -9 21 -3 22 3 2 22
-8 9 -15 11 -15 5z"/>
<path d="M3959 49408 c-1 -2 -3 -13 -4 -25 -1 -14 2 -20 12 -16 9 3 11 0 7
-10 -7 -18 12 -32 22 -16 5 8 3 9 -6 4 -10 -6 -12 -4 -7 9 4 10 1 19 -8 22 -8
4 -15 10 -15 16 0 5 5 6 12 2 7 -4 8 -3 4 4 -7 11 -14 15 -17 10z"/>
<path d="M4515 49400 c6 -10 4 -12 -11 -6 -15 6 -17 5 -6 -5 9 -9 15 -10 23
-2 8 8 7 13 -2 18 -8 6 -10 4 -4 -5z"/>
<path d="M6430 49399 c0 -5 5 -7 10 -4 6 3 10 8 10 11 0 2 -4 4 -10 4 -5 0
-10 -5 -10 -11z"/>
<path d="M4297 49386 c-4 -10 -3 -15 3 -11 6 3 10 1 10 -6 0 -7 3 -10 6 -6 3
3 2 13 -4 22 -8 16 -9 16 -15 1z"/>
<path d="M6022 49391 c-11 -6 -10 -10 4 -15 9 -4 22 -2 28 4 8 8 6 9 -8 4 -13
-5 -17 -4 -12 4 8 14 6 15 -12 3z"/>
<path d="M6274 49389 c-4 -7 -3 -9 3 -6 6 4 16 0 23 -8 10 -11 7 -14 -15 -12
-14 1 -30 9 -35 17 -8 13 -10 13 -10 -1 0 -22 41 -40 64 -27 13 7 23 5 37 -8
10 -9 19 -15 19 -11 0 3 -18 19 -39 36 -28 22 -42 28 -47 20z"/>
<path d="M4230 49380 c-9 -6 -10 -10 -3 -10 6 0 15 5 18 10 8 12 4 12 -15 0z"/>
<path d="M6575 49379 c-5 -7 -4 -10 2 -6 6 4 13 1 16 -7 8 -21 -4 -28 -22 -13
-14 11 -14 10 -2 -6 13 -16 16 -17 30 -3 14 15 14 18 -1 32 -12 12 -17 13 -23
3z"/>
<path d="M3920 49370 c-13 -9 -13 -10 0 -10 13 0 13 -2 0 -9 -8 -6 -18 -7 -22
-5 -4 3 -5 -2 -2 -10 5 -14 8 -14 21 -1 16 17 37 10 27 -8 -4 -7 -1 -7 7 1 12
11 11 15 -4 23 -9 6 -15 14 -12 20 8 11 4 11 -15 -1z"/>
<path d="M4260 49359 c0 -5 5 -7 10 -4 6 3 10 8 10 11 0 2 -4 4 -10 4 -5 0
-10 -5 -10 -11z"/>
<path d="M4406 49362 c-3 -4 4 -9 15 -9 23 -2 25 3 4 10 -8 4 -16 3 -19 -1z"/>
<path d="M6616 49343 c-6 -14 -5 -15 5 -6 7 7 10 15 7 18 -3 3 -9 -2 -12 -12z"/>
<path d="M4305 49342 c-20 -14 -15 -30 8 -24 20 5 21 4 7 -14 -14 -18 -14 -18
5 -3 11 9 25 14 32 12 6 -2 14 0 17 5 3 5 -5 8 -17 7 -29 -3 -48 5 -41 16 6
11 3 11 -11 1z"/>
<path d="M3876 49327 c3 -10 9 -15 12 -12 3 3 0 11 -7 18 -10 9 -11 8 -5 -6z"/>
<path d="M3857 49313 c-3 -5 4 -15 16 -23 21 -12 21 -12 7 6 -8 10 -15 20 -16
22 -1 2 -4 -1 -7 -5z"/>
<path d="M3927 49309 c7 -7 15 -10 18 -7 3 3 -2 9 -12 12 -14 6 -15 5 -6 -5z"/>
<path d="M4114 49312 c3 -5 0 -13 -6 -15 -9 -4 -10 -6 -1 -6 17 -1 25 16 12
25 -7 4 -9 3 -5 -4z"/>
<path d="M6211 49306 c-10 -11 -9 -14 1 -12 14 2 23 15 15 22 -2 2 -10 -2 -16
-10z"/>
<path d="M3967 49303 c-3 -5 4 -15 16 -23 21 -12 21 -12 7 6 -8 10 -15 20 -16
22 -1 2 -4 -1 -7 -5z"/>
<path d="M6505 49300 c3 -5 8 -10 11 -10 2 0 4 5 4 10 0 6 -5 10 -11 10 -5 0
-7 -4 -4 -10z"/>
<path d="M6678 49292 c9 -10 19 -17 21 -16 6 5 -20 34 -30 34 -5 0 -1 -8 9
-18z"/>
<path d="M4139 49288 c-1 -7 -2 -20 -3 -28 0 -8 -7 -14 -14 -12 -8 1 -11 -2
-7 -7 11 -19 34 1 33 30 -1 29 -7 40 -9 17z"/>
<path d="M4266 49288 c3 -5 10 -6 15 -3 13 9 11 12 -6 12 -8 0 -12 -4 -9 -9z"/>
<path d="M3812 49274 c-7 -8 -8 -14 -3 -14 10 0 25 19 20 25 -2 1 -10 -3 -17
-11z"/>
<path d="M3893 49275 c-7 -7 -8 -17 -2 -26 7 -11 9 -11 9 -1 0 7 4 11 9 8 5
-4 8 1 7 9 -3 21 -10 25 -23 10z"/>
<path d="M6651 49276 c-7 -8 -8 -17 -3 -20 6 -3 15 1 21 8 7 8 8 17 3 20 -6 3
-15 -1 -21 -8z"/>
<path d="M4055 49271 c-3 -5 -2 -12 3 -15 5 -3 9 1 9 9 0 17 -3 19 -12 6z"/>
<path d="M4085 49269 c-3 -4 2 -6 10 -5 21 3 28 13 10 13 -9 0 -18 -4 -20 -8z"/>
<path d="M6309 49278 c-5 -9 -5 -48 -1 -43 8 7 13 45 7 45 -3 0 -6 -1 -6 -2z"/>
<path d="M6723 49263 c5 -6 6 -17 3 -22 -4 -5 -2 -12 3 -15 18 -12 21 12 3 31
-9 10 -13 13 -9 6z"/>
<path d="M3959 49243 c-13 -16 -12 -17 4 -4 16 13 21 21 13 21 -2 0 -10 -8
-17 -17z"/>
<path d="M4240 49250 c-9 -6 -10 -10 -3 -10 6 0 15 5 18 10 8 12 4 12 -15 0z"/>
<path d="M6394 49248 c-11 -18 -12 -48 -2 -42 5 4 7 12 4 20 -3 7 3 18 12 23
9 6 12 11 5 11 -6 0 -15 -6 -19 -12z"/>
<path d="M4187 49239 c7 -7 15 -10 18 -7 3 3 -2 9 -12 12 -14 6 -15 5 -6 -5z"/>
<path d="M6540 49236 c0 -8 7 -17 16 -20 9 -3 14 -13 11 -21 -4 -8 -1 -12 6
-10 7 2 35 -16 62 -42 28 -25 42 -43 32 -39 -10 3 -16 2 -12 -3 3 -5 -1 -12
-7 -15 -7 -4 -2 -4 12 -1 14 2 32 -2 42 -12 18 -16 18 -15 16 15 -2 23 -5 28
-15 21 -9 -8 -11 -6 -8 10 4 20 -23 44 -50 46 -5 1 -8 7 -7 15 2 8 0 12 -4 7
-12 -12 -53 33 -46 52 5 14 4 15 -13 1 -11 -9 -16 -10 -11 -2 4 7 1 12 -8 12
-9 0 -16 -6 -16 -14z m144 -105 c-2 -3 -12 3 -22 13 -16 17 -16 18 5 5 12 -7
20 -15 17 -18z"/>
<path d="M3777 49233 c-3 -5 4 -15 16 -23 21 -12 21 -12 7 6 -8 10 -15 20 -16
22 -1 2 -4 -1 -7 -5z"/>
<path d="M3930 49232 c0 -6 -8 -13 -17 -15 -16 -4 -16 -5 -1 -6 18 -1 34 16
24 26 -3 4 -6 1 -6 -5z"/>
<path d="M4005 49231 c-3 -5 -1 -12 5 -16 6 -4 8 -11 5 -16 -10 -15 11 -10 24
5 9 11 9 16 0 22 -8 5 -9 3 -4 -6 5 -8 3 -11 -6 -8 -8 3 -13 11 -11 17 3 13
-5 15 -13 2z"/>
<path d="M6344 49224 c1 -8 8 -20 16 -27 12 -10 12 -9 2 5 -10 13 -10 17 0 20
8 3 7 6 -4 10 -10 4 -15 2 -14 -8z"/>
<path d="M3867 49223 c-11 -10 -8 -20 6 -20 8 0 14 6 14 14 0 14 -10 17 -20 6z"/>
<path d="M4135 49221 c-3 -5 -1 -12 5 -16 6 -4 8 -11 4 -16 -4 -6 -10 -6 -18
0 -13 11 -26 5 -26 -11 0 -13 32 -3 70 21 23 15 27 20 13 16 -14 -4 -23 -2
-23 4 0 13 -17 14 -25 2z"/>
<path d="M6625 49219 c-4 -6 -5 -12 -2 -15 2 -3 7 2 10 11 7 17 1 20 -8 4z"/>
<path d="M3757 49209 c7 -7 15 -10 18 -7 3 3 -2 9 -12 12 -14 6 -15 5 -6 -5z"/>
<path d="M4078 49213 c18 -7 4 -23 -16 -17 -14 5 -14 3 2 -6 14 -10 20 -10 27
1 9 16 3 29 -14 28 -9 0 -8 -2 1 -6z"/>
<path d="M6752 49209 c2 -6 -3 -14 -11 -17 -9 -3 -11 0 -6 8 5 9 4 11 -4 6
-17 -11 -5 -23 24 -23 33 0 41 13 15 27 -15 8 -20 8 -18 -1z"/>
<path d="M3812 49194 c-13 -14 -12 -15 8 -18 6 0 10 -5 11 -11 1 -17 21 -35
31 -29 5 4 5 11 -1 18 -6 7 -7 16 -3 20 4 4 3 7 -3 6 -20 -4 -30 1 -17 9 11 7
11 9 0 13 -7 3 -19 -1 -26 -8z"/>
<path d="M3954 49195 c-18 -14 -18 -14 4 -8 12 3 22 9 22 14 0 12 -3 11 -26
-6z"/>
<path d="M3991 49194 c0 -11 3 -14 6 -6 3 7 2 16 -1 19 -3 4 -6 -2 -5 -13z"/>
<path d="M3741 49192 c1 -4 1 -14 0 -22 -1 -12 -3 -12 -10 -2 -7 11 -9 11 -14
-1 -7 -19 15 -16 36 5 14 14 14 17 2 22 -8 3 -14 2 -14 -2z"/>
<path d="M4043 49165 c0 -11 4 -12 14 -4 7 6 13 13 13 15 0 2 -6 4 -13 4 -8 0
-14 -7 -14 -15z"/>
<path d="M3767 49153 c3 -7 6 -13 8 -13 2 0 5 6 8 13 3 8 -1 14 -8 14 -7 0
-11 -6 -8 -14z"/>
<path d="M4020 49161 c0 -7 -4 -10 -9 -7 -8 5 -8 -15 -1 -34 1 -3 2 -9 1 -13
-1 -5 3 -6 9 -2 8 5 8 11 1 19 -7 9 -7 16 1 24 6 6 9 15 5 19 -4 3 -7 1 -7 -6z"/>
<path d="M4072 49157 c-7 -8 -7 -18 -2 -27 6 -8 10 -10 11 -5 0 6 2 18 4 28 4
20 1 21 -13 4z"/>
<path d="M6425 49160 c-3 -6 1 -7 9 -4 18 7 21 14 7 14 -6 0 -13 -4 -16 -10z"/>
<path d="M6805 49150 c-3 -5 -1 -10 5 -10 6 0 8 -5 3 -12 -13 -21 -12 -35 3
-35 10 0 11 4 3 13 -7 9 -5 15 8 23 11 6 13 11 5 11 -7 0 -10 5 -7 10 3 6 2
10 -4 10 -5 0 -13 -4 -16 -10z"/>
<path d="M3675 49120 c-11 -12 -13 -20 -5 -25 6 -4 9 -1 8 7 -2 7 3 12 10 10
8 -1 11 2 7 8 -3 5 -2 10 4 10 5 0 11 -5 13 -12 2 -6 14 -12 26 -13 21 -2 21
-1 5 15 -24 22 -48 22 -68 0z"/>
<path d="M3740 49136 c0 -2 7 -7 16 -10 8 -3 12 -2 9 4 -6 10 -25 14 -25 6z"/>
<path d="M3787 49133 c-4 -3 -7 -13 -7 -22 1 -13 3 -13 11 2 11 19 8 33 -4 20z"/>
<path d="M3864 49118 c-14 -16 -14 -19 -2 -10 14 11 17 10 21 -5 3 -10 4 -6 4
10 -1 15 -2 27 -3 27 0 0 -9 -10 -20 -22z"/>
<path d="M6605 49130 c3 -5 8 -10 11 -10 2 0 4 5 4 10 0 6 -5 10 -11 10 -5 0
-7 -4 -4 -10z"/>
<path d="M5130 49112 c0 -12 19 -26 26 -19 2 2 -2 10 -11 17 -9 8 -15 8 -15 2z"/>
<path d="M5193 49105 c0 -8 4 -12 9 -9 5 3 6 10 3 15 -9 13 -12 11 -12 -6z"/>
<path d="M5265 49110 c-3 -5 -1 -10 4 -10 6 0 11 5 11 10 0 6 -2 10 -4 10 -3
0 -8 -4 -11 -10z"/>
<path d="M5325 49110 c3 -5 10 -10 16 -10 5 0 9 5 9 10 0 6 -7 10 -16 10 -8 0
-12 -4 -9 -10z"/>
<path d="M5413 49105 c0 -8 4 -12 9 -9 5 3 6 10 3 15 -9 13 -12 11 -12 -6z"/>
<path d="M5380 49100 c-9 -6 -10 -10 -3 -10 6 0 15 5 18 10 8 12 4 12 -15 0z"/>
<path d="M5460 49096 c7 -7 13 -7 20 0 6 6 3 10 -10 10 -13 0 -16 -4 -10 -10z"/>
<path d="M3818 49093 c6 -2 9 -10 6 -15 -4 -7 -2 -8 5 -4 13 9 5 26 -12 25 -9
0 -8 -2 1 -6z"/>
<path d="M3920 49080 c0 -5 5 -10 11 -10 5 0 7 5 4 10 -3 6 -8 10 -11 10 -2 0
-4 -4 -4 -10z"/>
<path d="M3953 49075 c0 -8 8 -16 18 -18 11 -3 16 1 15 11 -3 19 -33 25 -33 7z"/>
<path d="M3669 49078 c-5 -18 -6 -38 -1 -34 7 8 12 36 6 36 -2 0 -4 -1 -5 -2z"/>
<path d="M3763 49063 c0 -7 4 -13 8 -13 4 0 9 6 12 13 3 8 0 14 -7 14 -7 0
-13 -6 -13 -14z"/>
<path d="M4910 49070 c0 -19 -3 -25 -19 -37 -9 -7 -14 -13 -11 -13 34 -8 38
-7 33 8 -4 8 -2 13 3 9 6 -3 16 4 23 16 11 18 11 20 0 10 -18 -18 -30 -16 -23
2 4 8 3 15 0 15 -3 0 -6 -4 -6 -10z"/>
<path d="M5603 49049 c-2 -23 3 -25 10 -4 4 8 3 16 -1 19 -4 3 -9 -4 -9 -15z"/>
<path d="M6670 49065 c0 -2 10 -10 23 -16 20 -11 21 -11 8 4 -13 16 -31 23
-31 12z"/>
<path d="M3794 49049 c3 -17 43 -19 43 -3 0 9 -5 10 -18 4 -11 -6 -19 -6 -22
0 -3 6 -4 5 -3 -1z"/>
<path d="M3924 49049 c-11 -18 11 -32 25 -16 9 12 8 16 -3 20 -9 4 -18 1 -22
-4z"/>
<path d="M4836 49048 c5 -7 2 -9 -7 -6 -10 4 -15 -1 -15 -12 0 -10 6 -17 13
-16 8 1 13 6 12 11 0 4 5 11 11 15 8 5 7 9 -5 13 -11 5 -14 3 -9 -5z"/>
<path d="M5648 49043 c-6 -7 -15 -10 -21 -6 -5 3 -7 1 -4 -5 8 -11 25 -11 45
2 12 7 12 4 2 -14 -11 -20 -10 -21 9 -11 11 7 31 9 44 5 17 -4 26 -1 31 11 3
9 2 14 -2 11 -4 -2 -14 -1 -22 4 -10 6 -21 3 -34 -8 -18 -16 -18 -16 -8 3 9
18 7 21 -9 21 -11 0 -25 -6 -31 -13z m87 -21 c-3 -3 -11 0 -18 7 -9 10 -8 11
6 5 10 -3 15 -9 12 -12z"/>
<path d="M3611 49036 c-9 -11 -9 -16 1 -22 7 -4 10 -4 6 1 -4 4 -3 14 3 22 6
7 9 13 6 13 -2 0 -10 -6 -16 -14z"/>
<path d="M4940 49029 c-7 -11 -10 -23 -7 -25 2 -2 9 7 15 21 14 30 7 33 -8 4z"/>
<path d="M6891 49043 c-1 -17 16 -25 25 -12 4 7 3 9 -4 5 -5 -3 -13 0 -15 6
-4 9 -6 10 -6 1z"/>
<path d="M6465 48972 c-44 -37 -91 -77 -104 -88 -14 -10 -46 -38 -71 -61 -26
-24 -53 -43 -61 -43 -12 0 -12 -2 0 -9 8 -5 14 -23 14 -41 0 -17 3 -26 7 -19
8 13 38 -15 115 -106 28 -32 49 -65 47 -73 -2 -9 1 -11 10 -6 7 4 10 4 7 0 -4
-4 7 -21 22 -37 16 -17 29 -36 29 -43 1 -6 11 -24 24 -40 14 -16 22 -36 18
-44 -3 -9 -1 -13 5 -9 5 4 15 -5 22 -19 6 -14 7 -23 3 -20 -5 3 -9 -2 -9 -10
0 -9 6 -13 15 -9 10 4 13 0 9 -15 -3 -11 -1 -18 3 -15 7 5 23 -26 25 -47 0 -3
3 -10 7 -13 4 -4 3 -16 -2 -25 -7 -13 -5 -22 8 -31 15 -13 16 -12 3 4 -7 9 -9
17 -3 17 12 0 24 -28 17 -40 -3 -5 -1 -11 5 -15 7 -4 7 -12 0 -25 -9 -16 -8
-18 5 -14 9 4 15 3 14 -2 -1 -5 0 -16 4 -24 12 -33 15 -60 5 -54 -6 4 -3 -4 5
-17 23 -35 23 -34 7 -54 -9 -11 -10 -16 -2 -11 6 4 12 4 13 -1 4 -35 5 -96 2
-85 -3 6 -12 12 -21 12 -13 0 -14 2 -4 9 10 6 10 10 -2 20 -12 10 -15 9 -13
-9 1 -12 14 -29 29 -38 l28 -16 -1 -118 c-1 -65 -5 -120 -9 -123 -5 -3 -6 -13
-3 -22 4 -10 2 -14 -4 -10 -5 4 -15 -6 -22 -21 -10 -25 -10 -26 4 -8 8 11 18
17 21 13 4 -4 1 -13 -5 -21 -9 -11 -9 -16 0 -22 8 -5 10 -3 4 7 -6 11 -5 11 5
2 7 -7 9 -17 4 -25 -12 -19 -14 -39 -3 -32 14 8 11 -180 -3 -194 -7 -7 -8 -12
-4 -12 5 0 2 -8 -5 -17 -12 -14 -12 -16 0 -8 11 6 12 1 7 -26 -6 -32 -13 -71
-19 -112 -2 -10 -10 -23 -18 -28 -10 -6 -10 -9 -1 -9 6 0 12 -5 12 -11 0 -5
-3 -8 -7 -6 -5 3 -8 -11 -9 -30 0 -19 -7 -39 -15 -44 -8 -5 -10 -9 -6 -9 4 0
3 -9 -3 -20 -7 -12 -16 -18 -23 -13 -8 4 -7 1 1 -9 11 -14 11 -21 0 -42 -7
-14 -17 -25 -23 -25 -5 0 -10 -4 -12 -11 -1 -6 0 -7 4 0 2 5 9 8 14 5 11 -7
-27 -85 -41 -85 -6 0 -9 -3 -9 -7 3 -20 -2 -34 -11 -28 -6 4 -7 -1 -3 -10 7
-21 -18 -39 -30 -22 -6 8 -7 7 -4 -3 2 -8 10 -14 16 -12 8 1 8 -4 -1 -18 -8
-12 -20 -18 -34 -16 -11 2 -27 0 -35 -5 -9 -6 -10 -9 -2 -9 7 0 10 -7 7 -15
-4 -8 -1 -15 4 -15 6 0 9 9 7 19 -3 14 1 18 12 14 10 -4 11 -8 3 -13 -6 -4
-11 -10 -11 -14 4 -32 -18 -37 -26 -6 -7 27 -23 25 -52 -5 -12 -14 -28 -22
-34 -18 -6 3 -7 1 -3 -6 6 -9 11 -9 22 0 8 6 14 8 14 5 0 -4 6 -1 14 6 8 7 12
16 9 21 -2 4 0 7 5 7 21 0 18 -27 -5 -55 -18 -21 -23 -24 -19 -10 6 16 5 17
-5 8 -16 -16 -20 -43 -6 -40 18 3 44 31 39 41 -3 5 1 6 8 1 8 -5 11 -4 6 3 -3
6 -2 13 4 17 26 16 5 -25 -35 -70 -25 -27 -45 -53 -45 -57 0 -4 -6 -5 -13 -2
-7 2 -22 -6 -33 -18 l-19 -23 23 19 c12 11 22 15 22 10 0 -4 -30 -37 -67 -72
-52 -48 -70 -60 -78 -50 -5 7 -17 14 -25 16 -11 2 -10 -2 4 -12 21 -17 16 -43
-11 -53 -10 -4 -21 -11 -25 -17 -4 -6 -20 -11 -35 -12 -16 0 -27 -6 -25 -12 1
-7 -6 -12 -15 -12 -13 0 -14 -3 -6 -8 9 -6 4 -13 -17 -26 -17 -9 -34 -15 -39
-11 -5 3 -16 -3 -23 -13 -14 -21 -97 -66 -105 -58 -3 3 -12 -1 -20 -9 -17 -18
-58 -20 -47 -3 4 7 3 8 -5 4 -6 -4 -9 -11 -6 -16 3 -5 -4 -14 -15 -20 -11 -6
-20 -8 -20 -4 0 3 -6 1 -13 -5 -8 -6 -17 -8 -20 -4 -4 3 -13 0 -21 -6 -8 -7
-20 -10 -25 -7 -5 4 -12 2 -16 -3 -3 -6 -13 -7 -22 -4 -12 5 -14 3 -8 -8 4 -8
5 -11 1 -7 -5 4 -19 3 -33 -3 -17 -6 -22 -6 -17 2 3 6 -6 4 -22 -3 -36 -18
-70 -17 -66 0 2 9 -2 11 -10 5 -18 -11 -32 -10 -41 2 -5 6 -7 2 -4 -10 4 -23
3 -23 -127 -31 -61 -4 -86 -2 -81 5 3 6 -1 11 -10 11 -9 0 -14 -4 -11 -9 4 -5
-6 -7 -21 -5 -16 2 -50 6 -78 8 -27 3 -61 8 -75 11 -14 4 -36 8 -50 10 -14 1
-27 4 -30 5 -9 4 -24 7 -48 8 -18 2 -22 6 -17 21 3 11 0 21 -9 24 -10 4 -14 0
-11 -14 3 -13 0 -19 -8 -16 -7 3 -11 9 -10 15 1 5 -6 8 -17 5 -11 -3 -28 -2
-37 2 -10 5 -22 7 -26 6 -5 -1 -6 2 -4 6 3 5 -6 13 -19 20 -13 6 -22 7 -18 2
3 -5 -2 -6 -10 -3 -9 3 -16 10 -16 16 0 5 -4 7 -9 3 -14 -8 -61 16 -54 28 4 6
1 7 -6 3 -7 -5 -20 -1 -29 7 -9 8 -27 18 -40 22 -12 3 -20 11 -17 16 3 5 0 6
-7 4 -8 -3 -23 3 -35 14 -11 11 -23 17 -26 15 -3 -3 -11 4 -17 16 -10 18 -10
21 2 15 10 -6 10 -5 -1 6 -10 11 -15 11 -18 2 -4 -10 -7 -10 -18 0 -8 6 -21
17 -29 24 -8 7 -16 17 -18 23 -2 6 -11 12 -20 14 -22 3 -59 36 -52 47 3 5 -1
9 -9 9 -19 0 -61 46 -53 59 4 5 1 13 -5 17 -8 4 -9 3 -5 -4 4 -7 3 -12 -3 -12
-5 0 -12 9 -16 20 -3 11 -11 19 -17 17 -5 -1 -15 7 -21 18 -7 11 -20 27 -30
36 -15 15 -15 18 -2 29 12 10 15 9 15 -5 0 -10 3 -16 6 -12 4 3 4 14 0 23 -5
12 -10 13 -19 6 -8 -7 -18 -7 -27 -2 -8 6 -12 10 -8 10 4 0 -4 12 -18 27 -14
15 -23 32 -20 40 3 7 0 15 -6 19 -7 5 -8 2 -3 -6 5 -9 4 -11 -4 -6 -8 5 -10
20 -7 39 4 22 3 26 -2 13 -11 -24 -25 -6 -16 21 5 14 4 15 -4 4 -8 -11 -13 -7
-27 18 -9 18 -14 39 -11 47 3 8 2 12 -3 9 -5 -3 -12 -1 -16 5 -3 5 -1 10 5 10
7 0 5 6 -4 15 -17 17 -46 20 -46 5 0 -5 -5 -10 -11 -10 -6 0 -43 -28 -83 -63
-39 -35 -92 -80 -118 -101 -44 -35 -62 -66 -38 -66 5 0 16 -13 24 -29 8 -15
32 -50 52 -76 28 -38 33 -50 22 -57 -9 -7 -8 -8 6 -4 11 4 23 1 28 -6 11 -18
10 -30 -2 -23 -5 3 -10 1 -10 -5 0 -7 7 -9 16 -6 17 7 92 -60 86 -76 -1 -5 6
-11 15 -15 19 -7 33 -22 33 -36 0 -5 -6 -5 -12 -1 -9 6 -9 3 0 -9 8 -9 10 -22
6 -29 -4 -7 -4 -10 1 -6 4 4 15 2 24 -5 14 -10 14 -10 3 5 -8 9 -10 23 -6 29
5 8 3 9 -6 4 -9 -6 -11 -4 -6 4 6 9 12 8 26 -4 20 -18 20 -47 1 -53 -7 -2 -1
-12 14 -24 14 -11 23 -25 19 -31 -3 -7 0 -5 8 4 7 9 20 14 28 12 12 -4 12 -3
1 5 -9 6 -10 12 -2 16 5 4 30 -13 53 -36 23 -24 36 -34 28 -23 l-15 20 25 -20
c13 -11 33 -29 43 -40 10 -11 16 -14 12 -5 -4 8 3 4 14 -9 12 -13 21 -20 21
-17 0 4 9 2 20 -4 11 -6 20 -16 20 -23 0 -7 -4 -6 -10 3 -5 8 -10 10 -10 4 0
-18 12 -24 26 -13 8 7 14 6 20 -2 5 -8 3 -9 -6 -4 -9 5 -11 4 -6 -4 4 -6 11
-9 16 -6 8 5 51 -14 100 -44 8 -6 29 -15 47 -23 21 -8 28 -15 20 -20 -7 -5 1
-8 19 -8 16 0 34 -4 40 -10 5 -5 21 -11 34 -14 14 -2 27 -5 29 -5 2 -1 -3 -8
-10 -18 -13 -15 -12 -15 8 -2 19 11 24 11 35 0 11 -11 10 -12 -1 -6 -10 6 -12
4 -7 -4 6 -9 11 -9 22 0 12 10 17 8 28 -7 11 -14 11 -21 3 -26 -7 -4 -14 0
-18 9 -3 10 -8 13 -12 6 -8 -12 30 -49 40 -40 3 4 0 7 -8 7 -10 1 -9 4 4 11
13 8 15 14 7 23 -8 10 -5 12 15 8 14 -2 28 -9 32 -15 3 -6 1 -7 -5 -3 -6 4
-16 -4 -22 -16 -11 -22 -10 -22 4 -4 9 11 16 16 16 12 0 -5 7 -3 15 4 11 9 15
9 15 1 0 -7 4 -10 8 -7 5 3 21 -1 36 -9 14 -8 24 -10 21 -5 -4 6 -1 10 4 10 6
0 11 -4 11 -9 0 -5 11 -8 24 -7 37 5 81 -18 83 -43 2 -28 -3 -27 -21 7 -13 24
-15 25 -13 5 1 -12 7 -25 15 -28 20 -7 -8 -34 -32 -29 -10 2 -16 1 -12 -3 9
-10 -15 -34 -28 -26 -6 3 -8 2 -3 -2 4 -5 16 -9 26 -10 13 -1 17 3 13 14 -5
14 -4 14 13 1 10 -8 16 -10 12 -4 -4 6 3 20 15 30 19 17 21 17 15 2 -4 -12 0
-21 14 -28 14 -8 19 -8 17 1 -2 6 3 14 11 17 9 3 11 0 6 -8 -6 -9 -4 -11 4 -6
9 6 9 12 -3 25 -9 10 -13 21 -9 26 5 4 2 5 -5 1 -7 -4 -10 -12 -7 -17 3 -5 0
-7 -7 -4 -20 8 -18 65 2 65 9 0 19 -3 23 -6 6 -7 70 -13 150 -15 38 -2 47 -5
42 -17 -4 -11 -2 -12 8 -4 18 15 157 13 157 -2 0 -6 5 -4 10 5 7 12 24 17 60
17 27 0 47 -4 44 -9 -3 -5 -10 -6 -16 -3 -7 5 -8 2 -4 -5 6 -9 13 -8 26 4 11
10 36 19 57 21 29 3 33 2 18 -5 -19 -9 -19 -10 3 -10 13 -1 21 -5 17 -10 -3
-5 0 -13 6 -17 7 -4 10 -3 7 2 -6 9 23 42 30 36 2 -2 6 -1 9 1 8 8 -20 2 -36
-7 -9 -6 -12 -5 -9 5 3 8 16 14 29 15 14 0 29 3 34 6 6 4 30 9 54 13 24 3 55
11 69 16 18 7 27 6 32 -1 5 -8 9 -7 13 3 4 11 81 41 109 42 3 0 10 3 14 8 4 4
18 7 31 7 12 0 23 4 23 9 0 8 41 24 66 26 6 0 18 6 26 12 10 9 18 9 25 2 8 -8
13 -5 18 9 5 17 29 33 55 37 3 0 12 5 20 10 8 5 22 10 30 12 8 1 20 10 27 19
12 17 18 12 13 -11 -1 -5 10 1 24 14 32 30 34 41 4 15 l-23 -19 19 22 c15 18
22 20 33 12 10 -9 12 -9 8 3 -4 9 4 21 19 32 24 15 31 14 27 -7 -1 -5 3 -6 8
-2 6 3 7 13 4 22 -5 12 -2 15 10 10 9 -3 16 -2 14 4 -1 6 8 18 21 26 21 15 22
14 17 -3 -3 -11 1 -5 9 12 8 17 27 39 41 48 15 10 34 25 43 34 30 30 76 56 93
54 20 -3 33 24 17 34 -6 4 -8 3 -4 -4 3 -6 2 -13 -3 -16 -23 -14 -2 24 32 59
28 29 40 35 50 27 10 -9 14 -8 14 3 0 8 -4 12 -9 9 -4 -3 -8 1 -8 8 0 17 63
80 76 76 5 -2 9 2 9 7 0 6 -4 9 -8 7 -4 -1 0 9 9 23 9 14 20 25 25 25 5 0 9 6
9 14 0 20 27 41 32 24 3 -8 7 -6 11 6 4 10 3 15 -3 11 -16 -10 -11 8 10 35
l19 25 -4 -23 c-3 -20 -2 -22 10 -12 11 9 12 17 4 31 -7 14 -6 19 2 19 7 0 9
3 6 7 -4 3 1 12 11 19 11 8 19 9 23 2 4 -5 9 -3 12 6 3 8 1 18 -5 22 -7 5 -8
2 -3 -6 5 -8 4 -11 -3 -6 -7 4 -8 15 -3 29 7 19 15 22 60 20 28 -1 51 2 51 7
0 4 -7 7 -16 6 -9 0 -19 6 -22 14 -4 12 -2 13 9 4 8 -6 28 -10 46 -8 26 2 31
-1 26 -14 -7 -18 -5 -17 17 11 7 10 9 17 4 16 -19 -3 -34 1 -34 12 0 5 5 7 12
3 7 -5 8 -3 3 6 -6 11 -10 10 -19 -2 -16 -21 -42 -28 -54 -16 -8 8 -13 7 -18
-5 -3 -9 -10 -14 -15 -11 -5 3 -6 10 -3 16 5 7 2 8 -5 3 -7 -4 -4 10 7 31 27
55 58 125 66 152 4 12 12 22 17 22 6 0 8 3 5 8 -2 4 2 18 9 32 13 24 14 24 12
3 -1 -13 -6 -23 -11 -23 -5 0 -6 -3 -3 -7 4 -3 2 -12 -4 -19 -7 -9 -4 -16 11
-27 13 -9 17 -17 11 -22 -6 -3 -11 -3 -11 1 0 3 -8 0 -17 -7 -15 -12 -16 -12
-9 6 5 15 4 17 -4 8 -9 -8 -9 -16 -1 -30 6 -10 11 -13 11 -5 0 7 4 11 9 8 11
-7 43 28 34 37 -3 4 -1 7 5 7 7 0 12 -6 12 -12 0 -10 3 -9 9 1 5 7 15 10 22 7
8 -4 6 -1 -5 8 -14 11 -24 13 -38 5 -20 -11 -42 -3 -32 12 3 5 10 7 15 3 6 -3
8 5 5 20 -3 14 -1 26 2 26 9 0 8 42 -1 57 -4 5 -4 13 0 16 3 4 7 23 9 43 4 49
18 62 42 41 18 -17 20 -16 33 0 12 16 12 17 -2 6 -20 -16 -33 -5 -16 15 8 11
8 14 0 9 -6 -4 -14 -1 -16 5 -4 10 -6 10 -6 1 -1 -7 -6 -13 -11 -13 -6 0 -3
11 6 25 13 20 13 25 3 25 -9 0 -10 3 -4 8 6 4 11 29 13 56 2 28 7 55 11 60 5
6 7 19 6 28 -2 10 1 21 6 24 6 3 7 25 3 51 -5 32 -3 44 4 39 8 -5 8 2 0 24 -9
28 -8 52 6 117 3 13 1 25 -5 28 -5 4 -5 14 1 26 7 12 7 19 1 19 -5 0 -9 18 -9
40 0 22 4 37 9 34 5 -3 9 0 9 5 0 6 -5 11 -11 11 -7 0 -9 11 -6 29 3 16 1 33
-6 40 -9 9 -8 14 3 21 12 8 12 10 -2 15 -11 4 -16 16 -14 33 1 15 -2 33 -7 40
-5 7 -7 16 -3 19 4 4 10 2 14 -4 8 -13 28 4 27 24 0 20 -14 27 -21 9 -3 -9
-10 -16 -16 -16 -5 0 -7 4 -3 9 3 5 1 13 -5 16 -8 5 -7 11 1 21 10 12 10 15
-2 12 -9 -2 -14 5 -13 20 0 12 -3 22 -8 22 -4 0 -8 8 -8 17 0 20 20 4 23 -19
2 -8 12 -24 24 -37 15 -16 23 -19 28 -10 5 8 4 10 -3 5 -7 -4 -12 -2 -12 3 0
6 6 11 13 11 9 0 8 3 -2 9 -11 7 -11 9 0 14 11 4 11 6 1 6 -8 1 -10 6 -6 14 4
7 3 9 -2 4 -5 -5 -9 -14 -9 -20 0 -5 -5 -12 -12 -14 -8 -3 -11 3 -8 16 2 12
-1 21 -6 21 -6 0 -7 5 -4 10 4 6 3 10 -2 9 -23 -4 -35 2 -30 16 4 8 2 17 -4
21 -6 3 -8 12 -5 20 3 8 1 14 -5 14 -6 0 -8 4 -4 9 3 5 1 12 -5 16 -5 3 -10
13 -10 22 0 13 2 14 18 2 15 -12 16 -12 5 2 -10 12 -10 18 0 29 10 10 9 11 -2
5 -11 -6 -13 -4 -7 11 6 15 5 17 -5 7 -17 -17 -26 -16 -26 2 0 8 3 12 7 10 4
-2 7 2 7 9 0 8 -6 12 -13 9 -6 -2 -15 1 -20 8 -5 8 -3 10 7 4 8 -4 4 2 -9 14
-18 18 -21 26 -11 37 6 8 9 17 5 21 -3 3 -6 1 -6 -6 0 -7 -5 -9 -10 -6 -8 5
-7 11 1 21 10 12 8 13 -7 8 -10 -4 -16 -4 -12 1 4 4 0 14 -8 22 -8 9 -13 22
-10 30 4 9 2 11 -6 7 -8 -5 -9 -2 -5 10 4 9 3 15 -1 12 -4 -3 -14 4 -21 16 -7
11 -8 17 -3 14 12 -7 10 20 -3 31 -4 4 -5 2 -1 -4 4 -7 2 -13 -4 -13 -7 0 -9
13 -6 35 6 34 -2 42 -36 36 -7 -1 -38 52 -38 64 0 2 -12 16 -25 31 -14 15 -22
31 -19 36 3 4 1 7 -4 6 -6 -2 -9 0 -9 4 1 4 -7 14 -18 21 -17 13 -18 17 -5 33
14 18 14 18 -4 4 -17 -13 -20 -13 -24 0 -6 19 -163 180 -175 180 -5 0 -15 7
-21 16 -10 13 -23 6 -91 -54z m459 -363 c-6 -11 -24 -2 -24 11 0 5 7 7 15 4 8
-4 12 -10 9 -15z m186 -1583 c0 -3 -4 -8 -10 -11 -5 -3 -10 -1 -10 4 0 6 5 11
10 11 6 0 10 -2 10 -4z m-125 -316 c3 -5 2 -10 -4 -10 -5 0 -13 5 -16 10 -3 6
-2 10 4 10 5 0 13 -4 16 -10z m-2961 -563 c8 -12 7 -20 -1 -28 -17 -17 -48 8
-33 26 5 6 6 15 2 20 -4 4 -1 6 7 3 8 -2 19 -12 25 -21z m926 -507 c0 -5 -5
-10 -11 -10 -5 0 -7 5 -4 10 3 6 8 10 11 10 2 0 4 -4 4 -10z"/>
<path d="M3655 49020 c-3 -6 1 -7 9 -4 18 7 21 14 7 14 -6 0 -13 -4 -16 -10z"/>
<path d="M5766 49022 c-3 -5 1 -9 9 -9 8 0 12 4 9 9 -3 4 -7 8 -9 8 -2 0 -6
-4 -9 -8z"/>
<path d="M6680 49007 c0 -15 20 -37 34 -37 5 0 2 6 -9 13 -10 8 -15 19 -11 25
4 7 2 12 -3 12 -6 0 -11 -6 -11 -13z"/>
<path d="M3893 48995 c0 -8 4 -12 9 -9 5 3 6 10 3 15 -9 13 -12 11 -12 -6z"/>
<path d="M4675 48997 c-12 -10 -15 -16 -6 -21 6 -4 14 0 17 8 3 9 11 13 17 9
6 -3 7 -1 3 5 -9 15 -8 15 -31 -1z"/>
<path d="M5053 48990 c3 -10 -2 -16 -14 -16 -10 0 -15 5 -11 11 4 6 -1 2 -10
-8 -13 -13 -18 -15 -18 -6 0 9 -3 10 -8 3 -11 -17 -60 -26 -68 -12 -5 8 -2 9
11 4 15 -5 16 -4 5 9 -11 13 -15 13 -21 3 -5 -7 -14 -13 -20 -13 -7 0 -14 -7
-16 -15 -3 -9 -1 -11 4 -5 11 13 33 17 33 6 0 -10 -49 -24 -86 -26 -11 0 -32
-8 -45 -16 -41 -27 -109 -60 -109 -53 0 4 -8 0 -17 -8 -30 -25 -47 -33 -38
-17 5 8 0 7 -12 -3 -11 -10 -25 -18 -31 -18 -7 0 -12 -4 -12 -9 0 -14 -94 -78
-108 -73 -7 2 -9 9 -6 14 4 7 2 8 -5 4 -6 -4 -9 -11 -7 -15 3 -4 -5 -13 -16
-20 -19 -12 -20 -11 -14 6 5 14 4 15 -4 6 -9 -8 -9 -16 -1 -30 6 -10 11 -13
11 -6 0 7 10 17 23 24 21 11 21 10 -3 -14 -14 -14 -32 -27 -40 -29 -8 -2 -28
-20 -43 -40 -16 -21 -33 -38 -39 -38 -6 0 -4 8 3 18 12 15 12 16 -2 5 -9 -7
-19 -11 -23 -8 -3 3 -2 0 3 -6 12 -15 3 -39 -15 -39 -8 0 -11 -7 -8 -17 5 -15
3 -15 -11 2 -16 19 -16 19 -10 -7 6 -23 4 -28 -11 -28 -9 0 -14 -3 -11 -7 4
-3 1 -13 -5 -21 -7 -8 -17 -22 -23 -32 -45 -78 -62 -100 -73 -100 -7 0 -10 4
-7 10 4 6 -1 7 -11 3 -10 -4 -13 -8 -7 -10 7 -3 9 -11 6 -20 -4 -11 -2 -14 5
-9 8 4 10 2 6 -7 -3 -8 -15 -20 -27 -26 -12 -6 -14 -9 -5 -7 12 4 15 1 11 -10
-6 -17 -14 -18 -31 -4 -7 5 -6 3 2 -6 11 -13 12 -22 4 -40 -6 -13 -15 -24 -20
-24 -13 0 -10 12 10 34 l17 21 -23 -19 c-12 -11 -21 -24 -19 -30 2 -6 -3 -17
-12 -24 -13 -11 -12 -11 7 -2 22 11 23 10 17 -12 -4 -12 -11 -30 -16 -38 -8
-12 -9 -11 -7 4 2 10 -3 21 -11 24 -10 3 -12 0 -7 -14 15 -37 15 -54 0 -62
-13 -8 -13 -10 1 -22 13 -11 15 -10 9 4 -4 11 -2 16 7 14 9 -2 13 4 11 16 -2
10 1 15 6 12 5 -3 9 2 8 12 0 9 5 16 12 14 7 -1 23 9 36 23 17 18 26 22 29 13
3 -8 6 -6 6 5 1 12 5 16 14 11 9 -6 9 -5 0 7 -7 9 -9 20 -5 25 4 5 -12 -11
-35 -36 -23 -25 -42 -40 -43 -34 0 6 11 23 25 38 14 15 25 31 25 37 0 5 4 9 8
9 5 0 14 12 20 26 7 14 17 22 22 19 6 -4 9 -1 8 7 -2 8 7 13 24 12 15 -1 25 3
22 8 -3 4 -10 6 -15 3 -14 -9 -11 5 5 20 7 8 16 12 19 9 3 -3 4 3 3 13 0 10 9
22 22 28 12 5 22 13 22 17 0 5 7 8 15 8 8 0 14 6 12 13 -1 6 6 12 15 12 9 0
20 4 25 9 5 5 2 6 -7 1 -22 -13 66 71 101 96 16 11 36 18 44 15 8 -3 17 0 21
6 4 7 3 8 -4 4 -7 -4 -12 -3 -12 2 0 11 73 52 94 52 11 0 14 5 10 12 -5 8 -2
9 10 5 9 -4 15 -3 12 2 -6 10 42 33 54 26 5 -3 15 1 23 9 23 23 87 47 87 33 0
-7 5 -4 11 6 5 9 15 17 20 17 6 0 8 -4 4 -9 -3 -5 -1 -13 5 -16 6 -4 10 -3 9
2 -3 18 2 30 14 31 41 5 72 10 72 12 0 1 7 3 15 5 8 2 29 8 46 13 25 8 36 7
50 -7 17 -15 17 -15 5 2 -15 18 -18 17 54 21 17 1 36 5 42 9 6 4 14 3 18 -2 3
-5 14 -9 25 -8 10 1 16 5 13 10 -5 9 175 8 191 -1 4 -2 42 -6 83 -8 41 -2 80
-7 86 -11 7 -4 20 -6 30 -5 9 2 17 -2 17 -8 0 -6 -4 -9 -9 -6 -5 3 -14 -1 -21
-9 -16 -19 -31 -19 -24 0 4 8 2 15 -4 15 -20 0 -5 -35 16 -36 12 -1 20 4 19
10 -1 6 6 10 15 8 9 -1 19 2 23 8 4 7 13 4 23 -8 9 -10 13 -11 7 -4 -8 12 -6
14 14 7 13 -4 29 -8 35 -9 17 -3 53 -25 40 -26 -5 0 -15 4 -22 10 -7 5 -6 2 2
-7 12 -13 18 -14 30 -4 12 10 23 8 55 -9 23 -11 41 -27 41 -35 0 -19 17 -28
26 -14 5 8 3 9 -6 4 -9 -5 -11 -4 -6 3 5 8 13 9 25 2 10 -5 22 -6 27 -2 5 4 3
0 -4 -10 -10 -12 -10 -18 -1 -24 7 -4 9 -3 5 4 -20 33 93 -8 116 -43 4 -5 11
-10 15 -10 18 -1 53 -31 53 -45 0 -11 2 -12 8 -3 6 9 21 1 52 -29 24 -24 40
-36 36 -28 -5 8 12 -7 37 -34 26 -27 44 -53 41 -57 -2 -4 1 -11 7 -15 8 -4 9
-3 5 4 -4 7 -2 12 3 12 10 0 15 -14 12 -32 0 -5 4 -7 11 -5 7 1 12 -3 13 -10
0 -6 4 -15 9 -20 5 -5 6 -3 2 5 -4 6 -3 12 2 12 14 0 33 -26 24 -34 -4 -4 0
-6 8 -4 10 2 15 -5 15 -22 0 -16 8 -29 25 -37 33 -16 70 -63 63 -80 -3 -7 1
-13 10 -13 8 0 18 -10 21 -22 6 -23 6 -23 22 -3 8 11 18 19 22 18 4 -2 7 3 7
10 0 6 -4 12 -10 12 -17 0 -36 16 -30 25 3 5 0 12 -6 16 -8 4 -9 3 -5 -4 4 -7
3 -12 -2 -12 -6 0 -15 14 -21 30 -8 24 -7 29 2 25 7 -4 5 -1 -3 7 -21 17 -60
94 -53 102 4 3 0 6 -8 6 -11 0 -11 2 1 10 9 6 10 10 3 10 -8 0 -11 12 -9 34 2
18 -1 40 -6 47 -8 11 -9 11 -5 -1 2 -8 0 -25 -4 -38 -7 -17 -6 -21 3 -16 7 4
8 3 4 -4 -10 -16 -11 -16 -31 15 -15 22 -15 25 -2 20 14 -5 15 -2 8 32 -1 2
-8 -2 -16 -9 -12 -10 -16 -9 -22 6 -4 11 -12 24 -19 29 -19 15 -21 39 -4 40 8
0 15 7 15 15 0 8 5 18 10 22 6 5 5 8 -3 8 -7 0 -11 4 -8 9 3 5 -2 8 -12 7 -10
0 -16 6 -16 16 1 10 -2 15 -7 12 -5 -3 -9 4 -9 15 0 13 -7 21 -17 21 -13 0
-14 -3 -5 -12 16 -16 15 -29 -2 -22 -8 3 -17 1 -21 -5 -4 -7 0 -8 11 -4 13 5
15 3 9 -7 -5 -9 -4 -11 3 -6 16 10 53 -30 46 -49 -10 -25 -26 -15 -94 58 -51
55 -61 70 -49 78 11 7 9 8 -8 7 -12 -2 -22 2 -23 7 -2 14 -31 45 -43 45 -5 0
1 -9 14 -20 13 -10 19 -19 13 -20 -6 0 -17 6 -23 14 -6 7 -31 26 -56 42 -25
15 -45 32 -45 36 0 4 -6 8 -13 8 -7 0 -23 9 -35 20 -12 11 -25 21 -29 22 -17
2 -58 23 -65 33 -4 5 -8 6 -8 1 0 -4 -12 -1 -26 9 -14 9 -34 18 -44 20 -11 2
-34 10 -52 18 -58 26 -94 38 -116 40 -12 1 -22 5 -22 10 0 5 -9 7 -20 4 -11
-3 -37 0 -58 6 -20 6 -47 11 -60 11 -12 1 -27 8 -32 16 -7 10 -10 11 -10 3 0
-7 -5 -13 -11 -13 -5 0 -7 5 -3 12 5 7 3 8 -7 3 -22 -14 -71 -16 -85 -4 -10 8
-14 8 -14 0 0 -15 -112 -14 -129 2 -11 10 -13 9 -9 -3 5 -12 -2 -16 -28 -16
-21 0 -33 5 -30 11 2 7 -3 12 -11 12 -8 0 -13 -7 -10 -17z m1342 -758 c-3 -3
-11 0 -18 7 -9 10 -8 11 6 5 10 -3 15 -9 12 -12z m111 -109 c-4 -4 -11 -1 -16
7 -16 25 -11 35 7 17 9 -9 13 -20 9 -24z"/>
<path d="M5464 48995 c11 -8 25 -15 30 -15 6 0 2 7 -8 15 -11 8 -25 15 -30 15
-6 0 -2 -7 8 -15z"/>
<path d="M5542 48994 c10 -10 20 -16 22 -13 3 3 -5 11 -17 18 -21 13 -21 12
-5 -5z"/>
<path d="M6885 48999 c-4 -5 0 -9 7 -9 8 0 9 -3 3 -8 -16 -11 -16 -30 0 -36 9
-3 12 0 8 10 -3 8 2 23 10 32 15 16 15 18 -3 19 -11 1 -22 -2 -25 -8z"/>
<path d="M3577 48994 c-3 -3 -3 -13 0 -22 4 -9 2 -13 -4 -9 -6 4 -16 0 -22 -7
-9 -10 -9 -16 -1 -21 6 -4 14 -4 17 -1 4 3 1 6 -6 6 -7 0 -9 5 -6 10 5 8 11 8
19 1 17 -15 27 -2 16 19 -5 10 -6 20 -3 24 3 3 4 6 1 6 -2 0 -7 -3 -11 -6z"/>
<path d="M4955 48989 c-3 -4 2 -6 10 -5 21 3 28 13 10 13 -9 0 -18 -4 -20 -8z"/>
<path d="M5609 48984 c-6 -8 -16 -11 -22 -7 -5 3 -7 1 -4 -5 9 -13 30 -10 49
6 8 6 17 11 19 9 2 -1 3 0 1 2 -6 11 -32 8 -43 -5z"/>
<path d="M4636 48971 c-3 -5 2 -15 12 -22 15 -12 16 -12 5 2 -7 9 -10 19 -6
22 3 4 4 7 0 7 -3 0 -8 -4 -11 -9z"/>
<path d="M5865 48971 c6 -11 4 -13 -8 -8 -23 9 -21 0 2 -13 25 -13 36 3 14 21
-14 12 -16 12 -8 0z"/>
<path d="M6640 48970 c0 -5 7 -10 15 -10 8 0 15 -7 15 -16 0 -8 5 -12 11 -9 7
5 4 14 -7 26 -19 21 -34 25 -34 9z"/>
<path d="M6916 48971 c-3 -5 6 -17 20 -26 15 -9 24 -12 20 -7 -3 6 -2 13 3 16
14 9 21 -20 8 -35 -10 -11 -9 -11 5 0 14 10 15 17 6 37 -12 26 -23 30 -33 14
-3 -5 -11 -10 -16 -10 -6 0 -7 5 -4 10 3 6 4 10 1 10 -3 0 -7 -4 -10 -9z"/>
<path d="M3856 48958 c3 -4 11 -5 19 -1 21 7 19 12 -4 10 -11 0 -18 -5 -15 -9z"/>
<path d="M4586 48951 c-3 -4 6 -7 19 -7 14 0 22 2 19 5 -8 8 -34 10 -38 2z"/>
<path d="M3841 48931 c-8 -5 -16 -17 -17 -26 -1 -9 1 -14 4 -10 4 4 6 9 4 12
-2 3 5 11 15 19 20 15 16 19 -6 5z"/>
<path d="M3576 48922 c-3 -5 1 -9 9 -9 8 0 12 4 9 9 -3 4 -7 8 -9 8 -2 0 -6
-4 -9 -8z"/>
<path d="M3765 48919 c-5 -7 2 -50 10 -57 3 -3 5 0 5 7 0 7 4 10 9 6 5 -3 13
0 17 7 4 7 4 10 -1 6 -9 -9 -35 9 -35 24 0 6 8 4 17 -3 9 -8 14 -9 10 -2 -4 6
-1 13 5 16 7 3 3 4 -10 4 -13 -1 -25 -4 -27 -8z"/>
<path d="M4640 48926 c0 -2 8 -10 18 -17 15 -13 16 -12 3 4 -13 16 -21 21 -21
13z"/>
<path d="M4716 48919 c3 -5 10 -6 16 -3 6 4 8 1 6 -7 -3 -8 -11 -13 -17 -11
-7 1 -10 -2 -6 -8 5 -8 11 -7 21 1 18 15 14 31 -9 35 -9 1 -15 -2 -11 -7z"/>
<path d="M5807 48923 c-10 -9 -9 -23 1 -23 5 0 9 7 9 15 0 17 -1 18 -10 8z"/>
<path d="M3539 48903 c-7 -10 -9 -15 -5 -11 5 4 14 0 21 -9 8 -11 14 -13 19
-4 4 6 0 14 -8 17 -9 3 -13 10 -10 15 10 16 -3 9 -17 -8z"/>
<path d="M4506 48904 c-19 -19 -21 -31 -3 -15 8 6 18 7 22 3 5 -4 5 -2 2 5 -4
6 -1 14 5 16 9 4 9 6 1 6 -6 1 -19 -6 -27 -15z"/>
<path d="M6976 48904 c-11 -7 -15 -14 -10 -14 6 0 15 5 22 12 9 9 12 8 12 -5
0 -9 5 -17 10 -17 6 0 9 -5 8 -11 -2 -6 3 -13 10 -14 7 -2 8 -1 2 2 -5 2 -8 8
-6 12 3 3 -3 16 -12 28 -15 20 -19 20 -36 7z"/>
<path d="M4680 48896 c0 -11 -4 -15 -12 -10 -9 5 -9 2 1 -9 15 -19 26 -23 15
-5 -5 8 -2 9 11 4 16 -6 16 -4 4 11 -7 10 -15 20 -16 22 -2 2 -3 -3 -3 -13z"/>
<path d="M6001 48893 c-1 -14 17 -27 43 -28 17 -2 17 -1 3 10 -9 7 -13 16 -9
21 4 4 0 3 -10 -4 -13 -10 -17 -10 -21 0 -4 9 -6 9 -6 1z"/>
<path d="M6735 48880 c10 -11 20 -20 23 -20 3 0 -3 9 -13 20 -10 11 -20 20
-23 20 -3 0 3 -9 13 -20z"/>
<path d="M3525 48871 c-3 -5 -2 -12 3 -15 5 -3 9 1 9 9 0 17 -3 19 -12 6z"/>
<path d="M4504 48868 c-4 -7 -3 -10 1 -5 5 4 16 0 25 -8 15 -13 17 -13 17 0 0
8 -3 13 -5 10 -3 -3 -11 0 -18 6 -9 7 -14 6 -20 -3z"/>
<path d="M4473 48855 c0 -8 4 -15 9 -15 4 0 8 4 8 9 0 6 -4 12 -8 15 -5 3 -9
-1 -9 -9z"/>
<path d="M6070 48866 c0 -2 8 -10 18 -17 15 -13 16 -12 3 4 -13 16 -21 21 -21
13z"/>
<path d="M6976 48858 c3 -5 10 -6 15 -3 13 9 11 12 -6 12 -8 0 -12 -4 -9 -9z"/>
<path d="M3490 48856 c0 -2 8 -10 18 -17 15 -13 16 -12 3 4 -13 16 -21 21 -21
13z"/>
<path d="M3693 48826 l-18 -21 24 20 c20 16 23 17 18 3 -6 -17 15 -20 30 -3 5
4 2 5 -6 0 -10 -6 -13 -4 -9 7 9 22 -19 18 -39 -6z"/>
<path d="M4503 48838 c1 -7 -4 -12 -11 -10 -8 1 -11 -2 -7 -8 5 -8 11 -8 21 1
7 6 11 15 8 20 -8 13 -14 11 -11 -3z"/>
<path d="M4565 48840 c6 -9 -8 -14 -28 -11 -5 1 -6 -3 -2 -9 4 -7 12 -7 24 0
10 5 22 6 27 2 5 -4 2 1 -5 11 -14 18 -26 24 -16 7z"/>
<path d="M5985 48841 c6 -11 4 -13 -8 -8 -9 3 -19 2 -22 -4 -4 -5 -11 -6 -17
-3 -7 4 -8 2 -4 -5 4 -6 11 -9 16 -6 4 3 11 -1 13 -7 4 -10 6 -10 6 0 1 6 6
12 12 12 5 0 7 -5 3 -12 -4 -6 -3 -8 4 -5 12 8 10 32 -3 44 -4 5 -5 2 0 -6z"/>
<path d="M7043 48825 c0 -8 4 -12 9 -9 5 3 6 10 3 15 -9 13 -12 11 -12 -6z"/>
<path d="M3469 48815 c-1 -3 -2 -8 -3 -12 -1 -5 -5 -15 -11 -23 -7 -12 -6 -13
6 -3 12 10 18 10 29 0 8 -6 7 -3 -3 9 -9 11 -14 24 -10 27 3 4 3 7 0 7 -4 0
-8 -2 -8 -5z"/>
<path d="M3506 48807 c3 -10 9 -15 12 -12 3 3 0 11 -7 18 -10 9 -11 8 -5 -6z"/>
<path d="M4383 48805 c0 -8 4 -12 9 -9 5 3 6 10 3 15 -9 13 -12 11 -12 -6z"/>
<path d="M4448 48799 c-10 -10 -13 -21 -8 -24 5 -3 11 -1 15 4 3 6 11 9 18 7
7 -1 9 -1 4 1 -4 3 -5 9 -2 13 11 17 -11 16 -27 -1z"/>
<path d="M4357 48787 c-3 -8 1 -14 8 -14 7 0 11 6 8 14 -3 7 -6 13 -8 13 -2 0
-5 -6 -8 -13z"/>
<path d="M4503 48780 c-1 -11 2 -20 7 -20 4 0 7 7 6 15 -3 23 -12 26 -13 5z"/>
<path d="M7050 48785 c0 -2 6 -8 13 -14 10 -8 14 -7 14 2 0 8 -6 14 -14 14 -7
0 -13 -1 -13 -2z"/>
<path d="M6128 48773 c-10 -2 -18 -9 -18 -14 0 -6 7 -6 18 -1 9 5 24 12 32 15
13 5 13 5 0 5 -8 0 -23 -2 -32 -5z"/>
<path d="M4412 48754 c-7 -8 -8 -14 -3 -14 10 0 25 19 20 25 -2 1 -10 -3 -17
-11z"/>
<path d="M6016 48759 c2 -5 12 -5 21 -2 12 5 14 3 8 -8 -8 -12 -6 -12 8 0 22
17 22 17 -12 17 -17 0 -28 -3 -25 -7z"/>
<path d="M6085 48759 c-4 -6 -5 -12 -2 -15 2 -3 7 2 10 11 7 17 1 20 -8 4z"/>
<path d="M3686 48748 c3 -5 10 -6 15 -3 13 9 11 12 -6 12 -8 0 -12 -4 -9 -9z"/>
<path d="M6834 48753 c4 -4 16 -8 28 -10 28 -4 18 6 -12 12 -12 2 -20 1 -16
-2z"/>
<path d="M4947 48731 c-11 -14 -10 -14 5 -2 15 11 19 11 24 -3 3 -9 10 -16 15
-16 4 0 5 8 2 18 -6 15 -5 15 10 3 11 -9 17 -10 17 -2 0 6 -3 11 -7 12 -5 0
-18 2 -31 3 -12 2 -28 -4 -35 -13z"/>
<path d="M6146 48735 c-3 -8 -1 -15 4 -15 6 0 10 7 10 15 0 8 -2 15 -4 15 -2
0 -6 -7 -10 -15z"/>
<path d="M7064 48735 c-4 -8 -10 -13 -14 -10 -11 7 -6 -22 5 -32 4 -5 5 -2 0
6 -6 11 -4 13 7 8 11 -4 15 0 13 11 -1 9 3 20 9 24 8 5 7 8 -2 8 -7 0 -15 -7
-18 -15z"/>
<path d="M4276 48718 c-14 -16 -15 -20 -3 -15 8 3 18 2 23 -3 5 -5 10 2 10 16
2 30 -6 30 -30 2z"/>
<path d="M4915 48730 c-4 -6 -10 -8 -14 -6 -4 3 -13 1 -21 -5 -11 -6 -12 -9
-2 -9 8 0 10 -5 6 -12 -4 -7 5 -2 19 11 15 14 27 26 27 28 0 7 -9 3 -15 -7z"/>
<path d="M6110 48725 c7 -9 15 -13 17 -11 7 7 -7 26 -19 26 -6 0 -6 -6 2 -15z"/>
<path d="M3415 48710 c-3 -6 1 -7 9 -4 18 7 21 14 7 14 -6 0 -13 -4 -16 -10z"/>
<path d="M5582 48701 c4 -13 18 -16 19 -4 0 4 -5 9 -11 12 -7 2 -11 -2 -8 -8z"/>
<path d="M6140 48700 c-9 -6 -10 -10 -3 -10 6 0 15 5 18 10 8 12 4 12 -15 0z"/>
<path d="M4906 48691 c-6 -10 6 -15 27 -12 4 0 7 -4 7 -10 0 -6 7 -9 15 -5 12
4 14 0 11 -20 -4 -20 -2 -23 8 -15 7 6 16 8 19 4 4 -3 7 -1 7 6 0 8 -7 11 -17
7 -15 -5 -15 -4 1 9 17 13 18 15 3 15 -9 0 -17 6 -17 13 0 9 -3 8 -9 -2 -7
-11 -11 -10 -20 5 -8 14 -11 15 -11 4 0 -12 -2 -13 -9 -1 -6 9 -11 10 -15 2z"/>
<path d="M5532 48675 c-10 -22 -15 -24 -34 -15 -21 10 -21 9 2 -9 25 -20 32
-20 36 2 1 7 5 20 9 30 11 27 0 20 -13 -8z"/>
<path d="M3610 48675 c-6 -8 -10 -19 -8 -24 1 -6 8 1 15 14 13 28 11 31 -7 10z"/>
<path d="M3637 48677 c-3 -8 1 -14 8 -14 7 0 11 6 8 14 -3 7 -6 13 -8 13 -2 0
-5 -6 -8 -13z"/>
<path d="M5006 48679 c2 -4 14 -5 26 -1 16 4 19 2 13 -8 -5 -9 -4 -11 4 -6 18
11 3 26 -24 24 -13 -1 -22 -5 -19 -9z"/>
<path d="M5073 48662 c-1 -22 0 -24 9 -8 6 10 6 22 2 26 -5 5 -10 -3 -11 -18z"/>
<path d="M5150 48683 c0 -6 -9 -10 -20 -9 -21 1 -24 -17 -3 -20 15 -3 38 24
29 33 -3 3 -6 2 -6 -4z"/>
<path d="M5304 48678 c-3 -5 -10 -5 -16 -2 -7 4 -8 2 -4 -5 6 -8 12 -9 20 -2
7 6 15 8 18 5 3 -3 8 -1 12 4 3 5 -2 9 -10 9 -8 0 -17 -4 -20 -9z"/>
<path d="M5351 48676 c-9 -11 -9 -16 1 -22 7 -4 10 -4 6 1 -4 4 -3 14 3 22 6
7 9 13 6 13 -2 0 -10 -6 -16 -14z"/>
<path d="M5403 48675 c0 -8 7 -11 15 -7 11 4 13 1 7 -7 -6 -10 -3 -11 14 -1
12 6 19 15 16 19 -8 14 -52 10 -52 -4z"/>
<path d="M6913 48674 c0 -10 4 -11 14 -3 17 14 17 -2 1 -21 -11 -12 -10 -12 3
-2 9 6 19 8 24 4 4 -4 3 2 -2 12 -13 23 -40 30 -40 10z"/>
<path d="M3403 48666 c0 -7 6 -13 14 -13 7 0 13 4 13 8 0 4 -6 9 -13 12 -8 3
-14 0 -14 -7z"/>
<path d="M4350 48670 c0 -7 -6 -10 -13 -7 -8 3 -14 -3 -14 -14 -2 -23 15 -25
23 -4 4 8 10 12 15 9 5 -3 9 -1 9 5 0 5 -4 13 -10 16 -5 3 -10 1 -10 -5z"/>
<path d="M5170 48660 c-9 -6 -10 -10 -3 -10 6 0 15 5 18 10 8 12 4 12 -15 0z"/>
<path d="M5574 48655 c1 -8 6 -18 11 -22 4 -4 5 -3 2 4 -4 6 -2 13 5 15 8 3 6
6 -4 10 -10 4 -15 2 -14 -7z"/>
<path d="M4220 48640 c6 -11 13 -20 16 -20 2 0 0 9 -6 20 -6 11 -13 20 -16 20
-2 0 0 -9 6 -20z"/>
<path d="M4914 48640 c1 -8 -5 -21 -14 -29 -11 -10 -8 -9 9 1 14 8 27 21 29
29 3 12 2 12 -6 0 -9 -12 -11 -12 -14 0 -4 11 -5 10 -4 -1z"/>
<path d="M5460 48650 c0 -5 5 -10 11 -10 5 0 7 5 4 10 -3 6 -8 10 -11 10 -2 0
-4 -4 -4 -10z"/>
<path d="M5769 48658 c-7 -26 -4 -37 14 -42 19 -5 19 -6 4 -30 -11 -16 -13
-27 -7 -31 6 -4 9 -2 8 3 -2 6 2 10 7 11 6 1 10 -3 10 -8 0 -5 4 -13 9 -18 5
-5 6 -3 2 5 -4 6 -3 12 3 12 6 0 8 7 5 15 -4 8 -10 12 -15 9 -15 -9 -10 14 7
30 9 9 11 16 4 16 -6 0 -8 5 -4 11 4 8 0 8 -15 0 -19 -11 -25 -8 -22 12 1 6
-8 11 -10 5z"/>
<path d="M6190 48650 c0 -5 5 -10 11 -10 5 0 7 5 4 10 -3 6 -8 10 -11 10 -2 0
-4 -4 -4 -10z"/>
<path d="M4681 48641 c-8 -5 -16 -17 -17 -27 -2 -9 -6 -20 -11 -23 -4 -3 -9
-13 -11 -21 -2 -8 9 -1 25 14 21 22 24 30 14 34 -10 3 -7 8 10 18 13 7 20 13
14 13 -5 1 -16 -3 -24 -8z"/>
<path d="M3385 48631 c-6 -11 13 -26 22 -17 4 3 0 6 -8 6 -11 0 -11 2 1 10 9
6 10 10 3 10 -6 0 -14 -4 -18 -9z"/>
<path d="M4184 48622 c4 -3 14 -7 22 -8 9 -1 13 0 10 4 -4 3 -14 7 -22 8 -9 1
-13 0 -10 -4z"/>
<path d="M4705 48619 c-4 -6 -5 -12 -2 -15 2 -3 7 2 10 11 7 17 1 20 -8 4z"/>
<path d="M5930 48618 c-13 -49 12 -70 47 -41 17 13 16 13 -5 3 -17 -8 -23 -8
-26 2 -11 36 -15 42 -16 36z"/>
<path d="M7130 48615 c0 -2 6 -8 13 -14 10 -8 14 -7 14 2 0 8 -6 14 -14 14 -7
0 -13 -1 -13 -2z"/>
<path d="M3583 48603 c4 -6 2 -13 -5 -15 -8 -3 -6 -7 5 -11 23 -9 30 8 10 24
-9 8 -14 9 -10 2z"/>
<path d="M4270 48601 c0 -7 -4 -9 -10 -6 -6 4 -7 -1 -3 -11 6 -15 7 -15 15 1
6 9 7 19 4 22 -3 4 -6 1 -6 -6z"/>
<path d="M4765 48599 c-8 -12 0 -22 20 -25 8 -1 13 2 9 7 -3 5 -10 7 -15 4 -5
-4 -9 -2 -9 4 0 5 6 12 13 14 9 4 9 6 0 6 -6 1 -15 -4 -18 -10z"/>
<path d="M4806 48598 c3 -5 10 -6 15 -3 13 9 11 12 -6 12 -8 0 -12 -4 -9 -9z"/>
<path d="M5687 48603 c-13 -20 14 -26 31 -7 16 17 16 17 0 6 -13 -10 -17 -10
-20 0 -3 9 -6 9 -11 1z"/>
<path d="M3525 48589 c-4 -6 -5 -12 -2 -15 2 -3 7 2 10 11 7 17 1 20 -8 4z"/>
<path d="M7124 48579 c-4 -7 -3 -10 2 -6 5 3 18 -1 29 -9 13 -10 15 -14 4 -14
-12 0 -12 -2 1 -9 21 -14 31 -3 18 19 -7 11 -14 17 -17 15 -2 -3 -10 0 -17 6
-8 7 -14 6 -20 -2z"/>
<path d="M4131 48564 c-16 -12 -20 -19 -12 -27 7 -7 7 -15 -2 -26 -8 -10 -8
-12 -1 -8 16 9 25 -18 11 -32 -6 -6 -9 -13 -6 -15 2 -2 13 8 23 22 11 14 14
22 7 18 -8 -5 -10 0 -7 18 3 15 1 24 -4 21 -5 -3 -11 -1 -15 5 -3 5 0 10 8 10
8 0 17 7 21 15 7 19 6 19 -23 -1z"/>
<path d="M4545 48573 c3 -3 -2 -11 -11 -17 -13 -10 -13 -12 4 -12 19 0 24 19
9 31 -4 3 -5 2 -2 -2z"/>
<path d="M4737 48569 c7 -7 15 -10 18 -7 3 3 -2 9 -12 12 -14 6 -15 5 -6 -5z"/>
<path d="M3345 48560 c-3 -5 -4 -10 0 -10 3 0 0 -10 -6 -22 -8 -17 -8 -20 0
-12 6 6 13 20 16 32 4 23 0 28 -10 12z"/>
<path d="M4687 48563 c-11 -10 -8 -20 6 -20 8 0 14 6 14 14 0 14 -10 17 -20 6z"/>
<path d="M5977 48559 c-9 -6 -15 -15 -11 -20 3 -6 -1 -18 -10 -28 -15 -16 -15
-20 -1 -31 8 -7 12 -17 8 -24 -4 -6 1 -5 10 3 14 11 17 11 18 0 1 -8 1 -18 0
-22 -1 -5 3 -6 8 -3 5 4 14 -2 20 -11 9 -16 11 -14 11 15 0 4 -4 7 -10 7 -10
0 -39 35 -40 48 0 5 5 5 12 1 7 -5 8 -3 3 6 -6 10 -11 10 -20 -3 -7 -9 -15
-14 -18 -10 -10 9 13 33 32 34 10 0 11 2 4 6 -9 3 -10 10 -3 24 12 22 11 22
-13 8z"/>
<path d="M6340 48563 c0 -13 29 -38 35 -31 3 3 -4 13 -15 23 -11 10 -20 13
-20 8z"/>
<path d="M3530 48557 c0 -2 6 -10 14 -16 11 -9 16 -9 22 1 4 7 4 10 -1 6 -4
-4 -14 -3 -22 3 -7 6 -13 9 -13 6z"/>
<path d="M6014 48542 c4 -3 14 -7 22 -8 9 -1 13 0 10 4 -4 3 -14 7 -22 8 -9 1
-13 0 -10 -4z"/>
<path d="M4447 48522 c-14 -15 -15 -21 -4 -36 12 -16 13 -15 13 11 -1 18 4 27
12 25 8 -1 11 2 7 8 -8 13 -9 13 -28 -8z"/>
<path d="M4180 48517 c0 -4 -5 -5 -11 -1 -8 5 -8 1 0 -14 16 -31 31 -36 47
-18 8 9 9 11 2 6 -21 -17 -32 -11 -15 8 22 24 21 31 -3 29 -11 -1 -20 -5 -20
-10z m20 -12 c-7 -9 -15 -13 -19 -10 -3 3 1 10 9 15 21 14 24 12 10 -5z"/>
<path d="M4578 48518 c8 -10 20 -14 29 -11 11 5 14 3 8 -6 -6 -10 -3 -11 14
-2 28 16 27 27 -4 27 -14 0 -25 -4 -25 -9 0 -5 -8 -3 -17 4 -16 13 -17 12 -5
-3z"/>
<path d="M5885 48520 c-2 -3 0 -12 4 -19 6 -9 10 -10 15 -2 4 6 11 9 16 6 4
-3 13 1 18 8 9 10 4 13 -19 12 -17 0 -32 -2 -34 -5z"/>
<path d="M6400 48500 c0 -5 5 -10 10 -10 6 0 10 5 10 10 0 6 -4 10 -10 10 -5
0 -10 -4 -10 -10z"/>
<path d="M3324 48488 c-4 -6 -3 -8 3 -5 12 8 22 -12 16 -30 -2 -7 -10 -10 -18
-7 -20 8 -27 -12 -10 -26 11 -9 12 -16 5 -26 -9 -9 -7 -12 7 -9 10 2 22 4 28
4 5 1 -1 8 -13 17 -12 8 -22 20 -22 26 0 6 10 3 22 -8 14 -12 18 -13 10 -3 -6
9 -9 18 -7 21 3 3 7 15 10 26 4 22 -20 38 -31 20z"/>
<path d="M4091 48493 c-1 -17 16 -25 25 -12 4 7 3 9 -4 5 -5 -3 -13 0 -15 6
-4 9 -6 10 -6 1z"/>
<path d="M4397 48480 c-16 -19 -16 -20 3 -17 23 4 39 17 21 17 -7 0 -9 5 -6
10 10 17 0 11 -18 -10z"/>
<path d="M4569 48498 c-9 -30 -6 -37 12 -28 23 13 25 22 2 13 -11 -4 -14 -3
-9 5 4 7 5 12 2 12 -3 0 -6 -1 -7 -2z"/>
<path d="M6083 48483 c0 -7 4 -10 9 -7 4 3 8 0 8 -5 0 -6 8 -11 18 -11 13 0
14 2 3 9 -7 5 -11 13 -8 18 3 5 -2 9 -12 9 -10 0 -18 -6 -18 -13z"/>
<path d="M6414 48469 c-3 -5 -2 -9 3 -8 4 1 10 0 13 -1 3 -1 13 -3 24 -5 14
-3 16 -1 7 8 -14 14 -39 18 -47 6z"/>
<path d="M4087 48459 c7 -7 15 -10 18 -7 3 3 -2 9 -12 12 -14 6 -15 5 -6 -5z"/>
<path d="M4469 48465 c-1 -3 -3 -9 -4 -15 -1 -5 -3 -15 -4 -21 0 -5 -6 -7 -13
-3 -7 5 -8 3 -3 -5 9 -16 24 -2 30 27 3 18 -2 33 -6 17z"/>
<path d="M3466 48435 c-3 -8 -2 -14 2 -14 21 4 32 -2 26 -13 -4 -7 2 -4 14 6
12 11 22 24 22 29 0 6 -6 3 -13 -7 -12 -17 -15 -17 -29 -2 -14 13 -17 13 -22
1z"/>
<path d="M4160 48432 c0 -12 3 -12 15 -2 8 7 15 13 15 15 0 1 -7 2 -15 2 -8 0
-15 -7 -15 -15z"/>
<path d="M4405 48439 c7 -10 -20 -30 -29 -22 -4 4 -4 -1 0 -12 6 -14 4 -17 -8
-13 -8 4 -15 1 -15 -7 0 -10 5 -11 19 -4 10 5 18 15 18 21 0 6 10 2 23 -10
l23 -22 1 23 c0 12 -1 16 -4 9 -3 -6 -9 -10 -14 -6 -5 3 -6 11 -2 17 13 20 11
34 -3 34 -7 0 -11 -4 -9 -8z"/>
<path d="M4526 48438 c3 -5 10 -6 15 -3 13 9 11 12 -6 12 -8 0 -12 -4 -9 -9z"/>
<path d="M7205 48439 c-4 -6 -4 -13 -1 -16 3 -4 6 -1 6 6 0 7 5 9 12 5 7 -4 8
-3 4 4 -9 15 -13 15 -21 1z"/>
<path d="M6175 48433 c3 -7 2 -21 -4 -31 -14 -27 0 -43 21 -23 16 15 15 18 -4
41 -11 14 -17 19 -13 13z m19 -32 c3 -5 -1 -11 -9 -14 -9 -4 -12 -1 -8 9 6 16
10 17 17 5z"/>
<path d="M4020 48401 c-6 -12 -9 -21 -8 -22 27 -7 34 -4 33 12 -2 29 -12 33
-25 10z"/>
<path d="M6215 48380 c-4 -12 -11 -17 -18 -13 -7 3 1 -6 16 -22 22 -22 30 -26
40 -16 9 10 8 11 -7 5 -13 -5 -17 -4 -12 4 4 7 2 12 -3 12 -15 0 -14 27 1 32
9 3 9 6 1 11 -7 4 -14 -1 -18 -13z"/>
<path d="M4297 48379 c7 -7 15 -10 18 -7 3 3 -2 9 -12 12 -14 6 -15 5 -6 -5z"/>
<path d="M7216 48382 c-3 -5 1 -9 9 -9 8 0 12 4 9 9 -3 4 -7 8 -9 8 -2 0 -6
-4 -9 -8z"/>
<path d="M4384 48365 c-10 -8 -14 -15 -7 -15 6 0 15 5 18 10 4 6 11 7 17 4 7
-4 8 -2 4 4 -9 15 -8 15 -32 -3z"/>
<path d="M7090 48349 c5 -9 6 -20 2 -24 -4 -5 -2 -5 5 -1 6 3 13 -1 16 -11 2
-10 4 -1 3 19 -1 27 -5 36 -18 35 -12 -1 -14 -5 -8 -18z"/>
<path d="M3465 48351 c-3 -5 -1 -12 5 -16 5 -3 10 1 10 9 0 18 -6 21 -15 7z"/>
<path d="M4083 48337 c0 -13 5 -24 13 -24 10 0 10 5 2 21 -15 29 -15 30 -15 3z"/>
<path d="M6426 48353 c-2 -3 -2 -12 1 -21 5 -11 3 -13 -7 -7 -8 5 -11 4 -6 -3
3 -6 15 -9 26 -7 23 4 24 1 10 -26 -8 -14 -8 -19 2 -17 6 2 12 -2 13 -9 0 -6
3 -14 7 -18 3 -4 5 0 4 9 -1 8 -5 19 -9 22 -13 13 -7 25 9 22 10 -2 19 3 22
10 2 9 -3 12 -14 10 -13 -2 -19 3 -19 16 0 18 -27 31 -39 19z m27 -20 c-3 -7
-6 -13 -8 -13 -2 0 -5 6 -8 13 -3 8 1 14 8 14 7 0 11 -6 8 -14z"/>
<path d="M6491 48351 c-8 -5 -9 -11 -3 -15 5 -3 12 1 16 9 6 17 6 18 -13 6z"/>
<path d="M7209 48356 c-6 -7 -5 -37 2 -42 5 -3 4 -14 -2 -26 -6 -11 -7 -18 -2
-15 5 3 22 -1 38 -9 24 -13 26 -12 15 1 -7 8 -19 15 -26 15 -8 0 -14 4 -14 9
0 6 8 8 18 6 10 -2 19 3 19 10 0 7 -8 10 -18 8 -17 -5 -21 11 -7 33 5 8 -16
17 -23 10z"/>
<path d="M34842 48349 c-20 -6 -40 -22 -52 -42 -19 -31 -20 -58 -20 -1217 0
-1304 -4 -1212 60 -1245 26 -13 400 -15 3145 -15 2920 0 3119 1 3146 17 63 37
60 -35 57 1262 l-3 1179 -24 26 c-14 14 -41 30 -60 36 -48 13 -6203 12 -6249
-1z m3218 -152 l-95 -52 1185 -3 1185 -3 112 56 112 55 255 0 256 0 0 -309 0
-310 -50 -28 -50 -28 0 -657 0 -658 -1171 0 -1170 0 -85 -50 -85 -50 -652 0
-652 0 75 50 75 50 -1162 0 -1163 0 0 130 c0 84 -4 130 -11 130 -5 0 -27 -11
-47 -25 -20 -14 -40 -25 -44 -25 -5 0 -8 145 -8 323 l0 323 53 30 52 30 3 482
2 482 873 0 872 0 100 54 100 54 615 1 615 1 -95 -53z m-81 -2153 c2 -2 -674
-4 -1503 -4 -1076 0 -1505 3 -1501 11 5 7 436 9 1504 3 823 -3 1498 -8 1500
-10z"/>
<path d="M4334 48325 c-18 -15 -18 -15 0 -8 14 5 17 3 11 -7 -6 -10 -4 -11 6
-4 8 4 20 9 27 10 8 2 17 6 20 10 4 4 -1 4 -10 1 -10 -4 -18 -2 -18 3 0 14
-13 12 -36 -5z"/>
<path d="M3444 48295 c0 -18 4 -31 9 -28 4 3 6 8 3 11 -3 3 -1 11 4 17 7 9 6
16 -3 23 -10 9 -13 4 -13 -23z"/>
<path d="M6173 48317 c0 -8 6 -14 14 -14 15 0 12 19 -3 24 -6 2 -11 -3 -11
-10z"/>
<path d="M3986 48313 c2 -3 -7 -14 -19 -25 -12 -11 -16 -16 -8 -12 10 5 13 3
9 -8 -4 -8 -2 -21 3 -29 7 -11 9 -11 9 -1 0 8 5 10 13 6 6 -4 9 -4 5 1 -4 4 1
15 10 24 10 9 12 12 5 8 -6 -5 -17 -6 -24 -2 -8 6 -7 10 2 16 10 6 11 11 3 17
-6 5 -10 7 -8 5z"/>
<path d="M6276 48302 c-3 -5 1 -9 9 -9 8 0 12 4 9 9 -3 4 -7 8 -9 8 -2 0 -6
-4 -9 -8z"/>
<path d="M4282 48265 c-12 -14 -17 -25 -12 -25 19 0 25 5 22 17 -2 7 3 10 11
7 8 -3 20 3 27 13 12 15 12 16 0 6 -17 -15 -34 -17 -25 -3 11 18 -1 10 -23
-15z"/>
<path d="M4024 48258 l-19 -23 23 19 c12 11 22 21 22 23 0 8 -8 2 -26 -19z"/>
<path d="M4186 48261 c-4 -5 -2 -12 3 -15 5 -4 12 -2 15 3 4 5 2 12 -3 15 -5
4 -12 2 -15 -3z"/>
<path d="M7209 48257 c-1 -1 -3 -11 -4 -22 -2 -22 29 -33 41 -14 3 5 2 9 -3 8
-18 -3 -33 2 -33 10 0 6 10 8 21 6 12 -3 19 -1 15 2 -6 6 -34 13 -37 10z"/>
<path d="M4210 48235 c-5 -6 -5 -16 2 -25 8 -13 9 -12 5 2 -8 22 2 29 24 17
14 -7 17 -6 13 4 -6 17 -31 18 -44 2z"/>
<path d="M7263 48225 c0 -8 4 -12 9 -9 5 3 6 10 3 15 -9 13 -12 11 -12 -6z"/>
<path d="M3939 48225 c-1 -3 -2 -8 -3 -12 -1 -5 -6 -15 -11 -23 -15 -24 -14
-39 2 -33 10 4 11 8 3 13 -8 5 -7 10 4 19 8 7 19 10 25 7 5 -3 12 1 15 10 5
12 1 14 -15 9 -15 -5 -19 -4 -15 4 4 6 5 11 2 11 -3 0 -7 -2 -7 -5z"/>
<path d="M6496 48198 c3 -5 10 -6 15 -3 13 9 11 12 -6 12 -8 0 -12 -4 -9 -9z"/>
<path d="M6536 48201 c-4 -5 -2 -12 3 -15 5 -4 12 -2 15 3 4 5 2 12 -3 15 -5
4 -12 2 -15 -3z"/>
<path d="M3986 48192 c5 -4 12 -11 15 -15 3 -5 9 -2 12 5 3 9 -3 14 -15 15
-11 1 -16 -1 -12 -5z"/>
<path d="M6406 48191 c-4 -5 -2 -12 3 -15 5 -4 12 -2 15 3 4 5 2 12 -3 15 -5
4 -12 2 -15 -3z"/>
<path d="M4201 48168 c-7 -11 -10 -23 -7 -26 3 -3 6 0 6 7 0 7 5 9 12 5 6 -4
8 -3 4 4 -3 5 -1 12 6 14 7 3 8 7 2 11 -5 3 -16 -3 -23 -15z"/>
<path d="M3369 48163 c-12 -16 -12 -17 2 -6 12 10 18 10 29 0 12 -10 12 -9 1
6 -7 9 -15 17 -16 17 -1 0 -9 -8 -16 -17z"/>
<path d="M3256 48142 c5 -23 3 -24 -13 -12 -15 12 -16 12 -6 0 10 -10 10 -17
1 -27 -6 -8 -7 -13 -2 -12 22 4 35 -2 28 -13 -4 -7 -3 -9 1 -5 17 15 14 36 -3
29 -15 -5 -15 -4 -3 11 8 10 11 20 8 24 -4 3 -2 11 3 18 7 8 5 12 -4 12 -10 0
-13 -8 -10 -25z"/>
<path d="M3965 48160 c-3 -5 -1 -10 4 -10 6 0 11 5 11 10 0 6 -2 10 -4 10 -3
0 -8 -4 -11 -10z"/>
<path d="M6545 48161 c-3 -5 -2 -12 3 -15 5 -3 9 1 9 9 0 17 -3 19 -12 6z"/>
<path d="M3383 48135 c0 -8 4 -12 9 -9 5 3 6 10 3 15 -9 13 -12 11 -12 -6z"/>
<path d="M4105 48139 c-3 -4 2 -6 10 -5 21 3 28 13 10 13 -9 0 -18 -4 -20 -8z"/>
<path d="M6333 48115 c0 -8 4 -12 9 -9 5 3 6 10 3 15 -9 13 -12 11 -12 -6z"/>
<path d="M6585 48120 c-3 -6 1 -7 9 -4 9 3 16 1 16 -5 0 -6 5 -11 11 -11 8 0
8 5 -1 15 -14 17 -26 19 -35 5z"/>
<path d="M7286 48117 c3 -10 9 -15 12 -12 3 3 0 11 -7 18 -10 9 -11 8 -5 -6z"/>
<path d="M6355 48100 c-4 -6 -2 -17 4 -24 6 -7 9 -15 6 -18 -3 -3 3 -11 12
-19 16 -13 17 -12 5 3 -8 10 -9 19 -3 22 5 3 12 0 15 -6 4 -10 2 15 -3 41 -1
2 -9 -3 -18 -10 -15 -12 -16 -12 -10 4 7 19 2 23 -8 7z"/>
<path d="M3373 48081 c0 -11 5 -18 9 -15 4 3 5 11 1 19 -7 21 -12 19 -10 -4z"/>
<path d="M6515 48090 c-3 -5 -3 -14 0 -20 3 -5 2 -10 -4 -10 -5 0 -11 5 -13
10 -2 6 -9 1 -16 -11 -11 -17 -11 -20 0 -13 7 5 20 7 29 6 10 -2 19 6 22 18 6
22 -8 37 -18 20z"/>
<path d="M3897 48073 c5 -12 3 -14 -8 -8 -11 7 -12 6 -2 -7 7 -8 10 -18 6 -22
-4 -4 1 -4 12 0 10 4 14 9 8 11 -6 2 -9 13 -6 23 3 11 0 20 -6 20 -6 0 -8 -7
-4 -17z"/>
<path d="M6562 48081 c-10 -6 -9 -11 3 -21 11 -9 19 -10 26 -3 13 13 -12 35
-29 24z m23 -11 c3 -5 1 -10 -4 -10 -6 0 -11 5 -11 10 0 6 2 10 4 10 3 0 8 -4
11 -10z"/>
<path d="M3234 48072 c3 -5 1 -12 -6 -14 -8 -3 -9 -6 -1 -11 6 -4 13 0 17 8 3
8 0 17 -6 21 -6 4 -8 3 -4 -4z"/>
<path d="M4083 48035 c0 -8 4 -12 9 -9 4 3 8 9 8 15 0 5 -4 9 -8 9 -5 0 -9 -7
-9 -15z"/>
<path d="M4107 48031 c-6 -25 10 -38 26 -22 8 8 7 15 -5 27 -14 14 -16 14 -21
-5z"/>
<path d="M6413 48034 c0 -9 4 -11 10 -5 12 12 46 -20 36 -35 -5 -6 -3 -11 5
-11 18 0 15 20 -8 43 -23 23 -43 26 -43 8z"/>
<path d="M3220 48021 c0 -6 4 -13 10 -16 6 -3 7 1 4 9 -7 18 -14 21 -14 7z"/>
<path d="M3867 48013 c-2 -5 -3 -17 -1 -28 1 -10 0 -24 -4 -30 -4 -6 1 -2 11
8 10 12 17 14 17 6 0 -7 3 -9 7 -6 3 4 -2 15 -11 26 -13 15 -14 20 -4 24 9 4
9 6 1 6 -6 1 -14 -2 -16 -6z"/>
<path d="M4086 47996 c3 -9 13 -16 22 -16 8 0 13 1 11 3 -2 1 -12 9 -22 16
-15 12 -17 12 -11 -3z"/>
<path d="M6410 48006 c0 -2 8 -10 18 -17 15 -13 16 -12 3 4 -13 16 -21 21 -21
13z"/>
<path d="M7285 48000 c-3 -5 -1 -10 4 -10 6 0 11 5 11 10 0 6 -2 10 -4 10 -3
0 -8 -4 -11 -10z"/>
<path d="M3363 47985 c0 -8 4 -12 9 -9 5 3 6 10 3 15 -9 13 -12 11 -12 -6z"/>
<path d="M3228 47978 c-9 -5 -6 -7 9 -5 12 2 25 6 28 8 8 9 -23 6 -37 -3z"/>
<path d="M6410 47975 c7 -8 19 -15 27 -15 8 0 12 -4 8 -9 -7 -13 8 -21 23 -12
8 5 -2 15 -29 29 -28 15 -38 17 -29 7z"/>
<path d="M3265 47961 c-3 -5 -2 -12 3 -15 5 -3 9 1 9 9 0 17 -3 19 -12 6z"/>
<path d="M3219 47958 c-7 -31 -7 -48 0 -44 5 3 11 0 14 -8 7 -18 42 -14 42 5
0 8 -9 13 -23 13 -16 -1 -21 3 -18 12 3 7 1 16 -4 19 -6 4 -10 5 -11 3z"/>
<path d="M7300 47925 c-7 -9 -11 -17 -9 -20 3 -2 10 5 17 15 14 24 10 26 -8 5z"/>
<path d="M3890 47925 c0 -5 5 -17 10 -25 5 -8 10 -10 10 -5 0 6 -5 17 -10 25
-5 8 -10 11 -10 5z"/>
<path d="M6465 47922 c-14 -10 -17 -39 -6 -46 5 -4 13 -1 17 5 4 8 3 9 -4 5
-16 -9 -15 7 0 22 13 13 8 25 -7 14z"/>
<path d="M6650 47895 c0 -2 6 -8 13 -14 10 -8 14 -7 14 2 0 8 -6 14 -14 14 -7
0 -13 -1 -13 -2z"/>
<path d="M3318 47883 c7 -3 16 -2 19 1 4 3 -2 6 -13 5 -11 0 -14 -3 -6 -6z"/>
<path d="M4010 47876 c14 -14 12 -29 -2 -20 -9 5 -9 2 1 -9 15 -18 26 -23 16
-7 -3 6 -1 10 5 10 6 0 8 5 4 12 -5 7 -2 9 9 5 10 -4 14 -2 11 7 -2 6 -16 12
-29 12 -17 0 -22 -3 -15 -10z"/>
<path d="M3281 47844 c0 -11 3 -14 6 -6 3 7 2 16 -1 19 -3 4 -6 -2 -5 -13z"/>
<path d="M3330 47840 c-11 -11 -20 -26 -20 -32 0 -7 6 -4 12 7 6 11 19 25 27
32 9 7 13 13 9 13 -5 0 -17 -9 -28 -20z"/>
<path d="M3286 47803 c-6 -14 -5 -15 5 -6 7 7 10 15 7 18 -3 3 -9 -2 -12 -12z"/>
<path d="M6535 47780 c-3 -6 1 -7 9 -4 18 7 21 14 7 14 -6 0 -13 -4 -16 -10z"/>
<path d="M4004 47765 c1 -8 6 -18 11 -22 4 -4 5 -3 2 4 -4 6 -2 13 5 15 8 3 6
6 -4 10 -10 4 -15 2 -14 -7z"/>
<path d="M6503 47765 c0 -8 4 -12 9 -9 5 3 6 10 3 15 -9 13 -12 11 -12 -6z"/>
<path d="M18372 47740 c-260 -68 -468 -277 -538 -540 -23 -87 -29 -419 -10
-530 68 -388 449 -668 832 -610 163 25 317 102 429 216 71 73 108 126 150 217
57 125 67 195 63 449 -4 210 -6 228 -31 303 -39 119 -91 199 -192 300 -76 77
-104 98 -185 137 -52 26 -125 54 -161 62 -92 22 -263 20 -357 -4z m241 -197
c-29 -2 -77 -2 -105 0 -29 2 -6 3 52 3 58 0 81 -1 53 -3z m-176 -9 c-3 -3 -12
-4 -19 -1 -8 3 -5 6 6 6 11 1 17 -2 13 -5z m178 -348 c97 -48 149 -134 149
-251 1 -155 -105 -270 -259 -282 -121 -10 -218 42 -272 146 -28 54 -33 73 -33
134 0 219 216 350 415 253z"/>
<path d="M20765 47744 c-33 -8 -103 -35 -155 -61 -81 -39 -108 -59 -191 -142
-83 -83 -103 -110 -142 -191 -68 -141 -77 -188 -77 -441 0 -181 3 -228 19
-291 67 -263 286 -480 546 -544 94 -23 268 -23 354 0 274 74 484 286 547 554
20 80 27 380 12 491 -38 295 -263 547 -556 622 -91 23 -267 25 -357 3z m228
-201 c-29 -2 -77 -2 -105 0 -29 2 -6 3 52 3 58 0 81 -1 53 -3z m-32 -340 c109
-35 189 -149 189 -268 0 -157 -128 -285 -285 -285 -123 0 -238 83 -271 195
-67 233 137 432 367 358z"/>
<path d="M23271 47740 c-212 -57 -384 -198 -481 -395 -67 -136 -75 -179 -75
-440 0 -213 2 -236 23 -305 43 -136 97 -226 197 -325 151 -151 312 -219 520
-218 120 0 174 10 275 50 100 40 180 96 262 182 85 88 138 176 177 289 25 75
26 84 26 332 0 254 0 255 -28 335 -42 119 -99 210 -191 300 -93 91 -163 136
-279 178 -72 26 -98 30 -217 33 -112 3 -148 1 -209 -16z m242 -197 c-29 -2
-77 -2 -105 0 -29 2 -6 3 52 3 58 0 81 -1 53 -3z m-176 -9 c-3 -3 -12 -4 -19
-1 -8 3 -5 6 6 6 11 1 17 -2 13 -5z m178 -348 c96 -48 148 -135 148 -252 0
-118 -50 -200 -157 -257 -33 -17 -58 -22 -126 -22 -76 0 -91 3 -139 30 -56 31
-106 88 -128 148 -30 83 -9 213 46 283 80 101 231 131 356 70z"/>
<path d="M25652 47740 c-254 -67 -466 -281 -533 -537 -17 -67 -20 -110 -21
-294 0 -191 2 -225 22 -295 120 -438 581 -673 995 -508 249 100 434 340 463
603 15 136 6 406 -17 494 -68 260 -280 471 -537 537 -103 27 -270 26 -372 0z
m241 -197 c-29 -2 -77 -2 -105 0 -29 2 -6 3 52 3 58 0 81 -1 53 -3z m-3 -353
c92 -46 148 -128 157 -230 16 -168 -114 -310 -282 -310 -157 0 -285 128 -285
285 0 23 7 65 16 95 21 70 98 148 169 173 67 23 165 17 225 -13z"/>
<path d="M28302 47740 c-209 -55 -386 -199 -481 -394 -67 -136 -75 -180 -75
-436 0 -203 2 -233 22 -303 140 -491 698 -707 1120 -434 123 80 216 187 277
320 57 125 67 195 63 449 -4 210 -6 228 -31 303 -39 119 -91 199 -192 300 -76
77 -104 98 -185 137 -52 26 -125 54 -161 62 -92 22 -263 20 -357 -4z m241
-197 c-29 -2 -77 -2 -105 0 -29 2 -6 3 52 3 58 0 81 -1 53 -3z m-176 -9 c-3
-3 -12 -4 -19 -1 -8 3 -5 6 6 6 11 1 17 -2 13 -5z m260 0 c-3 -3 -12 -4 -19
-1 -8 3 -5 6 6 6 11 1 17 -2 13 -5z m-82 -348 c97 -48 149 -134 149 -251 1
-117 -51 -201 -158 -258 -59 -31 -193 -31 -252 0 -59 31 -103 79 -132 142 -21
46 -24 64 -20 130 3 51 12 90 26 117 28 55 104 121 161 139 66 21 159 13 226
-19z"/>
<path d="M30695 47744 c-33 -8 -103 -35 -155 -61 -82 -39 -108 -59 -190 -142
-101 -101 -146 -173 -191 -301 -20 -58 -23 -89 -27 -298 -5 -269 4 -329 67
-458 100 -207 283 -358 496 -410 94 -23 268 -23 354 0 226 61 408 213 501 420
49 108 62 183 66 371 3 198 -7 296 -41 396 -79 232 -282 418 -523 480 -91 23
-267 25 -357 3z m228 -201 c-29 -2 -77 -2 -105 0 -29 2 -6 3 52 3 58 0 81 -1
53 -3z m-32 -340 c75 -24 152 -101 173 -173 35 -118 12 -215 -69 -297 -113
-112 -287 -112 -399 0 -65 66 -92 139 -82 228 19 190 193 301 377 242z"/>
<path d="M33201 47740 c-212 -57 -384 -198 -481 -395 -67 -134 -74 -179 -74
-435 -1 -259 6 -299 79 -446 136 -278 450 -446 754 -404 253 35 472 195 582
425 60 126 71 199 67 452 -4 225 -4 229 -35 316 -81 230 -252 398 -483 477
-96 33 -306 38 -409 10z m242 -197 c-29 -2 -77 -2 -105 0 -29 2 -6 3 52 3 58
0 81 -1 53 -3z m-176 -9 c-3 -3 -12 -4 -19 -1 -8 3 -5 6 6 6 11 1 17 -2 13 -5z
m178 -348 c96 -48 148 -135 148 -252 1 -155 -104 -269 -258 -281 -122 -10
-219 42 -272 145 -28 55 -33 74 -33 135 0 74 19 132 59 183 80 101 231 131
356 70z"/>
<path d="M3293 47709 c-1 -10 3 -19 8 -19 6 0 5 -8 -1 -21 -11 -19 -10 -20 9
-10 36 20 48 57 17 52 -4 -1 -13 3 -20 8 -8 7 -12 4 -13 -10z m36 -21 c-5 -10
-13 -18 -16 -18 -3 0 -3 3 0 7 4 3 3 11 -3 17 -6 8 -3 12 10 12 15 0 16 -4 9
-18z"/>
<path d="M6538 47646 c4 -6 7 -14 7 -18 0 -19 11 -14 11 6 0 12 -6 23 -13 23
-6 0 -9 -5 -5 -11z"/>
<path d="M3930 47620 c-12 -7 -12 -10 3 -16 19 -7 23 -25 5 -20 -7 1 -10 1 -6
-1 5 -3 3 -13 -2 -24 -9 -15 -8 -17 6 -12 12 4 15 3 10 -5 -5 -8 -2 -10 9 -5
9 3 13 9 8 12 -4 3 -8 18 -9 34 0 23 3 26 20 21 24 -7 20 -1 -10 14 -12 6 -26
7 -34 2z"/>
<path d="M3331 47584 c0 -11 3 -14 6 -6 3 7 2 16 -1 19 -3 4 -6 -2 -5 -13z"/>
<path d="M6650 47576 c0 -8 4 -17 9 -20 5 -4 7 3 4 14 -6 23 -13 26 -13 6z"/>
<path d="M3300 47566 c0 -2 7 -7 16 -10 8 -3 12 -2 9 4 -6 10 -25 14 -25 6z"/>
<path d="M3307 47523 c4 -10 2 -14 -4 -10 -5 3 -10 0 -10 -8 0 -12 3 -12 16
-2 12 10 14 9 8 -7 -6 -15 -5 -17 6 -8 8 7 16 10 19 7 2 -3 5 1 5 9 0 8 -6 12
-15 8 -9 -3 -13 -1 -9 5 4 6 0 13 -8 16 -10 4 -12 1 -8 -10z"/>
<path d="M3924 47513 c1 -7 6 -16 11 -20 4 -4 5 -2 1 5 -4 7 -1 12 9 12 10 0
13 -5 9 -12 -4 -7 -3 -9 1 -5 17 15 12 32 -10 32 -12 0 -22 -5 -21 -12z"/>
<path d="M3233 47469 c-2 -23 3 -25 10 -4 4 8 3 16 -1 19 -4 3 -9 -4 -9 -15z"/>
<path d="M3260 47481 c0 -6 4 -12 8 -15 5 -3 9 1 9 9 0 8 -4 15 -9 15 -4 0 -8
-4 -8 -9z"/>
<path d="M6600 47477 c8 -7 20 -18 26 -25 8 -10 11 -10 11 1 0 15 -17 31 -37
35 -13 2 -13 0 0 -11z"/>
<path d="M3930 47451 c0 -6 4 -13 10 -16 6 -3 7 1 4 9 -7 18 -14 21 -14 7z"/>
<path d="M6573 47437 c0 -8 6 -14 14 -14 15 0 12 19 -3 24 -6 2 -11 -3 -11
-10z"/>
<path d="M3221 47407 c-1 -21 21 -18 27 4 3 12 2 12 -6 0 -8 -11 -10 -11 -15
0 -4 10 -6 8 -6 -4z"/>
<path d="M7286 47363 c-6 -14 -5 -15 5 -6 7 7 10 15 7 18 -3 3 -9 -2 -12 -12z"/>
<path d="M3250 47348 c0 -5 -4 -7 -9 -4 -16 10 -2 -67 15 -83 9 -9 14 -10 10
-3 -4 6 -2 12 4 12 6 0 8 5 5 10 -4 6 -10 8 -15 5 -13 -8 -20 21 -7 34 6 6 7
11 2 11 -5 0 -1 6 9 13 16 12 16 14 2 14 -9 0 -16 -4 -16 -9z"/>
<path d="M6636 47337 c-5 -22 -10 -26 -20 -18 -10 8 -13 5 -12 -14 1 -13 5
-28 10 -32 4 -4 6 -3 5 2 -2 6 5 22 15 37 10 15 16 33 14 40 -3 7 -8 0 -12
-15z"/>
<path d="M7285 47331 c-3 -5 -2 -12 3 -15 5 -3 9 1 9 9 0 17 -3 19 -12 6z"/>
<path d="M3939 47293 c-13 -16 -12 -17 4 -4 9 7 17 15 17 17 0 8 -8 3 -21 -13z"/>
<path d="M6563 47275 c0 -8 4 -12 9 -9 5 3 6 10 3 15 -9 13 -12 11 -12 -6z"/>
<path d="M3943 47268 c-18 -23 -25 -43 -8 -23 9 11 21 19 26 17 6 -1 8 2 4 8
-8 13 -10 13 -22 -2z"/>
<path d="M6586 47262 c-3 -5 1 -9 9 -9 8 0 12 4 9 9 -3 4 -7 8 -9 8 -2 0 -6
-4 -9 -8z"/>
<path d="M6651 47254 c0 -11 3 -14 6 -6 3 7 2 16 -1 19 -3 4 -6 -2 -5 -13z"/>
<path d="M7176 47258 c3 -5 10 -6 15 -3 13 9 11 12 -6 12 -8 0 -12 -4 -9 -9z"/>
<path d="M3251 47233 c7 -12 15 -20 18 -17 3 2 -3 12 -13 22 -17 16 -18 16 -5
-5z"/>
<path d="M3360 47243 c0 -7 5 -15 11 -18 6 -4 8 -14 4 -24 -5 -12 -3 -13 6 -4
9 9 8 17 -5 34 -9 13 -16 18 -16 12z"/>
<path d="M7195 47240 c-3 -5 -13 -7 -23 -4 -14 5 -15 4 -2 -5 12 -9 13 -11 1
-11 -8 0 -11 -3 -8 -7 4 -3 15 2 26 11 12 11 21 13 25 7 4 -6 14 -7 23 -4 9 4
14 2 10 -3 -3 -6 4 -16 16 -24 20 -12 21 -12 7 4 -13 16 -12 20 5 32 10 8 14
14 8 14 -7 0 -15 -5 -18 -10 -4 -6 -11 -8 -16 -5 -17 11 -49 14 -54 5z"/>
<path d="M6653 47212 c-7 -4 -9 -13 -4 -21 6 -9 10 -7 14 8 3 12 4 21 4 21 -1
0 -7 -4 -14 -8z"/>
<path d="M3952 47197 c-8 -10 -5 -16 11 -27 20 -12 21 -12 9 3 -8 9 -11 21 -7
27 9 14 0 13 -13 -3z"/>
<path d="M3265 47191 c-3 -5 -1 -12 5 -16 5 -3 10 1 10 9 0 18 -6 21 -15 7z"/>
<path d="M7164 47193 c4 -4 16 -8 28 -10 28 -4 18 6 -12 12 -12 2 -20 1 -16
-2z"/>
<path d="M7224 47192 c4 -3 14 -7 22 -8 9 -1 13 0 10 4 -4 3 -14 7 -22 8 -9 1
-13 0 -10 -4z"/>
<path d="M6665 47149 c-4 -6 -5 -12 -2 -15 2 -3 7 2 10 11 7 17 1 20 -8 4z"/>
<path d="M7241 47153 c3 -20 -2 -25 -15 -14 -10 9 -13 7 -12 -9 0 -11 4 -20 9
-20 4 0 15 0 25 0 13 0 14 2 3 9 -9 6 -10 11 -2 15 14 9 14 26 1 26 -5 0 -9
-3 -9 -7z"/>
<path d="M3949 47133 c-13 -17 -13 -17 6 -3 11 8 22 16 24 17 2 2 0 3 -6 3 -6
0 -17 -8 -24 -17z"/>
<path d="M7185 47111 c-3 -5 -2 -12 3 -15 5 -3 9 1 9 9 0 17 -3 19 -12 6z"/>
<path d="M3353 47075 c0 -8 4 -12 9 -9 5 3 6 10 3 15 -9 13 -12 11 -12 -6z"/>
<path d="M3936 47081 c-4 -5 -2 -12 3 -16 6 -3 8 -13 5 -23 -5 -15 -4 -15 6
-2 10 12 11 11 6 -10 -4 -22 -4 -23 8 -8 8 11 16 14 22 8 7 -7 10 -1 10 15 0
18 -3 22 -13 14 -13 -12 -36 -3 -28 11 3 5 1 11 -4 14 -5 4 -12 2 -15 -3z"/>
<path d="M3317 47063 c3 -7 8 -13 12 -13 4 0 8 6 8 13 0 8 -6 14 -13 14 -7 0
-10 -6 -7 -14z"/>
<path d="M6645 47070 c-3 -5 -1 -10 4 -10 6 0 11 5 11 10 0 6 -2 10 -4 10 -3
0 -8 -4 -11 -10z"/>
<path d="M7204 47054 c0 -20 11 -25 11 -6 0 4 3 12 7 18 4 6 1 11 -5 11 -7 0
-13 -11 -13 -23z"/>
<path d="M3910 47054 c0 -8 5 -12 10 -9 6 4 8 11 5 16 -9 14 -15 11 -15 -7z"/>
<path d="M6543 47055 c0 -8 4 -12 9 -9 5 3 6 10 3 15 -9 13 -12 11 -12 -6z"/>
<path d="M3297 47043 c-3 -4 1 -17 9 -28 14 -19 15 -19 11 2 -4 26 -13 38 -20
26z"/>
<path d="M3385 47029 c-4 -6 -5 -12 -2 -15 2 -3 7 2 10 11 7 17 1 20 -8 4z"/>
<path d="M3330 47005 c0 -2 6 -8 13 -14 10 -8 14 -7 14 2 0 8 -6 14 -14 14 -7
0 -13 -1 -13 -2z"/>
<path d="M6531 46996 c-8 -10 -9 -16 -1 -21 6 -4 9 -1 8 7 -2 7 3 12 10 10 8
-1 11 2 7 8 -8 13 -10 13 -24 -4z"/>
<path d="M3886 46983 c-6 -14 -5 -15 5 -6 7 7 10 15 7 18 -3 3 -9 -2 -12 -12z"/>
<path d="M3320 46966 c0 -2 9 -6 20 -9 11 -3 18 -1 14 4 -5 9 -34 13 -34 5z"/>
<path d="M4014 46962 c4 -6 2 -22 -4 -34 -11 -22 -10 -22 4 -4 19 24 20 32 4
42 -7 4 -8 3 -4 -4z"/>
<path d="M6504 46938 c-4 -6 -3 -8 3 -5 11 7 37 -16 28 -25 -3 -2 2 -5 10 -5
11 0 12 4 4 14 -8 9 -8 13 0 13 6 0 11 4 11 8 0 12 -48 13 -56 0z"/>
<path d="M3445 46931 c-3 -5 -2 -12 3 -15 5 -3 9 1 9 9 0 17 -3 19 -12 6z"/>
<path d="M7176 46918 c3 -5 10 -6 15 -3 13 9 11 12 -6 12 -8 0 -12 -4 -9 -9z"/>
<path d="M6502 46911 c-11 -7 -11 -9 0 -14 9 -3 15 1 15 9 0 8 -1 14 -1 14 -1
0 -7 -4 -14 -9z"/>
<path d="M3346 46897 c3 -10 9 -15 12 -12 3 3 0 11 -7 18 -10 9 -11 8 -5 -6z"/>
<path d="M4009 46899 c-10 -49 0 -58 27 -26 10 12 15 19 10 15 -5 -4 -15 -3
-23 3 -7 6 -13 10 -14 8z m16 -18 c3 -5 2 -12 -3 -15 -5 -3 -9 1 -9 9 0 17 3
19 12 6z"/>
<path d="M6520 46880 c-13 -8 -13 -10 2 -10 9 0 20 5 23 10 8 13 -5 13 -25 0z"/>
<path d="M6549 46863 c-13 -16 -12 -17 4 -4 9 7 17 15 17 17 0 8 -8 3 -21 -13z"/>
<path d="M7144 46866 c-10 -8 -16 -18 -11 -22 4 -4 7 -2 7 5 0 7 4 10 9 7 5
-3 11 1 15 9 7 19 5 19 -20 1z"/>
<path d="M3425 46850 c-11 -5 -14 -9 -7 -9 9 -1 11 -8 7 -20 -3 -11 -2 -22 2
-24 4 -3 9 6 10 20 0 14 7 29 15 34 17 11 -1 10 -27 -1z"/>
<path d="M3376 46833 c-6 -14 -5 -15 5 -6 7 7 10 15 7 18 -3 3 -9 -2 -12 -12z"/>
<path d="M3451 46824 c0 -11 3 -14 6 -6 3 7 2 16 -1 19 -3 4 -6 -2 -5 -13z"/>
<path d="M4011 46837 c2 -1 13 -9 24 -17 19 -14 19 -14 6 3 -7 9 -18 17 -24
17 -6 0 -8 -1 -6 -3z"/>
<path d="M4056 46830 c5 -8 9 -21 10 -28 2 -8 5 -17 8 -20 4 -3 5 4 3 16 -2
12 -9 28 -17 35 -10 10 -11 9 -4 -3z"/>
<path d="M3500 46810 c0 -5 5 -10 11 -10 5 0 7 5 4 10 -3 6 -8 10 -11 10 -2 0
-4 -4 -4 -10z"/>
<path d="M3380 46806 c0 -3 9 -10 20 -16 11 -6 20 -8 20 -6 0 3 -9 10 -20 16
-11 6 -20 8 -20 6z"/>
<path d="M6444 46784 c1 -13 6 -27 10 -31 5 -5 6 -2 1 6 -6 10 -2 12 16 7 13
-3 19 -3 12 0 -7 3 -10 11 -7 18 3 8 -3 16 -14 18 -15 4 -18 0 -18 -18z"/>
<path d="M4003 46785 c0 -8 4 -15 9 -15 4 0 8 4 8 9 0 6 -4 12 -8 15 -5 3 -9
-1 -9 -9z"/>
<path d="M4043 46785 c0 -8 4 -12 9 -9 5 3 6 10 3 15 -9 13 -12 11 -12 -6z"/>
<path d="M6550 46770 c-8 -5 -12 -12 -9 -15 4 -3 12 1 19 10 14 17 11 19 -10
5z"/>
<path d="M7026 46763 c-6 -14 -5 -15 5 -6 7 7 10 15 7 18 -3 3 -9 -2 -12 -12z"/>
<path d="M6506 46757 c3 -10 9 -15 12 -12 3 3 0 11 -7 18 -10 9 -11 8 -5 -6z"/>
<path d="M7055 46759 c-4 -6 -5 -12 -2 -15 2 -3 7 2 10 11 7 17 1 20 -8 4z"/>
<path d="M3404 46752 c4 -3 14 -7 22 -8 9 -1 13 0 10 4 -4 3 -14 7 -22 8 -9 1
-13 0 -10 -4z"/>
<path d="M4092 46743 c2 -9 11 -17 21 -19 9 -1 15 2 11 7 -3 5 -10 6 -16 3 -7
-5 -9 -1 -5 9 3 10 2 17 -4 17 -6 0 -9 -7 -7 -17z"/>
<path d="M6441 46726 c-6 -7 -7 -17 -3 -21 4 -5 -2 -5 -13 -1 -15 6 -17 4 -8
-5 9 -9 17 -7 37 9 20 15 23 21 12 25 -8 3 -19 0 -25 -7z"/>
<path d="M3529 46712 c11 -20 38 -24 38 -6 0 11 -3 11 -16 1 -12 -10 -14 -9
-9 4 4 9 1 16 -8 16 -9 0 -10 -5 -5 -15z"/>
<path d="M4086 46702 c-3 -5 1 -9 9 -9 8 0 12 4 9 9 -3 4 -7 8 -9 8 -2 0 -6
-4 -9 -8z"/>
<path d="M7063 46694 c3 -4 0 -19 -8 -33 -9 -18 -10 -32 -4 -42 8 -12 10 -12
8 1 -1 8 -1 22 0 30 1 12 3 12 10 2 7 -11 9 -11 14 2 4 9 2 16 -3 16 -5 0 -7
7 -4 15 4 8 1 15 -7 15 -7 0 -10 -3 -6 -6z"/>
<path d="M3456 46681 c-3 -4 5 -7 17 -6 12 1 28 -5 35 -14 11 -14 12 -13 3 4
-9 20 -46 31 -55 16z"/>
<path d="M3570 46671 c0 -6 4 -13 10 -16 6 -3 7 1 4 9 -7 18 -14 21 -14 7z"/>
<path d="M4135 46670 c-4 -6 -11 -7 -17 -4 -7 5 -8 2 -3 -6 6 -10 3 -12 -12
-8 -16 4 -20 1 -19 -16 1 -14 8 -21 22 -22 17 -1 20 3 16 19 -4 15 -2 18 9 12
8 -5 11 -5 7 0 -4 4 -3 14 3 22 6 7 9 13 6 13 -3 0 -9 -5 -12 -10z"/>
<path d="M3454 46649 c-3 -5 -4 -9 -2 -10 35 -8 49 -7 46 3 -5 14 -36 19 -44
7z"/>
<path d="M6357 46653 c-11 -10 -8 -20 7 -26 8 -3 13 0 12 8 -3 19 -11 27 -19
18z"/>
<path d="M4176 46622 c-3 -5 1 -9 9 -9 8 0 12 4 9 9 -3 4 -7 8 -9 8 -2 0 -6
-4 -9 -8z"/>
<path d="M3578 46613 c7 -3 16 -2 19 1 4 3 -2 6 -13 5 -11 0 -14 -3 -6 -6z"/>
<path d="M6979 46608 c-5 -18 -6 -38 -1 -34 7 8 12 36 6 36 -2 0 -4 -1 -5 -2z"/>
<path d="M4169 46598 c-7 -23 -4 -35 7 -35 9 0 11 4 4 12 -5 7 -7 15 -3 18 3
4 3 7 0 7 -4 0 -7 -1 -8 -2z"/>
<path d="M6333 46583 c0 -7 5 -12 11 -10 15 5 18 24 3 24 -8 0 -14 -6 -14 -14z"/>
<path d="M3497 46579 c7 -7 15 -10 18 -7 3 3 -2 9 -12 12 -14 6 -15 5 -6 -5z"/>
<path d="M6918 46555 c-16 -21 -16 -22 7 -21 13 1 28 5 32 10 4 4 4 7 -2 6
-23 -5 -28 1 -11 13 14 10 15 14 4 14 -7 0 -21 -10 -30 -22z"/>
<path d="M4210 46562 c0 -5 7 -9 15 -9 8 0 12 4 9 9 -3 4 -9 8 -15 8 -5 0 -9
-4 -9 -8z"/>
<path d="M6299 46553 c-13 -16 -12 -17 4 -4 16 13 21 21 13 21 -2 0 -10 -8
-17 -17z"/>
<path d="M4166 46538 c3 -4 11 -5 19 -1 21 7 19 12 -4 10 -11 0 -18 -5 -15 -9z"/>
<path d="M3549 46519 c-12 -7 -12 -9 1 -10 8 -1 21 0 29 1 9 1 12 -4 7 -15 -3
-9 -2 -13 3 -10 6 3 9 13 8 23 -1 20 -25 26 -48 11z"/>
<path d="M6315 46510 c10 -11 20 -20 23 -20 3 0 -3 9 -13 20 -10 11 -20 20
-23 20 -3 0 3 -9 13 -20z"/>
<path d="M6985 46520 c-4 -6 -11 -8 -16 -5 -5 3 -6 -1 -3 -10 4 -9 7 -15 8
-13 1 2 8 11 15 21 7 9 11 17 8 17 -3 0 -9 -5 -12 -10z"/>
<path d="M4244 46500 c0 -13 4 -16 10 -10 7 7 7 13 0 20 -6 6 -10 3 -10 -10z"/>
<path d="M6282 46484 c-12 -13 -8 -18 11 -15 5 1 6 -3 2 -9 -9 -15 -31 -12
-45 5 -13 16 -30 11 -29 -8 0 -9 2 -8 6 1 3 9 12 7 31 -8 18 -15 28 -17 33 -9
4 8 10 5 18 -7 6 -11 11 -14 11 -7 0 6 -5 15 -10 18 -8 5 -8 11 0 20 16 19
-11 38 -28 19z"/>
<path d="M3572 46462 c7 -9 13 -18 14 -20 1 -2 4 4 7 12 3 8 -2 16 -14 19 -17
5 -18 3 -7 -11z"/>
<path d="M3712 46448 c7 -15 15 -23 17 -17 2 6 -4 18 -13 27 -15 15 -15 15 -4
-10z"/>
<path d="M4245 46460 c-5 -8 50 -8 59 0 2 3 -9 6 -25 6 -16 1 -31 -2 -34 -6z"/>
<path d="M3614 46421 c0 -17 3 -28 7 -25 5 2 5 12 2 22 -6 14 -4 15 9 5 12
-11 18 -9 34 10 19 22 19 22 -2 5 -18 -16 -22 -16 -35 -2 -14 13 -15 11 -15
-15z"/>
<path d="M4183 46435 c0 -6 10 -11 21 -10 12 1 24 -3 28 -9 6 -8 8 -7 8 1 0 6
-6 15 -12 19 -20 12 -45 12 -45 -1z"/>
<path d="M4323 46435 c0 -8 4 -12 9 -9 5 3 6 10 3 15 -9 13 -12 11 -12 -6z"/>
<path d="M6201 46404 c-15 -16 -18 -25 -10 -30 8 -5 9 -3 5 5 -6 8 -2 11 10 9
14 -2 18 2 16 17 -3 16 -1 18 9 8 17 -17 30 -16 23 0 -7 20 -28 17 -53 -9z"/>
<path d="M6880 46420 c0 -5 5 -12 10 -15 6 -3 10 -11 10 -16 0 -6 -4 -8 -8 -5
-5 3 -9 -1 -9 -9 0 -11 4 -12 14 -3 7 6 11 19 8 29 -5 15 -2 18 12 12 10 -3
15 -3 12 1 -10 11 -49 16 -49 6z"/>
<path d="M3665 46411 c-3 -5 -2 -12 3 -15 5 -3 9 1 9 9 0 17 -3 19 -12 6z"/>
<path d="M4346 46411 c-4 -5 -2 -12 3 -15 5 -4 12 -2 15 3 4 5 2 12 -3 15 -5
4 -12 2 -15 -3z"/>
<path d="M6275 46409 c-11 -17 1 -21 15 -4 8 9 8 15 2 15 -6 0 -14 -5 -17 -11z"/>
<path d="M3635 46390 c-3 -5 -5 -10 -3 -11 33 -8 38 -7 27 7 -14 17 -16 17
-24 4z"/>
<path d="M4376 46382 c-3 -5 1 -9 9 -9 8 0 12 4 9 9 -3 4 -7 8 -9 8 -2 0 -6
-4 -9 -8z"/>
<path d="M6130 46379 c0 -5 5 -7 10 -4 6 3 10 8 10 11 0 2 -4 4 -10 4 -5 0
-10 -5 -10 -11z"/>
<path d="M6240 46386 c0 -2 7 -9 15 -16 9 -7 15 -8 15 -2 0 5 -7 12 -15 16 -8
3 -15 4 -15 2z"/>
<path d="M6765 46379 c-3 -4 2 -6 10 -5 21 3 28 13 10 13 -9 0 -18 -4 -20 -8z"/>
<path d="M3685 46360 c-4 -6 -16 -8 -28 -4 -12 3 -19 3 -15 -1 14 -14 55 -13
55 1 0 17 -4 18 -12 4z"/>
<path d="M4273 46355 c-10 -10 -9 -14 3 -19 10 -4 13 -2 8 6 -5 8 -2 9 9 5 9
-3 19 -1 23 6 4 7 4 9 -1 5 -4 -4 -13 -4 -19 1 -7 6 -16 4 -23 -4z"/>
<path d="M6141 46356 c-7 -8 -20 -13 -30 -11 -16 3 -17 1 -2 -30 12 -23 18
-29 24 -19 4 7 15 11 25 8 14 -5 15 -4 2 5 -8 6 -11 11 -6 11 5 0 4 6 -3 13
-8 10 -7 17 1 25 7 7 9 12 6 12 -3 0 -11 -6 -17 -14z m2 -32 c-3 -15 -20 -15
-26 0 -4 9 0 13 11 12 9 -2 16 -7 15 -12z"/>
<path d="M6804 46355 c1 -8 6 -18 11 -22 4 -4 5 -2 1 5 -8 13 19 13 41 -1 7
-5 10 -1 8 10 -2 10 -4 20 -4 23 -1 2 -6 -1 -13 -8 -7 -7 -17 -8 -29 -2 -13 7
-17 6 -15 -5z"/>
<path d="M4405 46349 c-4 -6 -5 -13 -2 -16 7 -7 27 6 27 18 0 12 -17 12 -25
-2z"/>
<path d="M3714 46336 c-3 -9 -10 -13 -15 -10 -16 10 -9 -3 9 -17 9 -7 14 -9
10 -5 -4 5 0 14 9 21 11 8 13 14 4 19 -6 4 -14 0 -17 -8z"/>
<path d="M4435 46330 c-4 -6 -5 -10 -3 -11 25 -6 38 -6 38 1 0 12 -29 20 -35
10z"/>
<path d="M6044 46315 c-18 -15 -18 -15 0 -8 13 4 17 3 13 -4 -5 -7 1 -9 15 -5
14 3 19 1 14 -6 -3 -6 -2 -13 4 -17 6 -4 8 -10 5 -15 -3 -5 -1 -11 4 -14 5 -4
12 -2 15 3 4 5 2 12 -4 16 -6 4 -8 10 -5 15 3 5 1 11 -5 15 -6 4 -8 10 -5 15
3 4 -5 6 -17 2 -14 -3 -19 -2 -14 6 10 16 4 15 -20 -3z"/>
<path d="M6202 46321 c4 -13 18 -16 19 -4 0 4 -5 9 -11 12 -7 2 -11 -2 -8 -8z"/>
<path d="M4400 46316 c0 -3 9 -10 20 -16 11 -6 20 -8 20 -6 0 3 -9 10 -20 16
-11 6 -20 8 -20 6z"/>
<path d="M3736 46298 c3 -5 10 -6 15 -3 13 9 11 12 -6 12 -8 0 -12 -4 -9 -9z"/>
<path d="M6661 46278 l-22 -33 24 27 c14 15 28 24 33 20 4 -4 4 -1 0 6 -10 16
-9 17 -35 -20z"/>
<path d="M6806 46292 c-3 -5 1 -9 9 -9 8 0 12 4 9 9 -3 4 -7 8 -9 8 -2 0 -6
-4 -9 -8z"/>
<path d="M3846 46273 c-6 -14 -5 -15 5 -6 7 7 10 15 7 18 -3 3 -9 -2 -12 -12z"/>
<path d="M3737 46269 c7 -7 15 -10 18 -7 3 3 -2 9 -12 12 -14 6 -15 5 -6 -5z"/>
<path d="M6725 46270 c-6 -9 1 -14 18 -11 12 2 7 -23 -8 -43 -8 -11 -15 -16
-15 -12 0 5 -7 2 -17 -5 -20 -17 -17 -17 -36 -1 -12 10 -17 10 -23 1 -4 -8 -3
-9 4 -5 7 4 12 1 12 -10 0 -13 3 -14 15 -4 8 7 15 9 15 5 0 -4 6 -2 14 4 10 8
16 9 21 1 9 -15 25 -2 18 16 -3 9 0 14 8 12 8 -2 14 8 15 26 2 15 0 26 -3 22
-3 -3 -12 -1 -19 5 -8 7 -14 7 -19 -1z"/>
<path d="M4385 46261 c-3 -5 -2 -12 3 -15 5 -3 9 1 9 9 0 17 -3 19 -12 6z"/>
<path d="M4503 46258 c-11 -19 -13 -39 -1 -32 5 3 7 9 4 12 -3 3 -1 11 5 19 6
7 9 13 6 13 -3 0 -9 -6 -14 -12z"/>
<path d="M4540 46257 c-19 -15 -24 -38 -8 -34 7 1 13 -8 14 -19 1 -16 -5 -21
-22 -21 -13 0 -21 3 -19 8 10 16 -10 16 -27 0 -15 -15 -13 -16 30 -16 45 0 47
1 48 32 1 18 -3 30 -7 27 -13 -8 -11 10 3 24 16 16 7 15 -12 -1z"/>
<path d="M5986 46257 c3 -10 9 -15 12 -12 3 3 0 11 -7 18 -10 9 -11 8 -5 -6z"/>
<path d="M3851 46246 c-9 -11 -9 -16 1 -22 20 -13 40 -14 57 -3 12 8 10 8 -8
3 -14 -4 -21 -2 -17 4 3 5 0 15 -8 21 -10 8 -16 8 -25 -3z m23 -17 c-3 -5 -10
-7 -15 -3 -5 3 -7 10 -3 15 3 5 10 7 15 3 5 -3 7 -10 3 -15z"/>
<path d="M6136 46243 c-6 -14 -5 -15 5 -6 7 7 10 15 7 18 -3 3 -9 -2 -12 -12z"/>
<path d="M5949 46248 c-5 -18 -6 -38 -1 -34 7 8 12 36 6 36 -2 0 -4 -1 -5 -2z"/>
<path d="M4576 46232 c-3 -4 4 -9 15 -9 23 -2 25 3 4 10 -8 4 -16 3 -19 -1z"/>
<path d="M6083 46225 c0 -8 4 -12 9 -9 5 3 6 10 3 15 -9 13 -12 11 -12 -6z"/>
<path d="M6665 46220 c3 -5 8 -10 11 -10 2 0 4 5 4 10 0 6 -5 10 -11 10 -5 0
-7 -4 -4 -10z"/>
<path d="M3810 46206 c0 -2 8 -10 18 -17 15 -13 16 -12 3 4 -13 16 -21 21 -21
13z"/>
<path d="M5884 46199 c-3 -6 -12 -8 -19 -5 -8 3 -19 -1 -25 -9 -10 -12 -8 -13
10 -10 13 2 25 7 28 10 3 2 11 -3 19 -13 8 -9 11 -11 7 -3 -3 7 -1 17 6 21 8
5 8 9 -4 13 -8 3 -18 2 -22 -4z"/>
<path d="M6574 46188 l-19 -23 23 19 c12 11 22 21 22 23 0 8 -8 2 -26 -19z"/>
<path d="M4646 46178 c3 -5 10 -6 15 -3 13 9 11 12 -6 12 -8 0 -12 -4 -9 -9z"/>
<path d="M6006 46178 c3 -5 10 -6 15 -3 13 9 11 12 -6 12 -8 0 -12 -4 -9 -9z"/>
<path d="M3810 46176 c0 -2 8 -10 18 -17 15 -13 16 -12 3 4 -13 16 -21 21 -21
13z"/>
<path d="M4729 46168 c-8 -28 -4 -34 24 -36 17 -2 27 1 23 5 -4 4 -15 8 -24 8
-9 0 -16 6 -14 13 2 10 -6 19 -9 10z"/>
<path d="M5865 46160 c-4 -6 -10 -8 -15 -5 -5 3 -11 1 -14 -3 -3 -5 7 -8 22
-7 37 3 46 -4 30 -23 -8 -10 -14 -23 -14 -29 1 -15 21 -18 21 -4 0 5 3 13 8
17 4 4 7 2 7 -5 0 -7 5 -11 11 -9 13 4 13 23 -1 24 -23 3 -24 5 -14 12 8 5 4
13 -11 25 -15 10 -26 13 -30 7z"/>
<path d="M6536 46162 c-3 -5 4 -18 17 -28 21 -19 21 -19 7 0 -8 11 -13 21 -12
23 2 3 1 7 -1 9 -3 3 -8 1 -11 -4z"/>
<path d="M4670 46153 c0 -5 10 -18 23 -29 l22 -19 -20 25 c-11 14 -21 27 -22
29 -2 2 -3 0 -3 -6z"/>
<path d="M6585 46140 c4 -6 1 -19 -7 -28 -11 -15 -11 -15 3 -5 9 7 18 10 22 7
3 -3 3 3 0 15 -3 12 -10 21 -15 21 -5 0 -6 -5 -3 -10z"/>
<path d="M3890 46115 c-9 -11 -10 -19 -3 -26 8 -8 11 -6 10 7 -1 11 4 18 11
16 8 -1 11 2 7 8 -8 13 -10 13 -25 -5z"/>
<path d="M4662 46114 c10 -10 20 -16 22 -13 3 3 -5 11 -17 18 -21 13 -21 12
-5 -5z"/>
<path d="M6646 46121 c-4 -5 -2 -12 3 -15 5 -4 12 -2 15 3 4 5 2 12 -3 15 -5
4 -12 2 -15 -3z"/>
<path d="M3947 46111 c-10 -4 -18 -11 -17 -15 1 -5 -4 -13 -12 -18 -10 -8 -9
-9 4 -5 17 6 42 -15 31 -26 -3 -4 -1 -7 6 -7 7 0 9 -4 6 -10 -10 -16 1 -11 16
7 10 11 10 14 2 9 -16 -9 -16 -5 -3 28 7 19 6 25 -3 23 -7 -1 -11 4 -9 11 1 6
1 12 0 11 -2 0 -11 -4 -21 -8z m13 -26 c20 -24 6 -28 -15 -5 -10 11 -13 20 -8
20 6 0 16 -7 23 -15z"/>
<path d="M4839 46104 c-8 -10 -15 -11 -24 -4 -8 7 -12 5 -12 -5 0 -8 4 -12 8
-9 4 2 10 0 14 -6 3 -5 1 -10 -6 -10 -7 0 -9 -3 -6 -6 4 -4 13 -2 20 4 8 7 17
9 20 5 4 -3 7 -1 7 5 0 6 6 9 13 6 7 -2 24 0 38 6 21 9 20 9 -11 4 -23 -3 -30
-2 -22 4 11 7 9 10 -7 15 -11 3 -25 -1 -32 -9z m21 -3 c0 -5 -7 -12 -16 -15
-14 -5 -15 -4 -4 9 14 17 20 19 20 6z"/>
<path d="M5693 46103 c0 -15 19 -12 24 3 2 6 -3 11 -10 11 -8 0 -14 -6 -14
-14z"/>
<path d="M5846 46112 c-2 -4 -1 -14 4 -22 7 -11 9 -9 7 8 -1 24 -3 26 -11 14z"/>
<path d="M5636 46098 c3 -5 9 -6 14 -3 4 3 11 -1 13 -7 4 -8 6 -7 6 4 1 11 -6
16 -18 15 -11 0 -17 -5 -15 -9z"/>
<path d="M6455 46099 c-4 -6 -5 -12 -2 -15 2 -3 7 2 10 11 7 17 1 20 -8 4z"/>
<path d="M4056 46092 c-3 -5 1 -15 8 -21 11 -10 14 -9 12 3 -3 21 -13 29 -20
18z"/>
<path d="M5587 46093 c-4 -3 -7 -11 -7 -17 0 -6 5 -5 12 2 6 6 9 14 7 17 -3 3
-9 2 -12 -2z"/>
<path d="M5628 46068 c9 -21 23 -37 30 -38 9 0 10 4 2 13 -5 6 -19 23 -30 37
l-19 25 17 -37z"/>
<path d="M5731 46075 c-12 -14 -28 -22 -35 -18 -6 3 -8 3 -4 -2 4 -4 2 -15 -4
-24 -7 -9 -8 -13 -4 -9 5 4 15 0 23 -10 9 -12 12 -13 8 -2 -3 8 5 26 17 40 20
22 34 50 26 50 -2 0 -14 -12 -27 -25z m-1 -19 c0 -2 -8 -10 -17 -17 -16 -13
-17 -12 -4 4 13 16 21 21 21 13z"/>
<path d="M4670 46079 c0 -5 5 -7 10 -4 6 3 10 8 10 11 0 2 -4 4 -10 4 -5 0
-10 -5 -10 -11z"/>
<path d="M4941 46076 c-19 -23 4 -28 24 -6 15 17 16 20 3 20 -9 0 -21 -6 -27
-14z"/>
<path d="M4023 46050 c2 -8 13 -14 23 -13 18 1 18 1 0 -13 -21 -15 -18 -18 8
-8 9 3 16 13 16 21 0 10 -6 13 -17 9 -9 -4 -20 -1 -25 6 -7 10 -8 9 -5 -2z"/>
<path d="M4773 46037 c-3 -5 0 -14 6 -20 9 -9 10 -8 5 7 -6 16 -4 17 14 7 14
-7 23 -8 27 -1 7 11 8 11 -23 14 -13 2 -25 -1 -29 -7z"/>
<path d="M4871 46034 c0 -11 3 -14 6 -6 3 7 2 16 -1 19 -3 4 -6 -2 -5 -13z"/>
<path d="M5741 46036 c-9 -11 -9 -16 1 -22 7 -4 10 -4 6 1 -4 4 -3 14 3 22 6
7 9 13 6 13 -2 0 -10 -6 -16 -14z"/>
<path d="M6495 46040 c-3 -6 1 -7 9 -4 18 7 21 14 7 14 -6 0 -13 -4 -16 -10z"/>
<path d="M6531 46042 c1 -4 1 -14 0 -22 -1 -12 -3 -13 -10 -1 -7 11 -10 9 -16
-8 -3 -12 -11 -18 -17 -15 -7 5 -8 2 -3 -6 6 -10 11 -10 20 3 7 9 14 14 17 12
3 -3 12 3 22 14 15 16 15 19 2 24 -9 4 -15 3 -15 -1z"/>
<path d="M4009 46028 c-6 -20 -6 -37 1 -33 4 3 10 -2 14 -10 6 -17 48 -14 54
3 5 16 -11 15 -26 0 -9 -9 -15 -8 -26 7 -8 11 -12 23 -10 27 3 5 3 8 0 8 -3 0
-6 -1 -7 -2z"/>
<path d="M5605 46000 c-3 -5 -1 -10 4 -10 6 0 11 5 11 10 0 6 -2 10 -4 10 -3
0 -8 -4 -11 -10z"/>
<path d="M4177 45993 c-4 -3 -7 -11 -7 -17 0 -6 5 -5 12 2 6 6 9 14 7 17 -3 3
-9 2 -12 -2z"/>
<path d="M6370 45976 c7 -7 13 -7 20 0 6 6 3 10 -10 10 -13 0 -16 -4 -10 -10z"/>
<path d="M6320 45973 c0 -6 8 -17 18 -24 16 -13 16 -13 2 6 -8 11 -16 22 -17
24 -2 2 -3 0 -3 -6z"/>
<path d="M4093 45955 c0 -8 2 -13 5 -10 3 2 13 0 23 -6 15 -7 19 -7 17 3 -2 7
4 12 12 10 8 -2 11 0 7 4 -11 11 -38 14 -31 3 7 -12 -10 -11 -22 1 -7 7 -11 6
-11 -5z"/>
<path d="M5210 45960 c20 -13 33 -13 25 0 -3 6 -14 10 -23 10 -15 0 -15 -2 -2
-10z"/>
<path d="M5275 45960 c-3 -6 1 -7 9 -4 18 7 21 14 7 14 -6 0 -13 -4 -16 -10z"/>
<path d="M5369 45968 c-5 -18 -6 -38 -1 -34 7 8 12 36 6 36 -2 0 -4 -1 -5 -2z"/>
<path d="M6409 45963 c-1 -4 -1 -12 0 -17 1 -5 -4 -6 -12 -3 -17 6 -41 -20
-44 -48 -1 -11 0 -15 3 -8 3 7 11 10 18 7 24 -9 67 58 45 72 -5 3 -10 2 -10
-3z m-9 -45 c-22 -21 -38 -24 -21 -5 6 8 9 16 6 18 -2 3 5 5 15 5 19 0 19 -1
0 -18z"/>
<path d="M5085 45950 c-3 -5 -2 -10 4 -10 5 0 13 5 16 10 3 6 2 10 -4 10 -5 0
-13 -4 -16 -10z"/>
<path d="M6448 45953 c7 -3 16 -2 19 1 4 3 -2 6 -13 5 -11 0 -14 -3 -6 -6z"/>
<path d="M4119 45914 c17 -13 25 -14 34 -5 9 9 8 11 -4 6 -10 -4 -20 -2 -24 4
-3 6 -11 11 -18 11 -6 0 -1 -7 12 -16z"/>
<path d="M4284 45913 c-10 -7 -13 -13 -7 -13 7 0 15 5 18 10 4 6 10 8 15 5 5
-3 11 -2 14 3 8 13 -19 10 -40 -5z"/>
<path d="M4350 45899 c0 -5 5 -7 10 -4 6 3 10 8 10 11 0 2 -4 4 -10 4 -5 0
-10 -5 -10 -11z"/>
<path d="M6263 45903 c4 -3 2 -12 -4 -20 -8 -9 -8 -13 -1 -13 6 0 17 -7 26
-15 8 -8 17 -11 21 -6 3 5 -3 12 -14 16 -13 4 -17 12 -14 25 3 12 0 20 -8 20
-7 0 -9 -3 -6 -7z"/>
<path d="M6140 45889 c0 -5 -4 -8 -9 -5 -11 7 -7 -24 7 -71 6 -17 8 -34 6 -37
-2 -3 -1 -4 3 -1 11 9 11 50 -1 58 -8 5 -6 10 4 18 13 9 12 10 -3 5 -12 -4
-17 -2 -14 6 2 7 9 12 15 11 6 -2 9 4 6 12 -7 17 -14 20 -14 4z"/>
<path d="M4208 45873 c6 -10 21 -18 33 -18 12 0 24 -6 27 -14 3 -9 0 -11 -9
-7 -8 4 -5 1 5 -8 10 -8 22 -13 27 -11 4 3 9 0 11 -7 3 -8 7 -6 11 4 3 10 -1
22 -11 30 -10 8 -13 8 -9 1 4 -6 4 -14 -1 -16 -4 -3 -13 6 -19 20 -10 20 -9
24 1 20 7 -3 13 1 13 8 0 10 -7 11 -24 4 -16 -6 -32 -5 -45 2 -18 10 -19 9
-10 -8z"/>
<path d="M4409 45858 c-6 -20 -4 -55 4 -60 6 -3 12 -16 14 -27 2 -16 -1 -19
-15 -14 -18 7 -17 5 11 -17 10 -7 17 -9 16 -4 -3 19 1 34 12 34 5 0 7 -5 3
-12 -5 -7 -3 -8 6 -3 10 6 10 11 -3 20 -10 7 -17 17 -17 24 0 6 -5 10 -12 9
-8 -2 -12 8 -12 25 1 22 -3 36 -7 25z"/>
<path d="M6255 45840 c-3 -6 1 -7 9 -4 18 7 21 14 7 14 -6 0 -13 -4 -16 -10z"/>
<path d="M5996 45827 c-16 -12 -16 -14 -3 -14 9 0 18 6 21 14 3 7 4 13 3 13
-2 0 -11 -6 -21 -13z"/>
<path d="M6085 45823 c2 -10 4 -20 5 -23 1 -3 2 -12 1 -21 -1 -9 6 -22 16 -29
15 -12 16 -12 6 0 -22 24 -14 34 9 14 l22 -19 -22 29 c-12 15 -20 32 -17 36 3
4 -2 13 -9 19 -12 10 -14 9 -11 -6z"/>
<path d="M6026 45822 c-3 -5 1 -9 9 -9 8 0 12 4 9 9 -3 4 -7 8 -9 8 -2 0 -6
-4 -9 -8z"/>
<path d="M4359 45808 c-5 -18 -6 -38 -1 -34 7 8 12 36 6 36 -2 0 -4 -1 -5 -2z"/>
<path d="M4450 45796 c0 -2 7 -7 16 -10 8 -3 12 -2 9 4 -6 10 -25 14 -25 6z"/>
<path d="M6175 45789 c-4 -6 -4 -13 -1 -16 3 -4 6 -1 6 6 0 7 5 9 12 5 7 -4 8
-3 4 4 -9 15 -13 15 -21 1z"/>
<path d="M4570 45775 c-7 -9 -8 -15 -2 -15 5 0 12 7 16 15 3 8 4 15 2 15 -2 0
-9 -7 -16 -15z"/>
<path d="M5851 45774 c-1 -6 6 -17 14 -24 13 -11 13 -14 -2 -26 -16 -13 -16
-14 -1 -8 13 4 16 1 13 -14 -3 -16 1 -20 18 -16 11 2 28 11 36 20 14 15 13 15
-11 0 -16 -11 -29 -13 -32 -7 -4 5 -1 13 4 16 8 5 6 13 -5 25 -10 11 -12 20
-7 24 6 3 13 0 15 -6 4 -10 6 -10 6 0 1 7 6 10 13 6 6 -4 8 -3 5 4 -8 11 -25
11 -44 -1 -6 -4 -14 -1 -16 5 -4 8 -6 9 -6 2z"/>
<path d="M5827 45749 c4 -13 8 -18 11 -10 2 7 -1 18 -6 23 -8 8 -9 4 -5 -13z"/>
<path d="M5793 45745 c0 -8 4 -12 9 -9 5 3 6 10 3 15 -9 13 -12 11 -12 -6z"/>
<path d="M4500 45716 c7 -7 13 -7 20 0 6 6 3 10 -10 10 -13 0 -16 -4 -10 -10z"/>
<path d="M4537 45711 c-4 -17 -3 -21 5 -13 5 5 8 16 6 23 -3 8 -7 3 -11 -10z"/>
<path d="M5962 45713 c10 -12 4 -17 -15 -14 -5 1 -6 -3 -2 -9 5 -8 11 -8 20 0
8 7 20 8 26 4 8 -5 9 -3 4 6 -6 9 -4 12 7 8 8 -4 15 -1 15 5 0 7 -15 12 -33
12 -26 1 -30 -2 -22 -12z"/>
<path d="M4625 45710 c-4 -6 -2 -17 4 -24 6 -7 9 -16 6 -20 -3 -3 0 -2 7 4 8
7 20 3 37 -13 14 -12 23 -18 19 -13 -4 4 -3 19 2 32 7 17 6 23 -3 21 -7 -1
-11 3 -10 10 3 13 -22 7 -46 -11 -12 -9 -13 -8 -8 7 7 19 2 23 -8 7z m53 -22
c19 -19 14 -33 -6 -15 -10 10 -22 14 -27 10 -4 -5 -5 -2 -1 5 9 15 19 15 34 0z"/>
<path d="M5615 45709 c-11 -16 -1 -19 13 -3 7 8 8 14 3 14 -5 0 -13 -5 -16
-11z"/>
<path d="M5653 45703 c-3 -10 -8 -22 -11 -27 -3 -5 0 -6 5 -3 11 7 25 47 17
47 -3 0 -7 -8 -11 -17z"/>
<path d="M5010 45685 c5 -7 6 -16 2 -21 -4 -5 -3 -5 2 -1 15 12 15 34 0 34 -9
0 -11 -4 -4 -12z"/>
<path d="M5840 45691 c0 -6 4 -13 10 -16 6 -3 7 1 4 9 -7 18 -14 21 -14 7z"/>
<path d="M4983 45675 c0 -8 4 -12 9 -9 5 3 6 10 3 15 -9 13 -12 11 -12 -6z"/>
<path d="M5126 45682 c-2 -4 -1 -14 4 -22 7 -11 9 -9 7 8 -1 24 -3 26 -11 14z"/>
<path d="M5500 45671 c0 -5 -11 -8 -25 -6 -14 1 -23 0 -20 -3 2 -3 -1 -12 -8
-20 -10 -13 -9 -13 13 0 14 9 33 14 42 13 11 -2 15 2 11 11 -6 16 -13 19 -13
5z"/>
<path d="M5287 45659 c7 -7 15 -10 18 -7 3 3 -2 9 -12 12 -14 6 -15 5 -6 -5z"/>
<path d="M5664 45663 c7 -12 -6 -18 -29 -13 -5 1 -7 -2 -2 -6 4 -4 16 -9 26
-11 19 -3 23 19 6 34 -4 4 -5 2 -1 -4z"/>
<path d="M5533 45647 c0 -9 4 -14 9 -11 13 8 9 -10 -4 -25 -11 -10 -10 -12 2
-9 8 2 14 -3 12 -10 -1 -8 2 -11 8 -7 6 4 9 9 6 13 -3 3 2 10 11 17 13 9 13
14 3 20 -9 5 -11 4 -6 -3 12 -20 -5 -13 -23 10 -14 17 -18 18 -18 5z"/>
<path d="M4740 45635 c6 -7 22 -11 36 -9 26 2 46 13 28 15 -63 6 -73 5 -64 -6z"/>
<path d="M5696 45639 c2 -4 0 -10 -6 -14 -5 -3 -10 -12 -10 -18 0 -7 7 -3 16
8 8 11 19 20 24 20 4 0 11 2 14 6 3 3 -5 5 -19 5 -13 0 -22 -3 -19 -7z"/>
<path d="M5766 45638 c3 -5 10 -6 15 -3 13 9 11 12 -6 12 -8 0 -12 -4 -9 -9z"/>
<path d="M5473 45627 c1 -7 -4 -11 -11 -9 -8 1 -12 -1 -9 -5 2 -5 7 -16 11
-27 6 -17 8 -18 25 -2 9 9 20 13 24 10 3 -3 4 2 3 12 -1 9 -12 21 -24 25 -15
6 -21 5 -19 -4z m22 -27 c-10 -11 -20 -18 -23 -15 -7 6 18 35 31 35 5 0 2 -9
-8 -20z"/>
<path d="M4988 45616 c-10 -7 -18 -17 -18 -22 0 -4 5 -3 12 4 17 17 28 15 21
-4 -5 -14 -3 -13 15 2 26 22 27 25 5 17 -11 -4 -14 -3 -9 5 10 16 -5 15 -26
-2z"/>
<path d="M5615 45611 c-8 -7 -6 -21 3 -21 5 0 16 6 26 13 16 12 16 13 -4 13
-11 0 -23 -2 -25 -5z"/>
<path d="M4905 45600 c-3 -6 1 -7 9 -4 18 7 21 14 7 14 -6 0 -13 -4 -16 -10z"/>
<path d="M22381 39849 c-2249 -75 -4423 -754 -6346 -1982 -1997 -1275 -3659
-3182 -4645 -5332 -648 -1411 -1008 -2821 -1126 -4405 -33 -447 -30 -1300 7
-1790 209 -2809 1351 -5449 3264 -7545 153 -168 632 -647 800 -800 1976 -1803
4444 -2926 7075 -3219 547 -61 953 -80 1565 -73 470 5 706 18 1100 57 2592
259 5039 1322 7009 3046 442 386 948 899 1317 1334 318 375 608 759 873 1154
1650 2462 2371 5413 2045 8371 -338 3074 -1813 5924 -4139 7999 -1669 1489
-3704 2509 -5877 2945 -957 193 -1935 273 -2922 240z m1823 -521 c-4 -13 -94
-311 -199 -663 l-193 -640 -128 0 c-224 1 -802 -14 -979 -25 -264 -17 -686
-57 -950 -90 -2482 -314 -4721 -1169 -6482 -2476 -1789 -1328 -3101 -3106
-3918 -5310 -46 -126 -84 -226 -85 -222 -1 19 66 321 101 458 404 1571 1217
3139 2305 4446 402 482 920 1004 1394 1405 2092 1766 4813 2803 8075 3078 384
33 779 57 963 60 103 1 103 1 96 -21z m-654 -2162 c871 -70 1645 -228 2450
-501 1183 -402 2296 -1038 3260 -1865 1225 -1051 2181 -2390 2773 -3885 347
-875 570 -1816 651 -2745 51 -577 51 -1223 0 -1780 -225 -2482 -1378 -4782
-3239 -6460 -2193 -1979 -5108 -2869 -8040 -2454 -2791 395 -5316 2008 -6880
4393 -827 1263 -1353 2688 -1539 4177 -61 484 -80 850 -73 1379 6 417 20 653
62 1010 184 1555 721 3016 1587 4318 287 432 599 831 948 1212 152 166 539
550 695 689 1614 1445 3616 2314 5760 2501 330 29 467 33 930 30 297 -2 529
-9 655 -19z"/>
<path d="M22460 36833 c-1630 -71 -3137 -522 -4500 -1346 -2446 -1479 -4096
-3989 -4474 -6807 -98 -730 -108 -1566 -25 -2295 304 -2699 1736 -5105 3974
-6677 1966 -1380 4402 -1949 6800 -1587 2156 325 4155 1414 5615 3058 1770
1993 2607 4606 2325 7261 -189 1772 -892 3467 -2024 4879 -371 463 -864 964
-1339 1358 -293 245 -711 545 -1044 752 -1505 932 -3235 1421 -4988 1409 -140
-1 -284 -3 -320 -5z m1090 -227 c232 -20 479 -50 680 -81 1596 -250 3080 -907
4350 -1926 470 -377 977 -880 1365 -1354 1158 -1415 1874 -3161 2039 -4970 12
-130 35 -463 36 -517 0 -4 -10 -18 -22 -31 -13 -14 -50 -55 -83 -93 -68 -77
-72 -81 -203 -224 -108 -117 -615 -627 -733 -735 -106 -99 -176 -162 -248
-225 -35 -30 -71 -62 -80 -71 -9 -8 -45 -39 -80 -68 -35 -29 -70 -58 -77 -64
-6 -7 -29 -25 -49 -42 -20 -16 -47 -39 -60 -50 -12 -11 -31 -27 -41 -35 -11
-8 -48 -37 -82 -65 -35 -27 -92 -72 -126 -100 -34 -27 -75 -59 -90 -70 -16
-11 -33 -25 -40 -30 -17 -17 -230 -174 -346 -256 -152 -109 -362 -250 -490
-329 -36 -23 -100 -63 -143 -91 -43 -27 -80 -49 -82 -49 -2 0 -23 -13 -47 -29
-24 -15 -70 -43 -103 -61 -33 -18 -100 -56 -150 -85 -188 -110 -624 -333 -790
-404 -55 -24 -139 -63 -187 -87 -48 -24 -183 -81 -300 -128 -875 -348 -1750
-559 -2673 -646 -427 -39 -563 -45 -1105 -45 -526 0 -674 6 -1050 41 -2242
208 -4222 1088 -5689 2529 -519 510 -951 1031 -1350 1630 -300 451 -551 900
-773 1385 -14 30 -40 87 -58 125 -38 84 -210 494 -210 502 0 3 -15 45 -34 92
-47 120 -128 357 -186 544 l-49 158 73 182 c303 753 689 1442 1170 2087 856
1149 1990 2100 3268 2741 1107 555 2293 874 3573 959 213 14 1061 5 1275 -14z"/>
<path d="M1803 7042 c-12 -9 -26 -28 -31 -42 -7 -18 53 -660 209 -2245 121
-1221 221 -2231 224 -2243 3 -13 18 -35 33 -49 l27 -26 712 6 712 6 3 -520 3
-521 28 -24 28 -24 930 0 931 0 29 29 29 29 0 520 0 520 313 6 c171 3 7690 60
16707 126 9017 66 16621 123 16898 126 l502 7 0 -657 0 -657 25 -24 24 -25
933 0 c1037 0 967 -5 988 68 6 24 10 265 10 668 l0 631 143 6 c78 4 394 7 702
7 597 0 589 0 627 50 16 22 34 242 173 2108 143 1913 154 2085 140 2112 -8 16
-24 34 -34 40 -14 7 -6632 10 -21008 10 -19870 0 -20989 -1 -21010 -18z
m38304 -209 c304 -204 511 -416 698 -718 178 -285 298 -649 346 -1050 16 -130
16 -502 0 -630 -85 -679 -451 -1152 -1136 -1466 l-100 -46 -18755 -140
c-10315 -77 -18757 -138 -18760 -136 -2 2 -95 925 -206 2051 -111 1126 -205
2073 -209 2105 l-6 57 19043 0 19044 0 41 -27z m267 -4122 c4 -5 -1 -8 -9 -7
-21 3 -31 16 -12 16 9 0 18 -4 21 -9z m373 -521 c1 -323 -2 -516 -7 -502 -11
26 -18 29 -16 5 1 -17 -15 -18 -191 -19 l-192 -2 -1 513 0 512 22 -1 c14 -1
22 4 20 12 -2 10 34 12 180 10 l183 -3 2 -525z m-36387 -124 c-1 -336 -3 -385
-16 -390 -9 -3 -101 -6 -205 -6 l-189 0 0 28 c0 19 3 23 9 13 6 -9 11 -10 15
-2 4 6 0 14 -9 17 -14 6 -16 44 -15 360 1 259 5 354 13 357 7 3 99 5 205 6
l192 2 0 -385z"/>
<path d="M40351 1720 c0 -8 4 -22 9 -30 12 -18 12 -2 0 25 -6 13 -9 15 -9 5z"/>
</g>
</svg>
